ChironHeiHKVF-weight0-Master.ufo
<glyph name="uni3AD7" format="2">
  <advance height="1000" width="1000"/>
  <unicode hex="3AD7"/>
  <outline>
    <contour>
      <point x="204" y="382" type="line"/>
      <point x="199" y="353" type="line"/>
      <point x="774" y="353" type="line"/>
      <point x="779" y="382" type="line"/>
    </contour>
    <contour>
      <point x="31" y="197" type="line"/>
      <point x="26" y="168" type="line"/>
      <point x="918" y="168" type="line"/>
      <point x="923" y="197" type="line"/>
    </contour>
    <contour>
      <point x="485" y="249" type="line"/>
      <point x="434" y="-22" type="line" smooth="yes"/>
      <point x="431" y="-36"/>
      <point x="425" y="-41"/>
      <point x="408" y="-42" type="curve" smooth="yes"/>
      <point x="389" y="-44"/>
      <point x="329" y="-44"/>
      <point x="245" y="-42" type="curve"/>
      <point x="249" y="-51"/>
      <point x="254" y="-62"/>
      <point x="256" y="-69" type="curve"/>
      <point x="353" y="-69"/>
      <point x="399" y="-70"/>
      <point x="424" y="-65" type="curve"/>
      <point x="450" y="-58"/>
      <point x="459" y="-47"/>
      <point x="464" y="-21" type="curve" smooth="yes"/>
      <point x="515" y="249" type="line"/>
    </contour>
    <contour>
      <point x="769" y="382" type="line"/>
      <point x="768" y="376" type="line"/>
      <point x="699" y="328"/>
      <point x="582" y="278"/>
      <point x="485" y="249" type="curve"/>
      <point x="491" y="244"/>
      <point x="498" y="236"/>
      <point x="501" y="229" type="curve"/>
      <point x="598" y="260"/>
      <point x="720" y="312"/>
      <point x="802" y="369" type="curve"/>
      <point x="783" y="384" type="line"/>
      <point x="776" y="382" type="line"/>
    </contour>
    <contour>
      <point x="253" y="609" type="line"/>
      <point x="858" y="609" type="line"/>
      <point x="836" y="494" type="line"/>
      <point x="231" y="494" type="line"/>
    </contour>
    <contour>
      <point x="280" y="751" type="line"/>
      <point x="885" y="751" type="line"/>
      <point x="864" y="638" type="line"/>
      <point x="259" y="638" type="line"/>
    </contour>
    <contour>
      <point x="256" y="780" type="line"/>
      <point x="197" y="465" type="line"/>
      <point x="860" y="465" type="line"/>
      <point x="919" y="780" type="line"/>
    </contour>
  </outline>
</glyph>
<glyph name="uni47EC" format="2">
  <advance height="1000" width="1000"/>
  <unicode hex="47EC"/>
  <outline>
    <contour>
      <point x="560" y="473" type="line"/>
      <point x="555" y="443" type="line"/>
      <point x="956" y="443" type="line"/>
      <point x="961" y="473" type="line"/>
    </contour>
    <contour>
      <point x="359" y="-14" type="line"/>
      <point x="354" y="-43" type="line"/>
      <point x="887" y="-43" type="line"/>
      <point x="892" y="-14" type="line"/>
    </contour>
    <contour>
      <point x="797" y="462" type="line"/>
      <point x="704" y="-32" type="line"/>
      <point x="734" y="-32" type="line"/>
      <point x="827" y="462" type="line"/>
    </contour>
    <contour>
      <point x="961" y="817" type="line"/>
      <point x="877" y="785"/>
      <point x="722" y="753"/>
      <point x="592" y="730" type="curve"/>
      <point x="596" y="723"/>
      <point x="600" y="713"/>
      <point x="599" y="706" type="curve"/>
      <point x="733" y="728"/>
      <point x="888" y="760"/>
      <point x="988" y="796" type="curve"/>
    </contour>
    <contour>
      <point x="592" y="730" type="line"/>
      <point x="448" y="-30" type="line"/>
      <point x="478" y="-30" type="line"/>
      <point x="620" y="719" type="line"/>
    </contour>
    <contour>
      <point x="213" y="753" type="line"/>
      <point x="452" y="753" type="line"/>
      <point x="410" y="531" type="line"/>
      <point x="171" y="531" type="line"/>
    </contour>
    <contour>
      <point x="189" y="782" type="line"/>
      <point x="136" y="502" type="line"/>
      <point x="434" y="502" type="line"/>
      <point x="487" y="782" type="line"/>
    </contour>
    <contour>
      <point x="273" y="522" type="line"/>
      <point x="184" y="54" type="line"/>
      <point x="214" y="54" type="line"/>
      <point x="303" y="522" type="line"/>
    </contour>
    <contour>
      <point x="120" y="384" type="line"/>
      <point x="51" y="23" type="line"/>
      <point x="80" y="23" type="line"/>
      <point x="149" y="384" type="line"/>
    </contour>
    <contour>
      <point x="-7" y="19" type="curve"/>
      <point x="-4" y="-11" type="line"/>
      <point x="98" y="16"/>
      <point x="244" y="54"/>
      <point x="384" y="89" type="curve"/>
      <point x="386" y="118" type="line"/>
      <point x="238" y="80"/>
      <point x="89" y="41"/>
    </contour>
    <contour>
      <point x="244" y="329" type="line"/>
      <point x="239" y="300" type="line"/>
      <point x="412" y="300" type="line"/>
      <point x="417" y="329" type="line"/>
    </contour>
  </outline>
</glyph>
<glyph name="uni4E86" format="2">
  <advance height="1000" width="1000"/>
  <unicode hex="4E86"/>
  <outline>
    <contour>
      <point x="519" y="485" type="line"/>
      <point x="424" y="-14" type="line" smooth="yes"/>
      <point x="421" y="-32"/>
      <point x="414" y="-38"/>
      <point x="393" y="-39" type="curve" smooth="yes"/>
      <point x="369" y="-41"/>
      <point x="297" y="-42"/>
      <point x="202" y="-39" type="curve"/>
      <point x="205" y="-49"/>
      <point x="208" y="-61"/>
      <point x="208" y="-69" type="curve"/>
      <point x="316" y="-69"/>
      <point x="377" y="-69"/>
      <point x="406" y="-64" type="curve" smooth="yes"/>
      <point x="436" y="-58"/>
      <point x="448" y="-46"/>
      <point x="455" y="-13" type="curve" smooth="yes"/>
      <point x="549" y="485" type="line"/>
    </contour>
    <contour>
      <point x="181" y="744" type="line"/>
      <point x="175" y="715" type="line"/>
      <point x="921" y="715" type="line"/>
      <point x="927" y="744" type="line"/>
    </contour>
    <contour>
      <point x="918" y="744" type="line"/>
      <point x="916" y="736" type="line"/>
      <point x="823" y="650"/>
      <point x="654" y="543"/>
      <point x="519" y="485" type="curve"/>
      <point x="524" y="480"/>
      <point x="531" y="472"/>
      <point x="535" y="466" type="curve"/>
      <point x="671" y="526"/>
      <point x="843" y="631"/>
      <point x="951" y="731" type="curve"/>
      <point x="932" y="746" type="line"/>
      <point x="925" y="744" type="line"/>
    </contour>
  </outline>
</glyph>
<glyph name="uni50DD" format="2">
  <advance height="1000" width="1000"/>
  <unicode hex="50DD"/>
  <outline>
    <contour>
      <point x="433" y="794" type="line"/>
      <point x="428" y="765" type="line"/>
      <point x="964" y="765" type="line"/>
      <point x="945" y="666" type="line"/>
      <point x="409" y="666" type="line"/>
      <point x="403" y="636" type="line"/>
      <point x="969" y="636" type="line"/>
      <point x="999" y="794" type="line"/>
    </contour>
    <contour>
      <point x="419" y="794" type="line"/>
      <point x="359" y="475" type="line" smooth="yes"/>
      <point x="330" y="321"/>
      <point x="281" y="112"/>
      <point x="159" y="-41" type="curve"/>
      <point x="166" y="-44"/>
      <point x="176" y="-53"/>
      <point x="180" y="-59" type="curve"/>
      <point x="304" y="97"/>
      <point x="358" y="317"/>
      <point x="388" y="475" type="curve" smooth="yes"/>
      <point x="448" y="794" type="line"/>
    </contour>
    <contour>
      <point x="529" y="580" type="line"/>
      <point x="523" y="551" type="line"/>
      <point x="863" y="551" type="line"/>
      <point x="869" y="580" type="line"/>
    </contour>
    <contour>
      <point x="432" y="462" type="line"/>
      <point x="427" y="432" type="line"/>
      <point x="957" y="432" type="line"/>
      <point x="962" y="462" type="line"/>
    </contour>
    <contour>
      <point x="863" y="580" type="line"/>
      <point x="861" y="573" type="line"/>
      <point x="817" y="547"/>
      <point x="746" y="521"/>
      <point x="689" y="503" type="curve"/>
      <point x="694" y="499"/>
      <point x="702" y="492"/>
      <point x="705" y="486" type="curve"/>
      <point x="763" y="504"/>
      <point x="842" y="532"/>
      <point x="896" y="567" type="curve"/>
      <point x="876" y="582" type="line"/>
      <point x="869" y="580" type="line"/>
    </contour>
    <contour>
      <point x="299" y="82" type="curve"/>
      <point x="307" y="54" type="line"/>
      <point x="387" y="71"/>
      <point x="491" y="93"/>
      <point x="593" y="116" type="curve"/>
      <point x="595" y="142" type="line"/>
      <point x="485" y="119"/>
      <point x="375" y="96"/>
    </contour>
    <contour>
      <point x="689" y="503" type="line"/>
      <point x="663" y="365" type="line" smooth="yes"/>
      <point x="661" y="355"/>
      <point x="659" y="352"/>
      <point x="647" y="352" type="curve"/>
      <point x="633" y="351"/>
      <point x="598" y="351"/>
      <point x="547" y="352" type="curve"/>
      <point x="550" y="343"/>
      <point x="553" y="333"/>
      <point x="554" y="326" type="curve"/>
      <point x="613" y="326"/>
      <point x="645" y="325"/>
      <point x="664" y="330" type="curve" smooth="yes"/>
      <point x="683" y="336"/>
      <point x="688" y="345"/>
      <point x="692" y="365" type="curve" smooth="yes"/>
      <point x="718" y="503" type="line"/>
    </contour>
    <contour>
      <point x="372" y="276" type="line"/>
      <point x="366" y="246" type="line"/>
      <point x="609" y="246" type="line"/>
      <point x="615" y="276" type="line"/>
    </contour>
    <contour>
      <point x="602" y="276" type="line"/>
      <point x="601" y="269" type="line"/>
      <point x="566" y="240"/>
      <point x="509" y="207"/>
      <point x="463" y="186" type="curve"/>
      <point x="469" y="182"/>
      <point x="476" y="177"/>
      <point x="480" y="171" type="curve"/>
      <point x="526" y="192"/>
      <point x="589" y="227"/>
      <point x="634" y="264" type="curve"/>
      <point x="616" y="278" type="line"/>
      <point x="609" y="276" type="line"/>
    </contour>
    <contour>
      <point x="463" y="186" type="line"/>
      <point x="423" y="-24" type="line"/>
      <point x="422" y="-33"/>
      <point x="419" y="-36"/>
      <point x="408" y="-37" type="curve" smooth="yes"/>
      <point x="396" y="-38"/>
      <point x="360" y="-38"/>
      <point x="311" y="-37" type="curve"/>
      <point x="314" y="-45"/>
      <point x="317" y="-56"/>
      <point x="318" y="-64" type="curve"/>
      <point x="374" y="-64"/>
      <point x="406" y="-64"/>
      <point x="425" y="-59" type="curve"/>
      <point x="443" y="-53"/>
      <point x="449" y="-44"/>
      <point x="453" y="-23" type="curve" smooth="yes"/>
      <point x="492" y="186" type="line"/>
    </contour>
    <contour>
      <point x="679" y="276" type="line"/>
      <point x="673" y="246" type="line"/>
      <point x="912" y="246" type="line"/>
      <point x="918" y="276" type="line"/>
    </contour>
    <contour>
      <point x="616" y="124" type="line"/>
      <point x="611" y="94" type="line"/>
      <point x="921" y="94" type="line"/>
      <point x="926" y="124" type="line"/>
    </contour>
    <contour>
      <point x="910" y="276" type="line"/>
      <point x="909" y="269" type="line"/>
      <point x="874" y="240"/>
      <point x="815" y="207"/>
      <point x="768" y="186" type="curve"/>
      <point x="773" y="182"/>
      <point x="780" y="177"/>
      <point x="784" y="171" type="curve"/>
      <point x="833" y="192"/>
      <point x="897" y="227"/>
      <point x="943" y="264" type="curve"/>
      <point x="924" y="278" type="line"/>
      <point x="917" y="276" type="line"/>
    </contour>
    <contour>
      <point x="768" y="186" type="line"/>
      <point x="727" y="-32" type="line" smooth="yes"/>
      <point x="725" y="-42"/>
      <point x="721" y="-45"/>
      <point x="709" y="-46" type="curve" smooth="yes"/>
      <point x="698" y="-47"/>
      <point x="661" y="-47"/>
      <point x="610" y="-45" type="curve"/>
      <point x="614" y="-54"/>
      <point x="617" y="-65"/>
      <point x="617" y="-72" type="curve"/>
      <point x="675" y="-72"/>
      <point x="708" y="-73"/>
      <point x="728" y="-67" type="curve" smooth="yes"/>
      <point x="746" y="-62"/>
      <point x="752" y="-53"/>
      <point x="756" y="-32" type="curve" smooth="yes"/>
      <point x="797" y="186" type="line"/>
    </contour>
    <contour>
      <point x="340" y="823" type="line"/>
      <point x="263" y="666"/>
      <point x="157" y="514"/>
      <point x="48" y="414" type="curve"/>
      <point x="53" y="408"/>
      <point x="62" y="396"/>
      <point x="66" y="390" type="curve"/>
      <point x="176" y="497"/>
      <point x="285" y="652"/>
      <point x="367" y="817" type="curve"/>
    </contour>
    <contour>
      <point x="222" y="606" type="line"/>
      <point x="94" y="-67" type="line"/>
      <point x="123" y="-67" type="line"/>
      <point x="256" y="634" type="line"/>
      <point x="256" y="635" type="line"/>
    </contour>
  </outline>
</glyph>
<glyph name="uni52D0" format="2">
  <advance height="1000" width="1000"/>
  <unicode hex="52D0"/>
  <outline>
    <contour>
      <point x="198" y="776" type="line"/>
      <point x="192" y="747" type="line"/>
      <point x="555" y="747" type="line"/>
      <point x="561" y="776" type="line"/>
    </contour>
    <contour>
      <point x="110" y="562" type="line"/>
      <point x="105" y="532" type="line"/>
      <point x="565" y="532" type="line"/>
      <point x="570" y="562" type="line"/>
    </contour>
    <contour>
      <point x="343" y="643" type="line"/>
      <point x="292" y="376" type="line" smooth="yes"/>
      <point x="290" y="365"/>
      <point x="287" y="361"/>
      <point x="273" y="360" type="curve" smooth="yes"/>
      <point x="258" y="359"/>
      <point x="219" y="359"/>
      <point x="156" y="360" type="curve"/>
      <point x="161" y="351"/>
      <point x="167" y="339"/>
      <point x="168" y="330" type="curve"/>
      <point x="233" y="330"/>
      <point x="267" y="330"/>
      <point x="289" y="337" type="curve" smooth="yes"/>
      <point x="311" y="343"/>
      <point x="319" y="354"/>
      <point x="323" y="376" type="curve" smooth="yes"/>
      <point x="374" y="643" type="line"/>
    </contour>
    <contour>
      <point x="551" y="776" type="line"/>
      <point x="549" y="769" type="line"/>
      <point x="500" y="724"/>
      <point x="414" y="673"/>
      <point x="343" y="643" type="curve"/>
      <point x="349" y="638"/>
      <point x="356" y="630"/>
      <point x="360" y="624" type="curve"/>
      <point x="432" y="657"/>
      <point x="522" y="710"/>
      <point x="583" y="765" type="curve"/>
      <point x="563" y="778" type="line"/>
      <point x="558" y="776" type="line"/>
    </contour>
    <contour>
      <point x="-22" y="0" type="curve"/>
      <point x="-22" y="-30" type="line"/>
      <point x="106" y="-16"/>
      <point x="300" y="5"/>
      <point x="485" y="27" type="curve"/>
      <point x="490" y="55" type="line"/>
      <point x="297" y="33"/>
      <point x="100" y="12"/>
    </contour>
    <contour>
      <point x="94" y="295" type="line"/>
      <point x="36" y="-12" type="line"/>
      <point x="67" y="-8" type="line"/>
      <point x="125" y="295" type="line"/>
    </contour>
    <contour>
      <point x="211" y="279" type="line"/>
      <point x="159" y="6" type="line"/>
      <point x="188" y="7" type="line"/>
      <point x="240" y="279" type="line"/>
    </contour>
    <contour>
      <point x="332" y="279" type="line"/>
      <point x="282" y="18" type="line"/>
      <point x="313" y="23" type="line"/>
      <point x="362" y="279" type="line"/>
    </contour>
    <contour>
      <point x="457" y="295" type="line"/>
      <point x="407" y="33" type="line"/>
      <point x="437" y="38" type="line"/>
      <point x="486" y="295" type="line"/>
    </contour>
    <contour>
      <point x="108" y="295" type="line"/>
      <point x="102" y="266" type="line"/>
      <point x="465" y="266" type="line"/>
      <point x="471" y="295" type="line"/>
    </contour>
    <contour>
      <point x="598" y="588" type="line"/>
      <point x="593" y="559" type="line"/>
      <point x="947" y="559" type="line"/>
      <point x="952" y="588" type="line"/>
    </contour>
    <contour>
      <point x="940" y="588" type="line"/>
      <point x="938" y="579" type="line" smooth="yes"/>
      <point x="848" y="155"/>
      <point x="809" y="10"/>
      <point x="777" y="-20" type="curve"/>
      <point x="766" y="-32"/>
      <point x="756" y="-34"/>
      <point x="740" y="-34" type="curve" smooth="yes"/>
      <point x="722" y="-34"/>
      <point x="671" y="-34"/>
      <point x="617" y="-29" type="curve"/>
      <point x="621" y="-37"/>
      <point x="621" y="-50"/>
      <point x="620" y="-60" type="curve"/>
      <point x="665" y="-63"/>
      <point x="712" y="-64"/>
      <point x="739" y="-63" type="curve" smooth="yes"/>
      <point x="765" y="-63"/>
      <point x="782" y="-57"/>
      <point x="801" y="-38" type="curve" smooth="yes"/>
      <point x="838" y="1"/>
      <point x="873" y="133"/>
      <point x="965" y="566" type="curve" smooth="yes"/>
      <point x="966" y="572"/>
      <point x="969" y="588"/>
      <point x="969" y="588" type="curve"/>
    </contour>
    <contour>
      <point x="801" y="829" type="line"/>
      <point x="738" y="505"/>
      <point x="662" y="127"/>
      <point x="445" y="-54" type="curve"/>
      <point x="453" y="-57"/>
      <point x="466" y="-65"/>
      <point x="471" y="-70" type="curve"/>
      <point x="691" y="121"/>
      <point x="764" y="493"/>
      <point x="830" y="829" type="curve"/>
    </contour>
  </outline>
</glyph>
<glyph name="uni56DD" format="2">
  <advance height="1000" width="1000"/>
  <unicode hex="56DD"/>
  <outline>
    <contour>
      <point x="341" y="643" type="line"/>
      <point x="335" y="614" type="line"/>
      <point x="789" y="614" type="line"/>
      <point x="795" y="643" type="line"/>
    </contour>
    <contour>
      <point x="223" y="403" type="line"/>
      <point x="218" y="374" type="line"/>
      <point x="836" y="374" type="line"/>
      <point x="841" y="403" type="line"/>
    </contour>
    <contour>
      <point x="541" y="489" type="line"/>
      <point x="472" y="123" type="line" smooth="yes"/>
      <point x="470" y="110"/>
      <point x="465" y="106"/>
      <point x="449" y="105" type="curve"/>
      <point x="432" y="103"/>
      <point x="383" y="103"/>
      <point x="313" y="105" type="curve"/>
      <point x="316" y="95"/>
      <point x="321" y="84"/>
      <point x="322" y="76" type="curve"/>
      <point x="400" y="76"/>
      <point x="440" y="76"/>
      <point x="464" y="82" type="curve" smooth="yes"/>
      <point x="487" y="87"/>
      <point x="497" y="98"/>
      <point x="501" y="124" type="curve" smooth="yes"/>
      <point x="570" y="489" type="line"/>
    </contour>
    <contour>
      <point x="787" y="643" type="line"/>
      <point x="785" y="636" type="line"/>
      <point x="725" y="584"/>
      <point x="623" y="524"/>
      <point x="541" y="489" type="curve"/>
      <point x="547" y="484"/>
      <point x="554" y="476"/>
      <point x="557" y="471" type="curve"/>
      <point x="641" y="508"/>
      <point x="748" y="569"/>
      <point x="819" y="630" type="curve"/>
      <point x="801" y="645" type="line"/>
      <point x="794" y="643" type="line"/>
    </contour>
    <contour>
      <point x="183" y="782" type="line"/>
      <point x="23" y="-65" type="line"/>
      <point x="53" y="-65" type="line"/>
      <point x="207" y="753" type="line"/>
      <point x="955" y="753" type="line"/>
      <point x="802" y="-57" type="line"/>
      <point x="832" y="-57" type="line"/>
      <point x="991" y="782" type="line"/>
    </contour>
    <contour>
      <point x="51" y="19" type="line"/>
      <point x="45" y="-11" type="line"/>
      <point x="831" y="-11" type="line"/>
      <point x="837" y="19" type="line"/>
    </contour>
  </outline>
</glyph>
<glyph name="uni5B58" format="2">
  <advance height="1000" width="1000"/>
  <unicode hex="5B58"/>
  <outline>
    <contour>
      <point x="311" y="257" type="line"/>
      <point x="305" y="228" type="line"/>
      <point x="936" y="228" type="line"/>
      <point x="942" y="257" type="line"/>
    </contour>
    <contour>
      <point x="453" y="523" type="line"/>
      <point x="447" y="493" type="line"/>
      <point x="889" y="493" type="line"/>
      <point x="895" y="523" type="line"/>
    </contour>
    <contour>
      <point x="631" y="353" type="line"/>
      <point x="560" y="-19" type="line"/>
      <point x="558" y="-34"/>
      <point x="554" y="-39"/>
      <point x="534" y="-40" type="curve" smooth="yes"/>
      <point x="514" y="-42"/>
      <point x="455" y="-42"/>
      <point x="371" y="-40" type="curve"/>
      <point x="376" y="-50"/>
      <point x="379" y="-60"/>
      <point x="380" y="-68" type="curve"/>
      <point x="472" y="-68"/>
      <point x="524" y="-69"/>
      <point x="550" y="-64" type="curve" smooth="yes"/>
      <point x="575" y="-58"/>
      <point x="585" y="-46"/>
      <point x="591" y="-18" type="curve" smooth="yes"/>
      <point x="661" y="353" type="line"/>
    </contour>
    <contour>
      <point x="885" y="523" type="line"/>
      <point x="884" y="516" type="line"/>
      <point x="824" y="459"/>
      <point x="718" y="391"/>
      <point x="631" y="353" type="curve"/>
      <point x="637" y="348"/>
      <point x="644" y="340"/>
      <point x="647" y="334" type="curve"/>
      <point x="735" y="376"/>
      <point x="845" y="442"/>
      <point x="917" y="511" type="curve"/>
      <point x="898" y="524" type="line"/>
      <point x="892" y="523" type="line"/>
    </contour>
    <contour>
      <point x="142" y="699" type="line"/>
      <point x="137" y="670" type="line"/>
      <point x="997" y="670" type="line"/>
      <point x="1002" y="699" type="line"/>
    </contour>
    <contour>
      <point x="499" y="830" type="line"/>
      <point x="399" y="620"/>
      <point x="240" y="401"/>
      <point x="33" y="265" type="curve"/>
      <point x="38" y="260"/>
      <point x="46" y="249"/>
      <point x="49" y="243" type="curve"/>
      <point x="260" y="383"/>
      <point x="420" y="605"/>
      <point x="527" y="822" type="curve"/>
    </contour>
    <contour>
      <point x="229" y="430" type="line"/>
      <point x="135" y="-68" type="line"/>
      <point x="164" y="-68" type="line"/>
      <point x="258" y="430" type="line"/>
    </contour>
  </outline>
</glyph>
<glyph name="uni5B5B" format="2">
  <advance height="1000" width="1000"/>
  <unicode hex="5B5B"/>
  <outline>
    <contour>
      <point x="63" y="213" type="line"/>
      <point x="58" y="183" type="line"/>
      <point x="892" y="183" type="line"/>
      <point x="897" y="213" type="line"/>
    </contour>
    <contour>
      <point x="145" y="717" type="line"/>
      <point x="139" y="687" type="line"/>
      <point x="999" y="687" type="line"/>
      <point x="1005" y="717" type="line"/>
    </contour>
    <contour>
      <point x="261" y="425" type="line"/>
      <point x="256" y="396" type="line"/>
      <point x="760" y="396" type="line"/>
      <point x="765" y="425" type="line"/>
    </contour>
    <contour>
      <point x="479" y="284" type="line"/>
      <point x="421" y="-20" type="line" smooth="yes"/>
      <point x="418" y="-35"/>
      <point x="412" y="-40"/>
      <point x="395" y="-41" type="curve" smooth="yes"/>
      <point x="376" y="-42"/>
      <point x="315" y="-43"/>
      <point x="232" y="-41" type="curve"/>
      <point x="237" y="-50"/>
      <point x="240" y="-60"/>
      <point x="240" y="-68" type="curve"/>
      <point x="335" y="-68"/>
      <point x="387" y="-68"/>
      <point x="411" y="-63" type="curve" smooth="yes"/>
      <point x="437" y="-58"/>
      <point x="446" y="-46"/>
      <point x="451" y="-20" type="curve" smooth="yes"/>
      <point x="509" y="284" type="line"/>
    </contour>
    <contour>
      <point x="755" y="425" type="line"/>
      <point x="754" y="419" type="line"/>
      <point x="689" y="369"/>
      <point x="575" y="315"/>
      <point x="479" y="284" type="curve"/>
      <point x="485" y="279"/>
      <point x="491" y="271"/>
      <point x="495" y="264" type="curve"/>
      <point x="592" y="297"/>
      <point x="711" y="352"/>
      <point x="789" y="412" type="curve"/>
      <point x="770" y="427" type="line"/>
      <point x="762" y="425" type="line"/>
    </contour>
    <contour>
      <point x="581" y="831" type="line"/>
      <point x="529" y="553" type="line"/>
      <point x="559" y="553" type="line"/>
      <point x="611" y="831" type="line"/>
    </contour>
    <contour>
      <point x="158" y="568" type="line"/>
      <point x="126" y="395" type="line"/>
      <point x="155" y="395" type="line"/>
      <point x="182" y="538" type="line"/>
      <point x="906" y="538" type="line"/>
      <point x="879" y="395" type="line"/>
      <point x="908" y="395" type="line"/>
      <point x="940" y="568" type="line"/>
    </contour>
  </outline>
</glyph>
<glyph name="uni5B5F" format="2">
  <advance height="1000" width="1000"/>
  <unicode hex="5B5F"/>
  <outline>
    <contour>
      <point x="-13" y="-12" type="line"/>
      <point x="-19" y="-41" type="line"/>
      <point x="882" y="-41" type="line"/>
      <point x="888" y="-12" type="line"/>
    </contour>
    <contour>
      <point x="143" y="562" type="line"/>
      <point x="138" y="532" type="line"/>
      <point x="928" y="532" type="line"/>
      <point x="933" y="562" type="line"/>
    </contour>
    <contour>
      <point x="153" y="268" type="line"/>
      <point x="97" y="-27" type="line"/>
      <point x="126" y="-27" type="line"/>
      <point x="176" y="238" type="line"/>
      <point x="363" y="238" type="line"/>
      <point x="313" y="-27" type="line"/>
      <point x="343" y="-27" type="line"/>
      <point x="393" y="238" type="line"/>
      <point x="580" y="238" type="line"/>
      <point x="530" y="-27" type="line"/>
      <point x="559" y="-27" type="line"/>
      <point x="609" y="238" type="line"/>
      <point x="800" y="238" type="line"/>
      <point x="750" y="-27" type="line"/>
      <point x="779" y="-27" type="line"/>
      <point x="835" y="268" type="line"/>
    </contour>
    <contour>
      <point x="320" y="791" type="line"/>
      <point x="315" y="762" type="line"/>
      <point x="862" y="762" type="line"/>
      <point x="867" y="791" type="line"/>
    </contour>
    <contour>
      <point x="861" y="791" type="line"/>
      <point x="860" y="784" type="line"/>
      <point x="789" y="730"/>
      <point x="662" y="670"/>
      <point x="557" y="637" type="curve"/>
      <point x="562" y="632"/>
      <point x="569" y="624"/>
      <point x="573" y="619" type="curve"/>
      <point x="680" y="654"/>
      <point x="809" y="714"/>
      <point x="895" y="778" type="curve"/>
      <point x="876" y="793" type="line"/>
      <point x="868" y="791" type="line"/>
    </contour>
    <contour>
      <point x="557" y="637" type="line"/>
      <point x="507" y="370" type="line" smooth="yes"/>
      <point x="504" y="356"/>
      <point x="500" y="351"/>
      <point x="482" y="350" type="curve" smooth="yes"/>
      <point x="463" y="348"/>
      <point x="407" y="348"/>
      <point x="324" y="350" type="curve"/>
      <point x="328" y="340"/>
      <point x="331" y="330"/>
      <point x="331" y="322" type="curve"/>
      <point x="421" y="322"/>
      <point x="472" y="321"/>
      <point x="497" y="327" type="curve" smooth="yes"/>
      <point x="523" y="332"/>
      <point x="531" y="343"/>
      <point x="536" y="370" type="curve" smooth="yes"/>
      <point x="586" y="637" type="line"/>
    </contour>
  </outline>
</glyph>
<glyph name="uni5B63" format="2">
  <advance height="1000" width="1000"/>
  <unicode hex="5B63"/>
  <outline>
    <contour>
      <point x="36" y="177" type="line"/>
      <point x="31" y="147" type="line"/>
      <point x="909" y="147" type="line"/>
      <point x="914" y="177" type="line"/>
    </contour>
    <contour>
      <point x="229" y="361" type="line"/>
      <point x="224" y="331" type="line"/>
      <point x="736" y="331" type="line"/>
      <point x="741" y="361" type="line"/>
    </contour>
    <contour>
      <point x="477" y="248" type="line"/>
      <point x="426" y="-19" type="line" smooth="yes"/>
      <point x="424" y="-33"/>
      <point x="420" y="-38"/>
      <point x="402" y="-39" type="curve" smooth="yes"/>
      <point x="381" y="-41"/>
      <point x="324" y="-41"/>
      <point x="240" y="-39" type="curve"/>
      <point x="243" y="-49"/>
      <point x="247" y="-59"/>
      <point x="247" y="-67" type="curve"/>
      <point x="337" y="-67"/>
      <point x="390" y="-68"/>
      <point x="416" y="-63" type="curve" smooth="yes"/>
      <point x="442" y="-57"/>
      <point x="451" y="-46"/>
      <point x="457" y="-18" type="curve" smooth="yes"/>
      <point x="507" y="248" type="line"/>
    </contour>
    <contour>
      <point x="734" y="361" type="line"/>
      <point x="733" y="354" type="line"/>
      <point x="673" y="313"/>
      <point x="568" y="271"/>
      <point x="477" y="248" type="curve"/>
      <point x="482" y="242"/>
      <point x="489" y="233"/>
      <point x="493" y="227" type="curve"/>
      <point x="586" y="252"/>
      <point x="695" y="296"/>
      <point x="768" y="348" type="curve"/>
      <point x="749" y="363" type="line"/>
      <point x="741" y="361" type="line"/>
    </contour>
    <contour>
      <point x="118" y="615" type="line"/>
      <point x="113" y="585" type="line"/>
      <point x="991" y="585" type="line"/>
      <point x="996" y="615" type="line"/>
    </contour>
    <contour>
      <point x="569" y="770" type="line"/>
      <point x="497" y="391" type="line"/>
      <point x="527" y="391" type="line"/>
      <point x="599" y="770" type="line"/>
    </contour>
    <contour>
      <point x="509" y="608" type="line"/>
      <point x="398" y="499"/>
      <point x="206" y="395"/>
      <point x="56" y="348" type="curve"/>
      <point x="61" y="341"/>
      <point x="68" y="330"/>
      <point x="73" y="323" type="curve"/>
      <point x="221" y="375"/>
      <point x="418" y="480"/>
      <point x="532" y="594" type="curve"/>
    </contour>
    <contour>
      <point x="604" y="606" type="curve"/>
      <point x="575" y="592" type="line"/>
      <point x="647" y="482"/>
      <point x="803" y="376"/>
      <point x="932" y="325" type="curve"/>
      <point x="940" y="333"/>
      <point x="951" y="344"/>
      <point x="959" y="350" type="curve"/>
      <point x="827" y="396"/>
      <point x="672" y="498"/>
    </contour>
    <contour>
      <point x="898" y="823" type="line"/>
      <point x="746" y="788"/>
      <point x="446" y="764"/>
      <point x="214" y="754" type="curve"/>
      <point x="215" y="746"/>
      <point x="217" y="734"/>
      <point x="216" y="726" type="curve"/>
      <point x="454" y="736"/>
      <point x="750" y="760"/>
      <point x="918" y="799" type="curve"/>
    </contour>
  </outline>
</glyph>
<glyph name="uni5B66" format="2">
  <advance height="1000" width="1000"/>
  <unicode hex="5B66"/>
  <outline>
    <contour>
      <point x="257" y="497" type="line"/>
      <point x="251" y="468" type="line"/>
      <point x="781" y="468" type="line"/>
      <point x="787" y="497" type="line"/>
    </contour>
    <contour>
      <point x="56" y="266" type="line"/>
      <point x="51" y="236" type="line"/>
      <point x="925" y="236" type="line"/>
      <point x="930" y="266" type="line"/>
    </contour>
    <contour>
      <point x="489" y="347" type="line"/>
      <point x="419" y="-20" type="line" smooth="yes"/>
      <point x="416" y="-35"/>
      <point x="411" y="-40"/>
      <point x="391" y="-42" type="curve" smooth="yes"/>
      <point x="370" y="-44"/>
      <point x="310" y="-44"/>
      <point x="219" y="-42" type="curve"/>
      <point x="223" y="-52"/>
      <point x="228" y="-63"/>
      <point x="230" y="-71" type="curve"/>
      <point x="327" y="-71"/>
      <point x="378" y="-71"/>
      <point x="405" y="-65" type="curve" smooth="yes"/>
      <point x="433" y="-60"/>
      <point x="444" y="-48"/>
      <point x="449" y="-19" type="curve" smooth="yes"/>
      <point x="519" y="347" type="line"/>
    </contour>
    <contour>
      <point x="780" y="497" type="line"/>
      <point x="779" y="490" type="line"/>
      <point x="710" y="437"/>
      <point x="589" y="379"/>
      <point x="489" y="347" type="curve"/>
      <point x="494" y="342"/>
      <point x="501" y="334"/>
      <point x="505" y="327" type="curve"/>
      <point x="607" y="363"/>
      <point x="731" y="421"/>
      <point x="812" y="484" type="curve"/>
      <point x="794" y="499" type="line"/>
      <point x="787" y="497" type="line"/>
    </contour>
    <contour>
      <point x="158" y="657" type="line"/>
      <point x="125" y="479" type="line"/>
      <point x="155" y="479" type="line"/>
      <point x="183" y="627" type="line"/>
      <point x="946" y="627" type="line"/>
      <point x="918" y="479" type="line"/>
      <point x="948" y="479" type="line"/>
      <point x="981" y="657" type="line"/>
    </contour>
    <contour>
      <point x="915" y="825" type="line"/>
      <point x="875" y="773"/>
      <point x="807" y="698"/>
      <point x="758" y="653" type="curve"/>
      <point x="778" y="638" type="line"/>
      <point x="826" y="683"/>
      <point x="890" y="752"/>
      <point x="938" y="810" type="curve"/>
    </contour>
    <contour>
      <point x="261" y="809" type="line"/>
      <point x="291" y="764"/>
      <point x="323" y="702"/>
      <point x="334" y="662" type="curve"/>
      <point x="360" y="677" type="line"/>
      <point x="351" y="717"/>
      <point x="318" y="776"/>
      <point x="286" y="820" type="curve"/>
    </contour>
    <contour>
      <point x="534" y="828" type="line"/>
      <point x="561" y="777"/>
      <point x="584" y="708"/>
      <point x="588" y="663" type="curve"/>
      <point x="616" y="674" type="line"/>
      <point x="612" y="719"/>
      <point x="589" y="787"/>
      <point x="562" y="838" type="curve"/>
    </contour>
  </outline>
</glyph>
<glyph name="uni5B68" format="2">
  <advance height="1000" width="1000"/>
  <unicode hex="5B68"/>
  <outline>
    <contour>
      <point x="151" y="632" type="line"/>
      <point x="146" y="603" type="line"/>
      <point x="968" y="603" type="line"/>
      <point x="973" y="632" type="line"/>
    </contour>
    <contour>
      <point x="467" y="197" type="line"/>
      <point x="462" y="168" type="line"/>
      <point x="917" y="168" type="line"/>
      <point x="922" y="197" type="line"/>
    </contour>
    <contour>
      <point x="310" y="789" type="line"/>
      <point x="305" y="760" type="line"/>
      <point x="830" y="760" type="line"/>
      <point x="835" y="789" type="line"/>
    </contour>
    <contour>
      <point x="560" y="692" type="line"/>
      <point x="522" y="494" type="line" smooth="yes"/>
      <point x="520" y="482"/>
      <point x="516" y="478"/>
      <point x="500" y="477" type="curve" smooth="yes"/>
      <point x="482" y="475"/>
      <point x="432" y="475"/>
      <point x="355" y="477" type="curve"/>
      <point x="358" y="468"/>
      <point x="362" y="458"/>
      <point x="362" y="449" type="curve"/>
      <point x="445" y="449"/>
      <point x="492" y="448"/>
      <point x="516" y="454" type="curve" smooth="yes"/>
      <point x="540" y="460"/>
      <point x="548" y="471"/>
      <point x="553" y="495" type="curve" smooth="yes"/>
      <point x="590" y="692" type="line"/>
    </contour>
    <contour>
      <point x="827" y="789" type="line"/>
      <point x="826" y="782" type="line"/>
      <point x="762" y="746"/>
      <point x="652" y="711"/>
      <point x="560" y="692" type="curve"/>
      <point x="566" y="687"/>
      <point x="572" y="678"/>
      <point x="576" y="672" type="curve"/>
      <point x="670" y="693"/>
      <point x="784" y="729"/>
      <point x="859" y="775" type="curve"/>
      <point x="841" y="791" type="line"/>
      <point x="834" y="789" type="line"/>
    </contour>
    <contour>
      <point x="126" y="400" type="line"/>
      <point x="120" y="371" type="line"/>
      <point x="442" y="371" type="line"/>
      <point x="448" y="400" type="line"/>
    </contour>
    <contour>
      <point x="256" y="286" type="line"/>
      <point x="199" y="-15" type="line" smooth="yes"/>
      <point x="197" y="-26"/>
      <point x="194" y="-29"/>
      <point x="179" y="-30" type="curve" smooth="yes"/>
      <point x="165" y="-31"/>
      <point x="122" y="-32"/>
      <point x="62" y="-30" type="curve"/>
      <point x="65" y="-40"/>
      <point x="68" y="-51"/>
      <point x="69" y="-60" type="curve"/>
      <point x="135" y="-60"/>
      <point x="174" y="-60"/>
      <point x="196" y="-54" type="curve" smooth="yes"/>
      <point x="216" y="-48"/>
      <point x="224" y="-38"/>
      <point x="228" y="-15" type="curve" smooth="yes"/>
      <point x="285" y="286" type="line"/>
    </contour>
    <contour>
      <point x="439" y="400" type="line"/>
      <point x="437" y="393" type="line"/>
      <point x="393" y="356"/>
      <point x="320" y="312"/>
      <point x="256" y="286" type="curve"/>
      <point x="262" y="282"/>
      <point x="270" y="275"/>
      <point x="273" y="269" type="curve"/>
      <point x="337" y="296"/>
      <point x="416" y="340"/>
      <point x="470" y="388" type="curve"/>
      <point x="451" y="402" type="line"/>
      <point x="445" y="400" type="line"/>
    </contour>
    <contour>
      <point x="551" y="399" type="line"/>
      <point x="546" y="370" type="line"/>
      <point x="878" y="370" type="line"/>
      <point x="883" y="399" type="line"/>
    </contour>
    <contour>
      <point x="693" y="285" type="line"/>
      <point x="636" y="-16" type="line" smooth="yes"/>
      <point x="634" y="-27"/>
      <point x="630" y="-30"/>
      <point x="616" y="-31" type="curve"/>
      <point x="601" y="-33"/>
      <point x="557" y="-33"/>
      <point x="495" y="-31" type="curve"/>
      <point x="498" y="-41"/>
      <point x="502" y="-52"/>
      <point x="502" y="-61" type="curve"/>
      <point x="569" y="-61"/>
      <point x="609" y="-61"/>
      <point x="632" y="-55" type="curve" smooth="yes"/>
      <point x="653" y="-49"/>
      <point x="661" y="-39"/>
      <point x="665" y="-15" type="curve" smooth="yes"/>
      <point x="722" y="285" type="line"/>
    </contour>
    <contour>
      <point x="875" y="399" type="line"/>
      <point x="874" y="392" type="line"/>
      <point x="830" y="355"/>
      <point x="757" y="311"/>
      <point x="693" y="285" type="curve"/>
      <point x="699" y="281"/>
      <point x="707" y="274"/>
      <point x="711" y="268" type="curve"/>
      <point x="774" y="295"/>
      <point x="853" y="339"/>
      <point x="907" y="387" type="curve"/>
      <point x="888" y="401" type="line"/>
      <point x="882" y="399" type="line"/>
    </contour>
    <contour>
      <point x="21" y="170" type="curve"/>
      <point x="21" y="139" type="line"/>
      <point x="131" y="159"/>
      <point x="292" y="187"/>
      <point x="449" y="215" type="curve"/>
      <point x="452" y="243" type="line"/>
      <point x="290" y="215"/>
      <point x="125" y="186"/>
    </contour>
  </outline>
</glyph>
<glyph name="uni5B71" format="2">
  <advance height="1000" width="1000"/>
  <unicode hex="5B71"/>
  <outline>
    <contour>
      <point x="229" y="788" type="line"/>
      <point x="175" y="500" type="line" smooth="yes"/>
      <point x="144" y="341"/>
      <point x="95" y="123"/>
      <point x="-23" y="-38" type="curve"/>
      <point x="-16" y="-41"/>
      <point x="-5" y="-49"/>
      <point x="0" y="-55" type="curve"/>
      <point x="119" y="109"/>
      <point x="174" y="338"/>
      <point x="205" y="500" type="curve" smooth="yes"/>
      <point x="259" y="788" type="line"/>
    </contour>
    <contour>
      <point x="253" y="788" type="line"/>
      <point x="247" y="759" type="line"/>
      <point x="927" y="759" type="line"/>
      <point x="907" y="651" type="line"/>
      <point x="227" y="651" type="line"/>
      <point x="221" y="621" type="line"/>
      <point x="930" y="621" type="line"/>
      <point x="962" y="788" type="line"/>
    </contour>
    <contour>
      <point x="377" y="565" type="line"/>
      <point x="371" y="535" type="line"/>
      <point x="800" y="535" type="line"/>
      <point x="806" y="565" type="line"/>
    </contour>
    <contour>
      <point x="243" y="446" type="line"/>
      <point x="238" y="417" type="line"/>
      <point x="931" y="417" type="line"/>
      <point x="936" y="446" type="line"/>
    </contour>
    <contour>
      <point x="487" y="116" type="line"/>
      <point x="481" y="86" type="line"/>
      <point x="897" y="86" type="line"/>
      <point x="903" y="116" type="line"/>
    </contour>
    <contour>
      <point x="581" y="487" type="line"/>
      <point x="553" y="341" type="line"/>
      <point x="552" y="331"/>
      <point x="548" y="328"/>
      <point x="535" y="327" type="curve"/>
      <point x="522" y="327"/>
      <point x="480" y="327"/>
      <point x="421" y="327" type="curve"/>
      <point x="424" y="319"/>
      <point x="427" y="309"/>
      <point x="427" y="301" type="curve"/>
      <point x="495" y="301"/>
      <point x="532" y="300"/>
      <point x="553" y="306" type="curve" smooth="yes"/>
      <point x="573" y="312"/>
      <point x="579" y="321"/>
      <point x="583" y="342" type="curve" smooth="yes"/>
      <point x="610" y="487" type="line"/>
    </contour>
    <contour>
      <point x="130" y="95" type="curve"/>
      <point x="131" y="65" type="line"/>
      <point x="230" y="81"/>
      <point x="364" y="103"/>
      <point x="496" y="126" type="curve"/>
      <point x="499" y="151" type="line"/>
      <point x="362" y="130"/>
      <point x="223" y="108"/>
    </contour>
    <contour>
      <point x="802" y="565" type="line"/>
      <point x="800" y="558" type="line"/>
      <point x="748" y="529"/>
      <point x="658" y="503"/>
      <point x="581" y="487" type="curve"/>
      <point x="587" y="483"/>
      <point x="594" y="474"/>
      <point x="598" y="469" type="curve"/>
      <point x="674" y="484"/>
      <point x="769" y="514"/>
      <point x="834" y="551" type="curve"/>
      <point x="816" y="567" type="line"/>
      <point x="809" y="565" type="line"/>
    </contour>
    <contour>
      <point x="217" y="276" type="line"/>
      <point x="211" y="246" type="line"/>
      <point x="476" y="246" type="line"/>
      <point x="482" y="276" type="line"/>
    </contour>
    <contour>
      <point x="333" y="186" type="line"/>
      <point x="293" y="-24" type="line"/>
      <point x="292" y="-33"/>
      <point x="289" y="-36"/>
      <point x="277" y="-37" type="curve" smooth="yes"/>
      <point x="265" y="-38"/>
      <point x="231" y="-38"/>
      <point x="182" y="-37" type="curve"/>
      <point x="185" y="-45"/>
      <point x="189" y="-56"/>
      <point x="189" y="-64" type="curve"/>
      <point x="245" y="-64"/>
      <point x="276" y="-64"/>
      <point x="295" y="-59" type="curve"/>
      <point x="312" y="-53"/>
      <point x="318" y="-44"/>
      <point x="321" y="-24" type="curve" smooth="yes"/>
      <point x="361" y="186" type="line"/>
    </contour>
    <contour>
      <point x="475" y="276" type="line"/>
      <point x="474" y="269" type="line"/>
      <point x="440" y="240"/>
      <point x="382" y="207"/>
      <point x="333" y="186" type="curve"/>
      <point x="339" y="181"/>
      <point x="347" y="174"/>
      <point x="350" y="168" type="curve"/>
      <point x="401" y="189"/>
      <point x="464" y="225"/>
      <point x="508" y="264" type="curve"/>
      <point x="489" y="278" type="line"/>
      <point x="482" y="276" type="line"/>
    </contour>
    <contour>
      <point x="573" y="276" type="line"/>
      <point x="567" y="246" type="line"/>
      <point x="854" y="246" type="line"/>
      <point x="860" y="276" type="line"/>
    </contour>
    <contour>
      <point x="695" y="186" type="line"/>
      <point x="654" y="-32" type="line" smooth="yes"/>
      <point x="652" y="-42"/>
      <point x="648" y="-45"/>
      <point x="636" y="-46" type="curve" smooth="yes"/>
      <point x="623" y="-47"/>
      <point x="586" y="-47"/>
      <point x="533" y="-45" type="curve"/>
      <point x="537" y="-54"/>
      <point x="540" y="-65"/>
      <point x="540" y="-72" type="curve"/>
      <point x="599" y="-72"/>
      <point x="635" y="-73"/>
      <point x="653" y="-67" type="curve"/>
      <point x="672" y="-62"/>
      <point x="679" y="-53"/>
      <point x="683" y="-31" type="curve" smooth="yes"/>
      <point x="724" y="186" type="line"/>
    </contour>
    <contour>
      <point x="850" y="276" type="line"/>
      <point x="849" y="269" type="line"/>
      <point x="811" y="239"/>
      <point x="749" y="206"/>
      <point x="695" y="186" type="curve"/>
      <point x="700" y="181"/>
      <point x="708" y="174"/>
      <point x="712" y="168" type="curve"/>
      <point x="767" y="189"/>
      <point x="836" y="225"/>
      <point x="883" y="263" type="curve"/>
      <point x="863" y="278" type="line"/>
      <point x="857" y="276" type="line"/>
    </contour>
  </outline>
</glyph>
<glyph name="uni5FAC" format="2">
  <advance height="1000" width="1000"/>
  <unicode hex="5FAC"/>
  <outline>
    <contour>
      <point x="700" y="839" type="curve"/>
      <point x="707" y="798"/>
      <point x="712" y="744"/>
      <point x="711" y="712" type="curve"/>
      <point x="711" y="712"/>
      <point x="740" y="719"/>
      <point x="740" y="719" type="curve"/>
      <point x="741" y="750"/>
      <point x="737" y="803"/>
      <point x="727" y="843" type="curve"/>
      <point x="727" y="843"/>
      <point x="700" y="839"/>
    </contour>
    <contour>
      <point x="619" y="461" type="curve"/>
      <point x="627" y="421"/>
      <point x="633" y="368"/>
      <point x="632" y="335" type="curve"/>
      <point x="632" y="335"/>
      <point x="662" y="343"/>
      <point x="662" y="343" type="curve"/>
      <point x="663" y="375"/>
      <point x="657" y="426"/>
      <point x="647" y="466" type="curve"/>
      <point x="647" y="466"/>
      <point x="619" y="461"/>
    </contour>
    <contour>
      <point x="342" y="635" type="curve"/>
      <point x="258" y="523"/>
      <point x="137" y="410"/>
      <point x="27" y="335" type="curve"/>
      <point x="34" y="330"/>
      <point x="43" y="319"/>
      <point x="47" y="314" type="curve"/>
      <point x="156" y="392"/>
      <point x="278" y="508"/>
      <point x="369" y="625" type="curve"/>
      <point x="369" y="625"/>
      <point x="342" y="635"/>
    </contour>
    <contour>
      <point x="349" y="830" type="curve"/>
      <point x="287" y="758"/>
      <point x="182" y="671"/>
      <point x="95" y="615" type="curve"/>
      <point x="100" y="610"/>
      <point x="108" y="600"/>
      <point x="112" y="594" type="curve"/>
      <point x="200" y="653"/>
      <point x="307" y="742"/>
      <point x="376" y="819" type="curve"/>
      <point x="376" y="819"/>
      <point x="349" y="830"/>
    </contour>
    <contour>
      <point x="211" y="470" type="curve"/>
      <point x="211" y="470"/>
      <point x="109" y="-68"/>
      <point x="109" y="-68" type="curve"/>
      <point x="109" y="-68"/>
      <point x="138" y="-68"/>
      <point x="138" y="-68" type="curve"/>
      <point x="138" y="-68"/>
      <point x="244" y="494"/>
      <point x="244" y="494" type="curve"/>
      <point x="244" y="494"/>
      <point x="242" y="496"/>
      <point x="242" y="496" type="curve"/>
      <point x="242" y="496"/>
      <point x="211" y="470"/>
    </contour>
    <contour>
      <point x="406" y="726" type="curve"/>
      <point x="406" y="726"/>
      <point x="401" y="697"/>
      <point x="401" y="697" type="curve"/>
      <point x="401" y="697"/>
      <point x="1006" y="697"/>
      <point x="1006" y="697" type="curve"/>
      <point x="1006" y="697"/>
      <point x="1011" y="726"/>
      <point x="1011" y="726" type="curve"/>
      <point x="1011" y="726"/>
      <point x="406" y="726"/>
    </contour>
    <contour>
      <point x="509" y="676" type="curve"/>
      <point x="528" y="633"/>
      <point x="541" y="575"/>
      <point x="543" y="538" type="curve"/>
      <point x="543" y="538"/>
      <point x="573" y="550"/>
      <point x="573" y="550" type="curve"/>
      <point x="573" y="586"/>
      <point x="557" y="643"/>
      <point x="539" y="686" type="curve"/>
      <point x="539" y="686"/>
      <point x="509" y="676"/>
    </contour>
    <contour>
      <point x="871" y="691" type="curve"/>
      <point x="846" y="650"/>
      <point x="803" y="586"/>
      <point x="770" y="547" type="curve"/>
      <point x="770" y="547"/>
      <point x="794" y="537"/>
      <point x="794" y="537" type="curve"/>
      <point x="826" y="574"/>
      <point x="867" y="632"/>
      <point x="900" y="680" type="curve"/>
      <point x="900" y="680"/>
      <point x="871" y="691"/>
    </contour>
    <contour>
      <point x="357" y="539" type="curve"/>
      <point x="357" y="539"/>
      <point x="330" y="395"/>
      <point x="330" y="395" type="curve"/>
      <point x="330" y="395"/>
      <point x="359" y="395"/>
      <point x="359" y="395" type="curve"/>
      <point x="359" y="395"/>
      <point x="380" y="510"/>
      <point x="380" y="510" type="curve"/>
      <point x="380" y="510"/>
      <point x="953" y="510"/>
      <point x="953" y="510" type="curve"/>
      <point x="953" y="510"/>
      <point x="932" y="395"/>
      <point x="932" y="395" type="curve"/>
      <point x="932" y="395"/>
      <point x="961" y="395"/>
      <point x="961" y="395" type="curve"/>
      <point x="961" y="395"/>
      <point x="988" y="539"/>
      <point x="988" y="539" type="curve"/>
      <point x="988" y="539"/>
      <point x="357" y="539"/>
    </contour>
    <contour>
      <point x="317" y="351" type="curve"/>
      <point x="317" y="351"/>
      <point x="312" y="322"/>
      <point x="312" y="322" type="curve"/>
      <point x="312" y="322"/>
      <point x="952" y="322"/>
      <point x="952" y="322" type="curve"/>
      <point x="952" y="322"/>
      <point x="957" y="351"/>
      <point x="957" y="351" type="curve"/>
      <point x="957" y="351"/>
      <point x="317" y="351"/>
    </contour>
    <contour>
      <point x="512" y="211" type="curve"/>
      <point x="512" y="211"/>
      <point x="495" y="181"/>
      <point x="495" y="181" type="curve"/>
      <point x="495" y="181"/>
      <point x="816" y="181"/>
      <point x="816" y="181" type="curve"/>
      <point x="816" y="181"/>
      <point x="822" y="211"/>
      <point x="822" y="211" type="curve"/>
      <point x="822" y="211"/>
      <point x="512" y="211"/>
    </contour>
    <contour>
      <point x="809" y="211" type="curve"/>
      <point x="809" y="211"/>
      <point x="808" y="205"/>
      <point x="808" y="205" type="curve"/>
      <point x="765" y="40"/>
      <point x="740" y="-21"/>
      <point x="717" y="-39" type="curve"/>
      <point x="708" y="-47"/>
      <point x="699" y="-48"/>
      <point x="682" y="-48" type="curve" smooth="yes"/>
      <point x="664" y="-48"/>
      <point x="613" y="-47"/>
      <point x="561" y="-42" type="curve"/>
      <point x="564" y="-51"/>
      <point x="565" y="-63"/>
      <point x="565" y="-70" type="curve"/>
      <point x="613" y="-74"/>
      <point x="661" y="-75"/>
      <point x="683" y="-74" type="curve" smooth="yes"/>
      <point x="708" y="-74"/>
      <point x="722" y="-70"/>
      <point x="737" y="-59" type="curve"/>
      <point x="764" y="-36"/>
      <point x="789" y="26"/>
      <point x="834" y="192" type="curve"/>
      <point x="836" y="198"/>
      <point x="840" y="211"/>
      <point x="840" y="211" type="curve"/>
      <point x="840" y="211"/>
      <point x="809" y="211"/>
    </contour>
    <contour>
      <point x="543" y="342" type="curve"/>
      <point x="492" y="148"/>
      <point x="420" y="14"/>
      <point x="221" y="-51" type="curve"/>
      <point x="226" y="-56"/>
      <point x="235" y="-65"/>
      <point x="238" y="-71" type="curve"/>
      <point x="442" y="-2"/>
      <point x="518" y="135"/>
      <point x="574" y="342" type="curve"/>
      <point x="574" y="342"/>
      <point x="543" y="342"/>
    </contour>
  </outline>
</glyph>
<glyph name="uni60B8" format="2">
  <advance height="1000" width="1000"/>
  <unicode hex="60B8"/>
  <outline>
    <contour>
      <point x="952" y="816" type="line"/>
      <point x="843" y="785"/>
      <point x="628" y="763"/>
      <point x="460" y="752" type="curve"/>
      <point x="462" y="744"/>
      <point x="464" y="733"/>
      <point x="463" y="726" type="curve"/>
      <point x="636" y="736"/>
      <point x="850" y="759"/>
      <point x="974" y="792" type="curve"/>
    </contour>
    <contour>
      <point x="404" y="624" type="line"/>
      <point x="398" y="595" type="line"/>
      <point x="990" y="595" type="line"/>
      <point x="996" y="624" type="line"/>
    </contour>
    <contour>
      <point x="710" y="764" type="line"/>
      <point x="639" y="387" type="line"/>
      <point x="669" y="387" type="line"/>
      <point x="742" y="771" type="line"/>
    </contour>
    <contour>
      <point x="735" y="617" type="curve"/>
      <point x="707" y="605" type="line"/>
      <point x="752" y="518"/>
      <point x="852" y="427"/>
      <point x="946" y="387" type="curve"/>
      <point x="954" y="395"/>
      <point x="966" y="407"/>
      <point x="975" y="414" type="curve"/>
      <point x="879" y="449"/>
      <point x="777" y="534"/>
    </contour>
    <contour>
      <point x="421" y="355" type="line"/>
      <point x="416" y="326" type="line"/>
      <point x="835" y="326" type="line"/>
      <point x="840" y="355" type="line"/>
    </contour>
    <contour>
      <point x="829" y="355" type="line"/>
      <point x="828" y="348" type="line"/>
      <point x="773" y="308"/>
      <point x="683" y="265"/>
      <point x="613" y="237" type="curve"/>
      <point x="618" y="233"/>
      <point x="626" y="227"/>
      <point x="630" y="221" type="curve"/>
      <point x="701" y="248"/>
      <point x="797" y="292"/>
      <point x="865" y="341" type="curve"/>
      <point x="844" y="357" type="line"/>
      <point x="837" y="355" type="line"/>
    </contour>
    <contour>
      <point x="613" y="237" type="line"/>
      <point x="563" y="-26" type="line" smooth="yes"/>
      <point x="561" y="-37"/>
      <point x="557" y="-41"/>
      <point x="544" y="-41" type="curve"/>
      <point x="530" y="-43"/>
      <point x="489" y="-43"/>
      <point x="429" y="-41" type="curve"/>
      <point x="432" y="-51"/>
      <point x="436" y="-62"/>
      <point x="437" y="-70" type="curve"/>
      <point x="501" y="-70"/>
      <point x="540" y="-70"/>
      <point x="561" y="-65" type="curve" smooth="yes"/>
      <point x="582" y="-59"/>
      <point x="589" y="-49"/>
      <point x="593" y="-25" type="curve" smooth="yes"/>
      <point x="643" y="237" type="line"/>
    </contour>
    <contour>
      <point x="305" y="174" type="line"/>
      <point x="299" y="144" type="line"/>
      <point x="913" y="144" type="line"/>
      <point x="919" y="174" type="line"/>
    </contour>
    <contour>
      <point x="664" y="617" type="line"/>
      <point x="579" y="532"/>
      <point x="433" y="442"/>
      <point x="325" y="401" type="curve"/>
      <point x="331" y="396"/>
      <point x="337" y="386"/>
      <point x="340" y="378" type="curve"/>
      <point x="447" y="424"/>
      <point x="599" y="516"/>
      <point x="685" y="604" type="curve"/>
    </contour>
    <contour>
      <point x="270" y="831" type="line"/>
      <point x="100" y="-68" type="line"/>
      <point x="129" y="-68" type="line"/>
      <point x="299" y="831" type="line"/>
    </contour>
    <contour>
      <point x="149" y="643" type="line"/>
      <point x="128" y="567"/>
      <point x="90" y="458"/>
      <point x="52" y="390" type="curve"/>
      <point x="79" y="381" type="line"/>
      <point x="119" y="453"/>
      <point x="157" y="565"/>
      <point x="176" y="638" type="curve"/>
    </contour>
    <contour>
      <point x="310" y="665" type="line"/>
      <point x="324" y="598"/>
      <point x="331" y="509"/>
      <point x="330" y="457" type="curve"/>
      <point x="361" y="471" type="line"/>
      <point x="363" y="520"/>
      <point x="354" y="606"/>
      <point x="339" y="673" type="curve"/>
    </contour>
  </outline>
</glyph>
<glyph name="uni60F8" format="2">
  <advance height="1000" width="1000"/>
  <unicode hex="60F8"/>
  <outline>
    <contour>
      <point x="587" y="833" type="line"/>
      <point x="538" y="744"/>
      <point x="466" y="660"/>
      <point x="392" y="603" type="curve"/>
      <point x="399" y="598"/>
      <point x="410" y="588"/>
      <point x="414" y="583" type="curve"/>
      <point x="488" y="643"/>
      <point x="562" y="732"/>
      <point x="617" y="826" type="curve"/>
    </contour>
    <contour>
      <point x="550" y="748" type="line"/>
      <point x="530" y="719" type="line"/>
      <point x="973" y="719" type="line"/>
      <point x="978" y="748" type="line"/>
    </contour>
    <contour>
      <point x="494" y="522" type="line"/>
      <point x="736" y="522" type="line"/>
      <point x="721" y="446" type="line"/>
      <point x="479" y="446" type="line"/>
    </contour>
    <contour>
      <point x="513" y="624" type="line"/>
      <point x="755" y="624" type="line"/>
      <point x="741" y="551" type="line"/>
      <point x="499" y="551" type="line"/>
    </contour>
    <contour>
      <point x="490" y="654" type="line"/>
      <point x="445" y="417" type="line"/>
      <point x="745" y="417" type="line"/>
      <point x="790" y="654" type="line"/>
    </contour>
    <contour>
      <point x="291" y="151" type="line"/>
      <point x="285" y="122" type="line"/>
      <point x="912" y="122" type="line"/>
      <point x="918" y="151" type="line"/>
    </contour>
    <contour>
      <point x="970" y="748" type="line"/>
      <point x="969" y="741" type="line"/>
      <point x="907" y="499"/>
      <point x="875" y="409"/>
      <point x="847" y="385" type="curve" smooth="yes"/>
      <point x="837" y="376"/>
      <point x="828" y="376"/>
      <point x="809" y="376" type="curve" smooth="yes"/>
      <point x="792" y="376"/>
      <point x="740" y="376"/>
      <point x="686" y="381" type="curve"/>
      <point x="689" y="373"/>
      <point x="690" y="361"/>
      <point x="690" y="352" type="curve"/>
      <point x="738" y="348"/>
      <point x="787" y="347"/>
      <point x="810" y="348" type="curve" smooth="yes"/>
      <point x="836" y="348"/>
      <point x="852" y="353"/>
      <point x="867" y="367" type="curve"/>
      <point x="902" y="396"/>
      <point x="933" y="481"/>
      <point x="995" y="728" type="curve"/>
      <point x="997" y="734"/>
      <point x="1000" y="748"/>
      <point x="1000" y="748" type="curve"/>
    </contour>
    <contour>
      <point x="396" y="320" type="line"/>
      <point x="391" y="290" type="line"/>
      <point x="819" y="290" type="line"/>
      <point x="824" y="320" type="line"/>
    </contour>
    <contour>
      <point x="598" y="215" type="line"/>
      <point x="554" y="-18" type="line" smooth="yes"/>
      <point x="552" y="-29"/>
      <point x="548" y="-33"/>
      <point x="534" y="-34" type="curve" smooth="yes"/>
      <point x="518" y="-35"/>
      <point x="474" y="-35"/>
      <point x="412" y="-34" type="curve"/>
      <point x="415" y="-43"/>
      <point x="419" y="-54"/>
      <point x="418" y="-62" type="curve"/>
      <point x="488" y="-62"/>
      <point x="528" y="-63"/>
      <point x="550" y="-57" type="curve" smooth="yes"/>
      <point x="571" y="-51"/>
      <point x="578" y="-41"/>
      <point x="583" y="-18" type="curve" smooth="yes"/>
      <point x="627" y="215" type="line"/>
    </contour>
    <contour>
      <point x="819" y="320" type="line"/>
      <point x="818" y="313" type="line"/>
      <point x="765" y="276"/>
      <point x="675" y="236"/>
      <point x="598" y="215" type="curve"/>
      <point x="603" y="210"/>
      <point x="610" y="201"/>
      <point x="614" y="195" type="curve"/>
      <point x="692" y="219"/>
      <point x="788" y="260"/>
      <point x="854" y="307" type="curve"/>
      <point x="834" y="322" type="line"/>
      <point x="826" y="320" type="line"/>
    </contour>
    <contour>
      <point x="278" y="831" type="line"/>
      <point x="108" y="-68" type="line"/>
      <point x="137" y="-68" type="line"/>
      <point x="307" y="831" type="line"/>
    </contour>
    <contour>
      <point x="153" y="643" type="line"/>
      <point x="135" y="566"/>
      <point x="101" y="457"/>
      <point x="64" y="390" type="curve"/>
      <point x="92" y="381" type="line"/>
      <point x="129" y="451"/>
      <point x="165" y="564"/>
      <point x="180" y="639" type="curve"/>
    </contour>
    <contour>
      <point x="316" y="663" type="line"/>
      <point x="334" y="604"/>
      <point x="347" y="525"/>
      <point x="349" y="477" type="curve"/>
      <point x="379" y="493" type="line"/>
      <point x="377" y="537"/>
      <point x="363" y="614"/>
      <point x="344" y="673" type="curve"/>
    </contour>
  </outline>
</glyph>
<glyph name="uni62F5" format="2">
  <advance height="1000" width="1000"/>
  <unicode hex="62F5"/>
  <outline>
    <contour>
      <point x="436" y="674" type="line"/>
      <point x="431" y="645" type="line"/>
      <point x="1014" y="645" type="line"/>
      <point x="1019" y="674" type="line"/>
    </contour>
    <contour>
      <point x="516" y="261" type="line"/>
      <point x="511" y="231" type="line"/>
      <point x="936" y="231" type="line"/>
      <point x="941" y="261" type="line"/>
    </contour>
    <contour>
      <point x="613" y="513" type="line"/>
      <point x="607" y="483" type="line"/>
      <point x="930" y="483" type="line"/>
      <point x="936" y="513" type="line"/>
    </contour>
    <contour>
      <point x="742" y="363" type="line"/>
      <point x="669" y="-23" type="line"/>
      <point x="666" y="-35"/>
      <point x="663" y="-38"/>
      <point x="651" y="-39" type="curve" smooth="yes"/>
      <point x="636" y="-40"/>
      <point x="596" y="-40"/>
      <point x="542" y="-39" type="curve"/>
      <point x="545" y="-48"/>
      <point x="548" y="-60"/>
      <point x="548" y="-68" type="curve"/>
      <point x="608" y="-68"/>
      <point x="646" y="-68"/>
      <point x="666" y="-63" type="curve" smooth="yes"/>
      <point x="686" y="-57"/>
      <point x="694" y="-47"/>
      <point x="699" y="-23" type="curve" smooth="yes"/>
      <point x="772" y="363" type="line"/>
    </contour>
    <contour>
      <point x="698" y="832" type="line"/>
      <point x="598" y="625"/>
      <point x="463" y="437"/>
      <point x="313" y="317" type="curve"/>
      <point x="319" y="311"/>
      <point x="326" y="298"/>
      <point x="330" y="292" type="curve"/>
      <point x="484" y="422"/>
      <point x="620" y="610"/>
      <point x="726" y="825" type="curve"/>
    </contour>
    <contour>
      <point x="475" y="468" type="line"/>
      <point x="374" y="-70" type="line"/>
      <point x="403" y="-70" type="line"/>
      <point x="504" y="468" type="line"/>
    </contour>
    <contour>
      <point x="927" y="513" type="line"/>
      <point x="926" y="506" type="line"/>
      <point x="881" y="457"/>
      <point x="805" y="398"/>
      <point x="742" y="363" type="curve"/>
      <point x="747" y="359"/>
      <point x="754" y="351"/>
      <point x="758" y="345" type="curve"/>
      <point x="823" y="382"/>
      <point x="904" y="442"/>
      <point x="959" y="501" type="curve"/>
      <point x="940" y="515" type="line"/>
      <point x="934" y="513" type="line"/>
    </contour>
    <contour>
      <point x="47" y="275" type="curve"/>
      <point x="55" y="245" type="line"/>
      <point x="135" y="278"/>
      <point x="238" y="320"/>
      <point x="339" y="361" type="curve"/>
      <point x="339" y="391" type="line"/>
      <point x="229" y="346"/>
      <point x="120" y="302"/>
    </contour>
    <contour>
      <point x="109" y="617" type="line"/>
      <point x="103" y="587" type="line"/>
      <point x="386" y="587" type="line"/>
      <point x="392" y="617" type="line"/>
    </contour>
    <contour>
      <point x="285" y="830" type="line"/>
      <point x="124" y="-23" type="line" smooth="yes"/>
      <point x="121" y="-38"/>
      <point x="114" y="-42"/>
      <point x="102" y="-42" type="curve"/>
      <point x="90" y="-43"/>
      <point x="48" y="-43"/>
      <point x="-3" y="-42" type="curve"/>
      <point x="0" y="-51"/>
      <point x="3" y="-64"/>
      <point x="4" y="-70" type="curve"/>
      <point x="66" y="-71"/>
      <point x="100" y="-70"/>
      <point x="118" y="-65" type="curve" smooth="yes"/>
      <point x="138" y="-60"/>
      <point x="149" y="-50"/>
      <point x="154" y="-23" type="curve" smooth="yes"/>
      <point x="315" y="830" type="line"/>
    </contour>
  </outline>
</glyph>
<glyph name="uni65CC" format="2">
  <advance height="1000" width="1000"/>
  <unicode hex="65CC"/>
  <outline>
    <contour>
      <point x="289" y="826" type="curve"/>
      <point x="308" y="776"/>
      <point x="326" y="709"/>
      <point x="329" y="667" type="curve"/>
      <point x="329" y="667"/>
      <point x="359" y="677"/>
      <point x="359" y="677" type="curve"/>
      <point x="353" y="716"/>
      <point x="336" y="783"/>
      <point x="316" y="833" type="curve"/>
      <point x="316" y="833"/>
      <point x="289" y="826"/>
    </contour>
    <contour>
      <point x="116" y="659" type="curve"/>
      <point x="116" y="659"/>
      <point x="110" y="629"/>
      <point x="110" y="629" type="curve"/>
      <point x="110" y="629"/>
      <point x="490" y="629"/>
      <point x="490" y="629" type="curve"/>
      <point x="490" y="629"/>
      <point x="496" y="659"/>
      <point x="496" y="659" type="curve"/>
      <point x="496" y="659"/>
      <point x="116" y="659"/>
    </contour>
    <contour>
      <point x="552" y="461" type="curve"/>
      <point x="552" y="461"/>
      <point x="546" y="431"/>
      <point x="546" y="431" type="curve"/>
      <point x="546" y="431"/>
      <point x="956" y="431"/>
      <point x="956" y="431" type="curve"/>
      <point x="956" y="431"/>
      <point x="962" y="461"/>
      <point x="962" y="461" type="curve"/>
      <point x="962" y="461"/>
      <point x="552" y="461"/>
    </contour>
    <contour>
      <point x="489" y="243" type="curve"/>
      <point x="489" y="243"/>
      <point x="483" y="214"/>
      <point x="483" y="214" type="curve"/>
      <point x="483" y="214"/>
      <point x="894" y="214"/>
      <point x="894" y="214" type="curve"/>
      <point x="894" y="214"/>
      <point x="900" y="243"/>
      <point x="900" y="243" type="curve"/>
      <point x="900" y="243"/>
      <point x="489" y="243"/>
    </contour>
    <contour>
      <point x="223" y="459" type="curve"/>
      <point x="223" y="459"/>
      <point x="217" y="429"/>
      <point x="217" y="429" type="curve"/>
      <point x="217" y="429"/>
      <point x="399" y="429"/>
      <point x="399" y="429" type="curve"/>
      <point x="399" y="429"/>
      <point x="405" y="459"/>
      <point x="405" y="459" type="curve"/>
      <point x="405" y="459"/>
      <point x="223" y="459"/>
    </contour>
    <contour>
      <point x="740" y="609" type="curve"/>
      <point x="740" y="609"/>
      <point x="619" y="-31"/>
      <point x="619" y="-31" type="curve"/>
      <point x="619" y="-31"/>
      <point x="649" y="-31"/>
      <point x="649" y="-31" type="curve"/>
      <point x="649" y="-31"/>
      <point x="770" y="609"/>
      <point x="770" y="609" type="curve"/>
      <point x="770" y="609"/>
      <point x="740" y="609"/>
    </contour>
    <contour>
      <point x="391" y="459" type="curve"/>
      <point x="391" y="459"/>
      <point x="389" y="451"/>
      <point x="389" y="451" type="curve"/>
      <point x="317" y="111"/>
      <point x="285" y="-6"/>
      <point x="260" y="-30" type="curve"/>
      <point x="251" y="-41"/>
      <point x="242" y="-43"/>
      <point x="227" y="-42" type="curve"/>
      <point x="212" y="-42"/>
      <point x="167" y="-42"/>
      <point x="120" y="-38" type="curve"/>
      <point x="124" y="-46"/>
      <point x="124" y="-59"/>
      <point x="123" y="-67" type="curve"/>
      <point x="163" y="-70"/>
      <point x="206" y="-71"/>
      <point x="227" y="-71" type="curve" smooth="yes"/>
      <point x="252" y="-70"/>
      <point x="267" y="-65"/>
      <point x="283" y="-49" type="curve" smooth="yes"/>
      <point x="315" y="-16"/>
      <point x="341" y="90"/>
      <point x="416" y="437" type="curve"/>
      <point x="418" y="444"/>
      <point x="421" y="459"/>
      <point x="421" y="459" type="curve"/>
      <point x="421" y="459"/>
      <point x="391" y="459"/>
    </contour>
    <contour>
      <point x="582" y="694" type="curve"/>
      <point x="582" y="694"/>
      <point x="577" y="665"/>
      <point x="577" y="665" type="curve"/>
      <point x="577" y="665"/>
      <point x="1010" y="665"/>
      <point x="1010" y="665" type="curve"/>
      <point x="1010" y="665"/>
      <point x="1015" y="694"/>
      <point x="1015" y="694" type="curve"/>
      <point x="1015" y="694"/>
      <point x="582" y="694"/>
    </contour>
    <contour>
      <point x="359" y="-16" type="curve"/>
      <point x="359" y="-16"/>
      <point x="353" y="-45"/>
      <point x="353" y="-45" type="curve"/>
      <point x="353" y="-45"/>
      <point x="887" y="-45"/>
      <point x="887" y="-45" type="curve"/>
      <point x="887" y="-45"/>
      <point x="893" y="-16"/>
      <point x="893" y="-16" type="curve"/>
      <point x="893" y="-16"/>
      <point x="359" y="-16"/>
    </contour>
    <contour>
      <point x="641" y="831" type="curve"/>
      <point x="591" y="712"/>
      <point x="521" y="597"/>
      <point x="443" y="519" type="curve"/>
      <point x="450" y="515"/>
      <point x="461" y="505"/>
      <point x="465" y="500" type="curve"/>
      <point x="542" y="581"/>
      <point x="614" y="700"/>
      <point x="670" y="825" type="curve"/>
      <point x="670" y="825"/>
      <point x="641" y="831"/>
    </contour>
    <contour>
      <point x="603" y="588" type="curve"/>
      <point x="560" y="486"/>
      <point x="502" y="385"/>
      <point x="437" y="317" type="curve"/>
      <point x="445" y="313"/>
      <point x="456" y="304"/>
      <point x="462" y="300" type="curve"/>
      <point x="524" y="371"/>
      <point x="586" y="475"/>
      <point x="632" y="582" type="curve"/>
      <point x="632" y="582"/>
      <point x="603" y="588"/>
    </contour>
    <contour>
      <point x="241" y="639" type="curve"/>
      <point x="241" y="639"/>
      <point x="212" y="485"/>
      <point x="212" y="485" type="curve"/>
      <point x="182" y="327"/>
      <point x="129" y="119"/>
      <point x="-34" y="-52" type="curve"/>
      <point x="-26" y="-57"/>
      <point x="-17" y="-64"/>
      <point x="-13" y="-69" type="curve"/>
      <point x="154" y="110"/>
      <point x="209" y="315"/>
      <point x="241" y="486" type="curve"/>
      <point x="241" y="486"/>
      <point x="270" y="639"/>
      <point x="270" y="639" type="curve"/>
      <point x="270" y="639"/>
      <point x="241" y="639"/>
    </contour>
  </outline>
</glyph>
<glyph name="uni65D0" format="2">
  <advance height="1000" width="1000"/>
  <unicode hex="65D0"/>
  <outline>
    <contour>
      <point x="289" y="826" type="curve"/>
      <point x="308" y="776"/>
      <point x="326" y="709"/>
      <point x="329" y="667" type="curve"/>
      <point x="329" y="667"/>
      <point x="359" y="677"/>
      <point x="359" y="677" type="curve"/>
      <point x="353" y="716"/>
      <point x="336" y="783"/>
      <point x="316" y="833" type="curve"/>
      <point x="316" y="833"/>
      <point x="289" y="826"/>
    </contour>
    <contour>
      <point x="114" y="657" type="curve"/>
      <point x="114" y="657"/>
      <point x="109" y="627"/>
      <point x="109" y="627" type="curve"/>
      <point x="109" y="627"/>
      <point x="498" y="627"/>
      <point x="498" y="627" type="curve"/>
      <point x="498" y="627"/>
      <point x="503" y="657"/>
      <point x="503" y="657" type="curve"/>
      <point x="503" y="657"/>
      <point x="114" y="657"/>
    </contour>
    <contour>
      <point x="206" y="459" type="curve"/>
      <point x="206" y="459"/>
      <point x="200" y="429"/>
      <point x="200" y="429" type="curve"/>
      <point x="200" y="429"/>
      <point x="377" y="429"/>
      <point x="377" y="429" type="curve"/>
      <point x="377" y="429"/>
      <point x="383" y="459"/>
      <point x="383" y="459" type="curve"/>
      <point x="383" y="459"/>
      <point x="206" y="459"/>
    </contour>
    <contour>
      <point x="231" y="644" type="curve"/>
      <point x="177" y="377"/>
      <point x="109" y="89"/>
      <point x="-27" y="-55" type="curve"/>
      <point x="-19" y="-58"/>
      <point x="-7" y="-65"/>
      <point x="-2" y="-70" type="curve"/>
      <point x="137" y="82"/>
      <point x="203" y="367"/>
      <point x="260" y="644" type="curve"/>
      <point x="260" y="644"/>
      <point x="231" y="644"/>
    </contour>
    <contour>
      <point x="373" y="459" type="curve"/>
      <point x="373" y="459"/>
      <point x="371" y="451"/>
      <point x="371" y="451" type="curve"/>
      <point x="299" y="111"/>
      <point x="268" y="-6"/>
      <point x="242" y="-30" type="curve"/>
      <point x="233" y="-41"/>
      <point x="225" y="-43"/>
      <point x="210" y="-42" type="curve"/>
      <point x="195" y="-42"/>
      <point x="152" y="-42"/>
      <point x="106" y="-38" type="curve"/>
      <point x="109" y="-46"/>
      <point x="110" y="-59"/>
      <point x="109" y="-68" type="curve"/>
      <point x="148" y="-71"/>
      <point x="188" y="-71"/>
      <point x="210" y="-71" type="curve" smooth="yes"/>
      <point x="234" y="-70"/>
      <point x="250" y="-65"/>
      <point x="265" y="-49" type="curve" smooth="yes"/>
      <point x="297" y="-16"/>
      <point x="324" y="89"/>
      <point x="399" y="437" type="curve"/>
      <point x="401" y="444"/>
      <point x="404" y="459"/>
      <point x="404" y="459" type="curve"/>
      <point x="404" y="459"/>
      <point x="373" y="459"/>
    </contour>
    <contour>
      <point x="591" y="700" type="curve"/>
      <point x="591" y="700"/>
      <point x="586" y="670"/>
      <point x="586" y="670" type="curve"/>
      <point x="586" y="670"/>
      <point x="1019" y="670"/>
      <point x="1019" y="670" type="curve"/>
      <point x="1019" y="670"/>
      <point x="1024" y="700"/>
      <point x="1024" y="700" type="curve"/>
      <point x="1024" y="700"/>
      <point x="591" y="700"/>
    </contour>
    <contour>
      <point x="655" y="831" type="curve"/>
      <point x="603" y="720"/>
      <point x="533" y="618"/>
      <point x="453" y="548" type="curve"/>
      <point x="460" y="543"/>
      <point x="471" y="534"/>
      <point x="475" y="530" type="curve"/>
      <point x="554" y="602"/>
      <point x="629" y="709"/>
      <point x="683" y="825" type="curve"/>
      <point x="683" y="825"/>
      <point x="655" y="831"/>
    </contour>
    <contour>
      <point x="642" y="607" type="curve"/>
      <point x="642" y="607"/>
      <point x="585" y="307"/>
      <point x="585" y="307" type="curve"/>
      <point x="558" y="163"/>
      <point x="515" y="41"/>
      <point x="328" y="-49" type="curve"/>
      <point x="334" y="-54"/>
      <point x="341" y="-64"/>
      <point x="344" y="-70" type="curve"/>
      <point x="538" y="25"/>
      <point x="586" y="151"/>
      <point x="615" y="307" type="curve"/>
      <point x="615" y="307"/>
      <point x="672" y="607"/>
      <point x="672" y="607" type="curve"/>
      <point x="672" y="607"/>
      <point x="642" y="607"/>
    </contour>
    <contour>
      <point x="473" y="491" type="curve"/>
      <point x="500" y="438"/>
      <point x="526" y="368"/>
      <point x="531" y="320" type="curve"/>
      <point x="531" y="320"/>
      <point x="560" y="334"/>
      <point x="560" y="334" type="curve"/>
      <point x="553" y="380"/>
      <point x="527" y="451"/>
      <point x="499" y="504" type="curve"/>
      <point x="499" y="504"/>
      <point x="473" y="491"/>
    </contour>
    <contour>
      <point x="379" y="155" type="curve"/>
      <point x="379" y="155"/>
      <point x="390" y="131"/>
      <point x="390" y="131" type="curve"/>
      <point x="450" y="170"/>
      <point x="523" y="217"/>
      <point x="595" y="263" type="curve"/>
      <point x="595" y="263"/>
      <point x="590" y="288"/>
      <point x="590" y="288" type="curve"/>
      <point x="511" y="237"/>
      <point x="432" y="186"/>
    </contour>
    <contour>
      <point x="775" y="607" type="curve"/>
      <point x="775" y="607"/>
      <point x="659" y="-3"/>
      <point x="659" y="-3" type="curve"/>
      <point x="650" y="-54"/>
      <point x="660" y="-64"/>
      <point x="712" y="-64" type="curve" smooth="yes"/>
      <point x="723" y="-64"/>
      <point x="810" y="-64"/>
      <point x="821" y="-64" type="curve" smooth="yes"/>
      <point x="866" y="-64"/>
      <point x="880" y="-36"/>
      <point x="902" y="62" type="curve"/>
      <point x="893" y="64"/>
      <point x="883" y="69"/>
      <point x="876" y="75" type="curve"/>
      <point x="857" y="-18"/>
      <point x="850" y="-37"/>
      <point x="824" y="-37" type="curve" smooth="yes"/>
      <point x="805" y="-37"/>
      <point x="731" y="-37"/>
      <point x="717" y="-37" type="curve" smooth="yes"/>
      <point x="687" y="-37"/>
      <point x="683" y="-32"/>
      <point x="688" y="-4" type="curve"/>
      <point x="688" y="-4"/>
      <point x="804" y="607"/>
      <point x="804" y="607" type="curve"/>
      <point x="804" y="607"/>
      <point x="775" y="607"/>
    </contour>
    <contour>
      <point x="927" y="520" type="curve"/>
      <point x="889" y="465"/>
      <point x="822" y="386"/>
      <point x="774" y="338" type="curve"/>
      <point x="774" y="338"/>
      <point x="793" y="322"/>
      <point x="793" y="322" type="curve"/>
      <point x="841" y="371"/>
      <point x="902" y="441"/>
      <point x="950" y="503" type="curve"/>
      <point x="950" y="503"/>
      <point x="927" y="520"/>
    </contour>
    <contour>
      <point x="722" y="292" type="curve"/>
      <point x="774" y="242"/>
      <point x="834" y="173"/>
      <point x="863" y="130" type="curve"/>
      <point x="863" y="130"/>
      <point x="888" y="151"/>
      <point x="888" y="151" type="curve"/>
      <point x="858" y="192"/>
      <point x="798" y="260"/>
      <point x="746" y="309" type="curve"/>
      <point x="746" y="309"/>
      <point x="722" y="292"/>
    </contour>
  </outline>
</glyph>
<glyph name="uni65DB" format="2">
  <advance height="1000" width="1000"/>
  <unicode hex="65DB"/>
  <outline>
    <contour>
      <point x="274" y="826" type="curve"/>
      <point x="293" y="776"/>
      <point x="311" y="709"/>
      <point x="314" y="667" type="curve"/>
      <point x="314" y="667"/>
      <point x="344" y="677"/>
      <point x="344" y="677" type="curve"/>
      <point x="338" y="716"/>
      <point x="321" y="783"/>
      <point x="301" y="833" type="curve"/>
      <point x="301" y="833"/>
      <point x="274" y="826"/>
    </contour>
    <contour>
      <point x="114" y="657" type="curve"/>
      <point x="114" y="657"/>
      <point x="109" y="627"/>
      <point x="109" y="627" type="curve"/>
      <point x="109" y="627"/>
      <point x="467" y="627"/>
      <point x="467" y="627" type="curve"/>
      <point x="467" y="627"/>
      <point x="472" y="657"/>
      <point x="472" y="657" type="curve"/>
      <point x="472" y="657"/>
      <point x="114" y="657"/>
    </contour>
    <contour>
      <point x="423" y="422" type="curve"/>
      <point x="423" y="422"/>
      <point x="417" y="392"/>
      <point x="417" y="392" type="curve"/>
      <point x="417" y="392"/>
      <point x="960" y="392"/>
      <point x="960" y="392" type="curve"/>
      <point x="960" y="392"/>
      <point x="966" y="422"/>
      <point x="966" y="422" type="curve"/>
      <point x="966" y="422"/>
      <point x="423" y="422"/>
    </contour>
    <contour>
      <point x="440" y="116" type="curve"/>
      <point x="440" y="116"/>
      <point x="434" y="86"/>
      <point x="434" y="86" type="curve"/>
      <point x="434" y="86"/>
      <point x="815" y="86"/>
      <point x="815" y="86" type="curve"/>
      <point x="815" y="86"/>
      <point x="821" y="116"/>
      <point x="821" y="116" type="curve"/>
      <point x="821" y="116"/>
      <point x="440" y="116"/>
    </contour>
    <contour>
      <point x="416" y="-8" type="curve"/>
      <point x="416" y="-8"/>
      <point x="411" y="-37"/>
      <point x="411" y="-37" type="curve"/>
      <point x="411" y="-37"/>
      <point x="792" y="-37"/>
      <point x="792" y="-37" type="curve"/>
      <point x="792" y="-37"/>
      <point x="797" y="-8"/>
      <point x="797" y="-8" type="curve"/>
      <point x="797" y="-8"/>
      <point x="416" y="-8"/>
    </contour>
    <contour>
      <point x="194" y="459" type="curve"/>
      <point x="194" y="459"/>
      <point x="188" y="429"/>
      <point x="188" y="429" type="curve"/>
      <point x="188" y="429"/>
      <point x="356" y="429"/>
      <point x="356" y="429" type="curve"/>
      <point x="356" y="429"/>
      <point x="362" y="459"/>
      <point x="362" y="459" type="curve"/>
      <point x="362" y="459"/>
      <point x="194" y="459"/>
    </contour>
    <contour>
      <point x="700" y="584" type="curve"/>
      <point x="700" y="584"/>
      <point x="638" y="253"/>
      <point x="638" y="253" type="curve"/>
      <point x="638" y="253"/>
      <point x="667" y="253"/>
      <point x="667" y="253" type="curve"/>
      <point x="667" y="253"/>
      <point x="729" y="584"/>
      <point x="729" y="584" type="curve"/>
      <point x="729" y="584"/>
      <point x="700" y="584"/>
    </contour>
    <contour>
      <point x="632" y="222" type="curve"/>
      <point x="632" y="222"/>
      <point x="586" y="-21"/>
      <point x="586" y="-21" type="curve"/>
      <point x="586" y="-21"/>
      <point x="615" y="-21"/>
      <point x="615" y="-21" type="curve"/>
      <point x="615" y="-21"/>
      <point x="661" y="222"/>
      <point x="661" y="222" type="curve"/>
      <point x="661" y="222"/>
      <point x="632" y="222"/>
    </contour>
    <contour>
      <point x="220" y="644" type="curve"/>
      <point x="166" y="378"/>
      <point x="99" y="90"/>
      <point x="-27" y="-55" type="curve"/>
      <point x="-19" y="-59"/>
      <point x="-7" y="-65"/>
      <point x="-2" y="-70" type="curve"/>
      <point x="128" y="83"/>
      <point x="193" y="368"/>
      <point x="249" y="644" type="curve"/>
      <point x="249" y="644"/>
      <point x="220" y="644"/>
    </contour>
    <contour>
      <point x="352" y="459" type="curve"/>
      <point x="352" y="459"/>
      <point x="350" y="451"/>
      <point x="350" y="451" type="curve"/>
      <point x="278" y="111"/>
      <point x="247" y="-6"/>
      <point x="222" y="-30" type="curve"/>
      <point x="213" y="-41"/>
      <point x="206" y="-43"/>
      <point x="190" y="-42" type="curve"/>
      <point x="175" y="-42"/>
      <point x="133" y="-42"/>
      <point x="88" y="-38" type="curve"/>
      <point x="92" y="-47"/>
      <point x="93" y="-59"/>
      <point x="92" y="-68" type="curve"/>
      <point x="129" y="-71"/>
      <point x="169" y="-71"/>
      <point x="191" y="-71" type="curve" smooth="yes"/>
      <point x="214" y="-70"/>
      <point x="230" y="-65"/>
      <point x="246" y="-49" type="curve" smooth="yes"/>
      <point x="276" y="-16"/>
      <point x="303" y="88"/>
      <point x="377" y="437" type="curve"/>
      <point x="379" y="444"/>
      <point x="382" y="459"/>
      <point x="382" y="459" type="curve"/>
      <point x="382" y="459"/>
      <point x="352" y="459"/>
    </contour>
    <contour>
      <point x="565" y="702" type="curve"/>
      <point x="565" y="702"/>
      <point x="559" y="672"/>
      <point x="559" y="672" type="curve"/>
      <point x="559" y="672"/>
      <point x="1019" y="672"/>
      <point x="1019" y="672" type="curve"/>
      <point x="1019" y="672"/>
      <point x="1025" y="702"/>
      <point x="1025" y="702" type="curve"/>
      <point x="1025" y="702"/>
      <point x="565" y="702"/>
    </contour>
    <contour>
      <point x="627" y="831" type="curve"/>
      <point x="573" y="715"/>
      <point x="499" y="603"/>
      <point x="419" y="527" type="curve"/>
      <point x="426" y="523"/>
      <point x="437" y="513"/>
      <point x="441" y="509" type="curve"/>
      <point x="521" y="587"/>
      <point x="598" y="703"/>
      <point x="656" y="825" type="curve"/>
      <point x="656" y="825"/>
      <point x="627" y="831"/>
    </contour>
    <contour>
      <point x="902" y="627" type="curve"/>
      <point x="812" y="603"/>
      <point x="643" y="580"/>
      <point x="504" y="568" type="curve"/>
      <point x="507" y="560"/>
      <point x="510" y="550"/>
      <point x="510" y="543" type="curve"/>
      <point x="652" y="555"/>
      <point x="819" y="576"/>
      <point x="927" y="605" type="curve"/>
      <point x="927" y="605"/>
      <point x="902" y="627"/>
    </contour>
    <contour>
      <point x="652" y="415" type="curve"/>
      <point x="580" y="340"/>
      <point x="455" y="263"/>
      <point x="357" y="228" type="curve"/>
      <point x="362" y="223"/>
      <point x="369" y="213"/>
      <point x="374" y="205" type="curve"/>
      <point x="470" y="244"/>
      <point x="600" y="324"/>
      <point x="675" y="402" type="curve"/>
      <point x="675" y="402"/>
      <point x="652" y="415"/>
    </contour>
    <contour>
      <point x="714" y="413" type="curve"/>
      <point x="714" y="413"/>
      <point x="688" y="401"/>
      <point x="688" y="401" type="curve"/>
      <point x="731" y="327"/>
      <point x="828" y="246"/>
      <point x="915" y="210" type="curve"/>
      <point x="921" y="218"/>
      <point x="933" y="229"/>
      <point x="941" y="234" type="curve"/>
      <point x="853" y="266"/>
      <point x="755" y="341"/>
    </contour>
    <contour>
      <point x="536" y="519" type="curve"/>
      <point x="554" y="490"/>
      <point x="567" y="451"/>
      <point x="570" y="424" type="curve"/>
      <point x="570" y="424"/>
      <point x="599" y="438"/>
      <point x="599" y="438" type="curve"/>
      <point x="596" y="464"/>
      <point x="580" y="503"/>
      <point x="562" y="530" type="curve"/>
      <point x="562" y="530"/>
      <point x="536" y="519"/>
    </contour>
    <contour>
      <point x="853" y="541" type="curve"/>
      <point x="835" y="511"/>
      <point x="799" y="464"/>
      <point x="774" y="435" type="curve"/>
      <point x="774" y="435"/>
      <point x="794" y="423"/>
      <point x="794" y="423" type="curve"/>
      <point x="819" y="450"/>
      <point x="852" y="490"/>
      <point x="877" y="526" type="curve"/>
      <point x="877" y="526"/>
      <point x="853" y="541"/>
    </contour>
    <contour>
      <point x="447" y="235" type="curve"/>
      <point x="447" y="235"/>
      <point x="390" y="-70"/>
      <point x="390" y="-70" type="curve"/>
      <point x="390" y="-70"/>
      <point x="419" y="-70"/>
      <point x="419" y="-70" type="curve"/>
      <point x="419" y="-70"/>
      <point x="471" y="206"/>
      <point x="471" y="206" type="curve"/>
      <point x="471" y="206"/>
      <point x="823" y="206"/>
      <point x="823" y="206" type="curve"/>
      <point x="823" y="206"/>
      <point x="771" y="-67"/>
      <point x="771" y="-67" type="curve"/>
      <point x="771" y="-67"/>
      <point x="800" y="-67"/>
      <point x="800" y="-67" type="curve"/>
      <point x="800" y="-67"/>
      <point x="857" y="235"/>
      <point x="857" y="235" type="curve"/>
      <point x="857" y="235"/>
      <point x="447" y="235"/>
    </contour>
  </outline>
</glyph>
<glyph name="uni674E" format="2">
  <advance height="1000" width="1000"/>
  <unicode hex="674E"/>
  <outline>
    <contour>
      <point x="135" y="705" type="line"/>
      <point x="130" y="675" type="line"/>
      <point x="1008" y="675" type="line"/>
      <point x="1013" y="705" type="line"/>
    </contour>
    <contour>
      <point x="580" y="831" type="line"/>
      <point x="503" y="425" type="line"/>
      <point x="533" y="425" type="line"/>
      <point x="610" y="831" type="line"/>
    </contour>
    <contour>
      <point x="524" y="698" type="line"/>
      <point x="412" y="582"/>
      <point x="218" y="469"/>
      <point x="67" y="418" type="curve"/>
      <point x="73" y="412"/>
      <point x="80" y="402"/>
      <point x="83" y="394" type="curve"/>
      <point x="233" y="449"/>
      <point x="431" y="565"/>
      <point x="545" y="685" type="curve"/>
    </contour>
    <contour>
      <point x="618" y="696" type="curve"/>
      <point x="590" y="683" type="line"/>
      <point x="661" y="568"/>
      <point x="816" y="455"/>
      <point x="949" y="403" type="curve"/>
      <point x="956" y="411"/>
      <point x="967" y="422"/>
      <point x="976" y="427" type="curve"/>
      <point x="840" y="475"/>
      <point x="685" y="584"/>
    </contour>
    <contour>
      <point x="251" y="400" type="line"/>
      <point x="245" y="371" type="line"/>
      <point x="744" y="371" type="line"/>
      <point x="750" y="400" type="line"/>
    </contour>
    <contour>
      <point x="38" y="206" type="line"/>
      <point x="32" y="177" type="line"/>
      <point x="915" y="177" type="line"/>
      <point x="921" y="206" type="line"/>
    </contour>
    <contour>
      <point x="472" y="267" type="line"/>
      <point x="418" y="-23" type="line" smooth="yes"/>
      <point x="415" y="-36"/>
      <point x="410" y="-40"/>
      <point x="394" y="-41" type="curve"/>
      <point x="377" y="-43"/>
      <point x="323" y="-43"/>
      <point x="249" y="-41" type="curve"/>
      <point x="254" y="-50"/>
      <point x="257" y="-61"/>
      <point x="258" y="-68" type="curve"/>
      <point x="345" y="-68"/>
      <point x="387" y="-68"/>
      <point x="410" y="-63" type="curve" smooth="yes"/>
      <point x="434" y="-57"/>
      <point x="443" y="-47"/>
      <point x="448" y="-22" type="curve" smooth="yes"/>
      <point x="502" y="267" type="line"/>
    </contour>
    <contour>
      <point x="744" y="400" type="line"/>
      <point x="742" y="393" type="line"/>
      <point x="679" y="345"/>
      <point x="570" y="295"/>
      <point x="472" y="267" type="curve"/>
      <point x="479" y="262"/>
      <point x="486" y="252"/>
      <point x="489" y="245" type="curve"/>
      <point x="587" y="277"/>
      <point x="701" y="328"/>
      <point x="778" y="386" type="curve"/>
      <point x="758" y="402" type="line"/>
      <point x="751" y="400" type="line"/>
    </contour>
  </outline>
</glyph>
<glyph name="uni682B" format="2">
  <advance height="1000" width="1000"/>
  <unicode hex="682B"/>
  <outline>
    <contour>
      <point x="449" y="672" type="line"/>
      <point x="444" y="643" type="line"/>
      <point x="1010" y="643" type="line"/>
      <point x="1015" y="672" type="line"/>
    </contour>
    <contour>
      <point x="626" y="523" type="line"/>
      <point x="620" y="493" type="line"/>
      <point x="939" y="493" type="line"/>
      <point x="945" y="523" type="line"/>
    </contour>
    <contour>
      <point x="539" y="277" type="line"/>
      <point x="534" y="247" type="line"/>
      <point x="941" y="247" type="line"/>
      <point x="946" y="277" type="line"/>
    </contour>
    <contour>
      <point x="753" y="373" type="line"/>
      <point x="679" y="-21" type="line" smooth="yes"/>
      <point x="677" y="-33"/>
      <point x="672" y="-37"/>
      <point x="658" y="-37" type="curve"/>
      <point x="645" y="-38"/>
      <point x="600" y="-39"/>
      <point x="542" y="-37" type="curve"/>
      <point x="545" y="-46"/>
      <point x="548" y="-57"/>
      <point x="549" y="-65" type="curve"/>
      <point x="617" y="-65"/>
      <point x="655" y="-65"/>
      <point x="676" y="-59" type="curve" smooth="yes"/>
      <point x="696" y="-54"/>
      <point x="703" y="-44"/>
      <point x="707" y="-20" type="curve" smooth="yes"/>
      <point x="781" y="373" type="line"/>
    </contour>
    <contour>
      <point x="935" y="523" type="line"/>
      <point x="934" y="516" type="line"/>
      <point x="890" y="467"/>
      <point x="815" y="408"/>
      <point x="753" y="373" type="curve"/>
      <point x="760" y="369"/>
      <point x="766" y="361"/>
      <point x="770" y="355" type="curve"/>
      <point x="833" y="392"/>
      <point x="912" y="452"/>
      <point x="966" y="512" type="curve"/>
      <point x="948" y="524" type="line"/>
      <point x="942" y="523" type="line"/>
    </contour>
    <contour>
      <point x="699" y="830" type="line"/>
      <point x="602" y="606"/>
      <point x="472" y="408"/>
      <point x="312" y="282" type="curve"/>
      <point x="320" y="278"/>
      <point x="330" y="268"/>
      <point x="334" y="263" type="curve"/>
      <point x="493" y="395"/>
      <point x="624" y="590"/>
      <point x="726" y="824" type="curve"/>
    </contour>
    <contour>
      <point x="113" y="604" type="line"/>
      <point x="107" y="574" type="line"/>
      <point x="426" y="574" type="line"/>
      <point x="432" y="604" type="line"/>
    </contour>
    <contour>
      <point x="315" y="831" type="line"/>
      <point x="145" y="-68" type="line"/>
      <point x="174" y="-68" type="line"/>
      <point x="344" y="831" type="line"/>
    </contour>
    <contour>
      <point x="269" y="596" type="line"/>
      <point x="207" y="438"/>
      <point x="97" y="247"/>
      <point x="10" y="154" type="curve"/>
      <point x="16" y="149"/>
      <point x="24" y="138"/>
      <point x="29" y="131" type="curve"/>
      <point x="117" y="229"/>
      <point x="230" y="429"/>
      <point x="293" y="588" type="curve"/>
    </contour>
    <contour>
      <point x="290" y="573" type="curve"/>
      <point x="270" y="559" type="line"/>
      <point x="287" y="530"/>
      <point x="341" y="421"/>
      <point x="353" y="383" type="curve"/>
      <point x="379" y="409" type="line"/>
      <point x="366" y="436"/>
      <point x="308" y="548"/>
    </contour>
    <contour>
      <point x="494" y="462" type="line"/>
      <point x="394" y="-68" type="line"/>
      <point x="423" y="-68" type="line"/>
      <point x="528" y="488" type="line"/>
      <point x="526" y="489" type="line"/>
    </contour>
  </outline>
</glyph>
<glyph name="uni6D0A" format="2">
  <advance height="1000" width="1000"/>
  <unicode hex="6D0A"/>
  <outline>
    <contour>
      <point x="378" y="672" type="line"/>
      <point x="373" y="643" type="line"/>
      <point x="1013" y="643" type="line"/>
      <point x="1018" y="672" type="line"/>
    </contour>
    <contour>
      <point x="468" y="277" type="line"/>
      <point x="463" y="247" type="line"/>
      <point x="923" y="247" type="line"/>
      <point x="928" y="277" type="line"/>
    </contour>
    <contour>
      <point x="582" y="525" type="line"/>
      <point x="577" y="496" type="line"/>
      <point x="900" y="496" type="line"/>
      <point x="905" y="525" type="line"/>
    </contour>
    <contour>
      <point x="716" y="383" type="line"/>
      <point x="640" y="-23" type="line"/>
      <point x="637" y="-35"/>
      <point x="634" y="-39"/>
      <point x="621" y="-39" type="curve"/>
      <point x="606" y="-40"/>
      <point x="564" y="-41"/>
      <point x="509" y="-39" type="curve"/>
      <point x="512" y="-49"/>
      <point x="515" y="-61"/>
      <point x="516" y="-69" type="curve"/>
      <point x="578" y="-69"/>
      <point x="616" y="-69"/>
      <point x="636" y="-64" type="curve" smooth="yes"/>
      <point x="656" y="-58"/>
      <point x="664" y="-47"/>
      <point x="669" y="-23" type="curve" smooth="yes"/>
      <point x="745" y="383" type="line"/>
    </contour>
    <contour>
      <point x="649" y="832" type="line"/>
      <point x="552" y="610"/>
      <point x="418" y="425"/>
      <point x="253" y="309" type="curve"/>
      <point x="259" y="303"/>
      <point x="268" y="290"/>
      <point x="271" y="284" type="curve"/>
      <point x="439" y="409"/>
      <point x="574" y="595"/>
      <point x="677" y="826" type="curve"/>
    </contour>
    <contour>
      <point x="420" y="452" type="line"/>
      <point x="322" y="-70" type="line"/>
      <point x="352" y="-70" type="line"/>
      <point x="455" y="478" type="line"/>
      <point x="454" y="479" type="line"/>
    </contour>
    <contour>
      <point x="896" y="525" type="line"/>
      <point x="895" y="519" type="line"/>
      <point x="851" y="473"/>
      <point x="779" y="417"/>
      <point x="716" y="383" type="curve"/>
      <point x="723" y="379"/>
      <point x="730" y="372"/>
      <point x="733" y="366" type="curve"/>
      <point x="796" y="401"/>
      <point x="875" y="458"/>
      <point x="928" y="514" type="curve"/>
      <point x="909" y="527" type="line"/>
      <point x="903" y="525" type="line"/>
    </contour>
    <contour>
      <point x="191" y="796" type="line"/>
      <point x="241" y="762"/>
      <point x="297" y="710"/>
      <point x="322" y="673" type="curve"/>
      <point x="347" y="696" type="line"/>
      <point x="321" y="731"/>
      <point x="266" y="782"/>
      <point x="215" y="816" type="curve"/>
    </contour>
    <contour>
      <point x="87" y="524" type="line"/>
      <point x="136" y="492"/>
      <point x="191" y="443"/>
      <point x="216" y="410" type="curve"/>
      <point x="240" y="432" type="line"/>
      <point x="214" y="466"/>
      <point x="159" y="513"/>
      <point x="111" y="544" type="curve"/>
    </contour>
    <contour>
      <point x="12" y="-26" type="curve"/>
      <point x="36" y="-45" type="line"/>
      <point x="93" y="43"/>
      <point x="167" y="176"/>
      <point x="222" y="279" type="curve"/>
      <point x="199" y="297" type="line"/>
      <point x="143" y="187"/>
      <point x="65" y="52"/>
    </contour>
  </outline>
</glyph>
<glyph name="uni6E24" format="2">
  <advance height="1000" width="1000"/>
  <unicode hex="6E24"/>
  <outline>
    <contour>
      <point x="189" y="797" type="line"/>
      <point x="222" y="760"/>
      <point x="259" y="708"/>
      <point x="275" y="673" type="curve"/>
      <point x="301" y="692" type="line"/>
      <point x="285" y="725"/>
      <point x="248" y="776"/>
      <point x="214" y="812" type="curve"/>
    </contour>
    <contour>
      <point x="88" y="528" type="line"/>
      <point x="130" y="492"/>
      <point x="177" y="439"/>
      <point x="200" y="405" type="curve"/>
      <point x="224" y="426" type="line"/>
      <point x="203" y="460"/>
      <point x="155" y="511"/>
      <point x="112" y="546" type="curve"/>
    </contour>
    <contour>
      <point x="10" y="-35" type="curve"/>
      <point x="34" y="-53" type="line"/>
      <point x="88" y="35"/>
      <point x="160" y="168"/>
      <point x="210" y="272" type="curve"/>
      <point x="188" y="288" type="line"/>
      <point x="136" y="180"/>
      <point x="60" y="43"/>
    </contour>
    <contour>
      <point x="320" y="717" type="line"/>
      <point x="314" y="687" type="line"/>
      <point x="707" y="687" type="line"/>
      <point x="713" y="717" type="line"/>
    </contour>
    <contour>
      <point x="696" y="592" type="line"/>
      <point x="690" y="563" type="line"/>
      <point x="968" y="563" type="line"/>
      <point x="974" y="592" type="line"/>
    </contour>
    <contour>
      <point x="312" y="427" type="line"/>
      <point x="306" y="398" type="line"/>
      <point x="581" y="398" type="line"/>
      <point x="587" y="427" type="line"/>
    </contour>
    <contour>
      <point x="518" y="829" type="line"/>
      <point x="467" y="560" type="line"/>
      <point x="496" y="560" type="line"/>
      <point x="547" y="829" type="line"/>
    </contour>
    <contour>
      <point x="416" y="302" type="line"/>
      <point x="354" y="-25" type="line" smooth="yes"/>
      <point x="352" y="-36"/>
      <point x="348" y="-40"/>
      <point x="335" y="-40" type="curve"/>
      <point x="322" y="-41"/>
      <point x="283" y="-41"/>
      <point x="230" y="-40" type="curve"/>
      <point x="234" y="-49"/>
      <point x="237" y="-60"/>
      <point x="237" y="-67" type="curve"/>
      <point x="299" y="-67"/>
      <point x="334" y="-67"/>
      <point x="353" y="-63" type="curve"/>
      <point x="372" y="-57"/>
      <point x="379" y="-47"/>
      <point x="383" y="-25" type="curve" smooth="yes"/>
      <point x="445" y="302" type="line"/>
    </contour>
    <contour>
      <point x="208" y="175" type="curve"/>
      <point x="211" y="145" type="line"/>
      <point x="319" y="167"/>
      <point x="473" y="197"/>
      <point x="622" y="228" type="curve"/>
      <point x="625" y="255" type="line"/>
      <point x="469" y="225"/>
      <point x="308" y="193"/>
    </contour>
    <contour>
      <point x="848" y="826" type="line"/>
      <point x="772" y="429"/>
      <point x="712" y="112"/>
      <point x="494" y="-51" type="curve"/>
      <point x="503" y="-55"/>
      <point x="514" y="-64"/>
      <point x="519" y="-69" type="curve"/>
      <point x="741" y="104"/>
      <point x="799" y="419"/>
      <point x="877" y="826" type="curve"/>
    </contour>
    <contour>
      <point x="957" y="592" type="line"/>
      <point x="955" y="583" type="line" smooth="yes"/>
      <point x="869" y="149"/>
      <point x="835" y="4"/>
      <point x="808" y="-24" type="curve"/>
      <point x="799" y="-36"/>
      <point x="790" y="-38"/>
      <point x="774" y="-37" type="curve"/>
      <point x="757" y="-37"/>
      <point x="708" y="-37"/>
      <point x="656" y="-33" type="curve"/>
      <point x="659" y="-41"/>
      <point x="660" y="-54"/>
      <point x="659" y="-64" type="curve"/>
      <point x="702" y="-66"/>
      <point x="747" y="-67"/>
      <point x="773" y="-66" type="curve" smooth="yes"/>
      <point x="798" y="-65"/>
      <point x="816" y="-60"/>
      <point x="832" y="-41" type="curve" smooth="yes"/>
      <point x="864" y="-5"/>
      <point x="893" y="127"/>
      <point x="982" y="570" type="curve" smooth="yes"/>
      <point x="983" y="575"/>
      <point x="986" y="592"/>
      <point x="986" y="592" type="curve"/>
    </contour>
    <contour>
      <point x="302" y="572" type="line"/>
      <point x="279" y="449" type="line"/>
      <point x="308" y="449" type="line"/>
      <point x="325" y="542" type="line"/>
      <point x="640" y="542" type="line"/>
      <point x="623" y="449" type="line"/>
      <point x="652" y="449" type="line"/>
      <point x="675" y="572" type="line"/>
    </contour>
    <contour>
      <point x="579" y="427" type="line"/>
      <point x="578" y="421" type="line"/>
      <point x="538" y="380"/>
      <point x="472" y="331"/>
      <point x="416" y="302" type="curve"/>
      <point x="421" y="297"/>
      <point x="428" y="290"/>
      <point x="432" y="284" type="curve"/>
      <point x="489" y="316"/>
      <point x="561" y="366"/>
      <point x="610" y="416" type="curve"/>
      <point x="592" y="429" type="line"/>
      <point x="586" y="427" type="line"/>
    </contour>
  </outline>
</glyph>
<glyph name="uni6F7A" format="2">
  <advance height="1000" width="1000"/>
  <unicode hex="6F7A"/>
  <outline>
    <contour>
      <point x="428" y="794" type="line"/>
      <point x="423" y="765" type="line"/>
      <point x="962" y="765" type="line"/>
      <point x="943" y="666" type="line"/>
      <point x="404" y="666" type="line"/>
      <point x="398" y="636" type="line"/>
      <point x="967" y="636" type="line"/>
      <point x="997" y="794" type="line"/>
    </contour>
    <contour>
      <point x="413" y="794" type="line"/>
      <point x="353" y="475" type="line" smooth="yes"/>
      <point x="323" y="320"/>
      <point x="274" y="111"/>
      <point x="146" y="-41" type="curve"/>
      <point x="153" y="-44"/>
      <point x="162" y="-53"/>
      <point x="166" y="-59" type="curve"/>
      <point x="297" y="97"/>
      <point x="352" y="316"/>
      <point x="382" y="475" type="curve" smooth="yes"/>
      <point x="442" y="794" type="line"/>
    </contour>
    <contour>
      <point x="528" y="580" type="line"/>
      <point x="522" y="551" type="line"/>
      <point x="845" y="551" type="line"/>
      <point x="851" y="580" type="line"/>
    </contour>
    <contour>
      <point x="434" y="470" type="line"/>
      <point x="428" y="440" type="line"/>
      <point x="949" y="440" type="line"/>
      <point x="955" y="470" type="line"/>
    </contour>
    <contour>
      <point x="844" y="580" type="line"/>
      <point x="842" y="573" type="line"/>
      <point x="803" y="548"/>
      <point x="736" y="521"/>
      <point x="683" y="503" type="curve"/>
      <point x="688" y="499"/>
      <point x="696" y="492"/>
      <point x="700" y="486" type="curve"/>
      <point x="754" y="504"/>
      <point x="826" y="532"/>
      <point x="877" y="567" type="curve"/>
      <point x="858" y="582" type="line"/>
      <point x="851" y="580" type="line"/>
    </contour>
    <contour>
      <point x="294" y="85" type="curve"/>
      <point x="298" y="56" type="line"/>
      <point x="379" y="76"/>
      <point x="482" y="102"/>
      <point x="586" y="129" type="curve"/>
      <point x="588" y="154" type="line"/>
      <point x="478" y="128"/>
      <point x="370" y="101"/>
    </contour>
    <contour>
      <point x="683" y="503" type="line"/>
      <point x="657" y="365" type="line" smooth="yes"/>
      <point x="655" y="355"/>
      <point x="653" y="352"/>
      <point x="641" y="352" type="curve"/>
      <point x="628" y="351"/>
      <point x="592" y="351"/>
      <point x="541" y="352" type="curve"/>
      <point x="544" y="343"/>
      <point x="547" y="333"/>
      <point x="548" y="326" type="curve"/>
      <point x="607" y="326"/>
      <point x="639" y="325"/>
      <point x="658" y="330" type="curve" smooth="yes"/>
      <point x="677" y="336"/>
      <point x="682" y="345"/>
      <point x="686" y="365" type="curve" smooth="yes"/>
      <point x="712" y="503" type="line"/>
    </contour>
    <contour>
      <point x="370" y="276" type="line"/>
      <point x="364" y="246" type="line"/>
      <point x="589" y="246" type="line"/>
      <point x="595" y="276" type="line"/>
    </contour>
    <contour>
      <point x="590" y="276" type="line"/>
      <point x="589" y="269" type="line"/>
      <point x="557" y="236"/>
      <point x="502" y="198"/>
      <point x="458" y="174" type="curve"/>
      <point x="463" y="171"/>
      <point x="470" y="164"/>
      <point x="474" y="159" type="curve"/>
      <point x="519" y="183"/>
      <point x="579" y="223"/>
      <point x="622" y="264" type="curve"/>
      <point x="604" y="278" type="line"/>
      <point x="597" y="276" type="line"/>
    </contour>
    <contour>
      <point x="458" y="174" type="line"/>
      <point x="419" y="-32" type="line" smooth="yes"/>
      <point x="417" y="-42"/>
      <point x="414" y="-45"/>
      <point x="403" y="-46" type="curve" smooth="yes"/>
      <point x="391" y="-47"/>
      <point x="356" y="-47"/>
      <point x="307" y="-45" type="curve"/>
      <point x="310" y="-54"/>
      <point x="313" y="-65"/>
      <point x="313" y="-72" type="curve"/>
      <point x="369" y="-72"/>
      <point x="402" y="-72"/>
      <point x="420" y="-67" type="curve" smooth="yes"/>
      <point x="439" y="-62"/>
      <point x="445" y="-53"/>
      <point x="449" y="-32" type="curve" smooth="yes"/>
      <point x="488" y="174" type="line"/>
    </contour>
    <contour>
      <point x="663" y="276" type="line"/>
      <point x="657" y="246" type="line"/>
      <point x="896" y="246" type="line"/>
      <point x="902" y="276" type="line"/>
    </contour>
    <contour>
      <point x="591" y="124" type="line"/>
      <point x="586" y="94" type="line"/>
      <point x="909" y="94" type="line"/>
      <point x="914" y="124" type="line"/>
    </contour>
    <contour>
      <point x="894" y="276" type="line"/>
      <point x="893" y="269" type="line"/>
      <point x="858" y="239"/>
      <point x="801" y="204"/>
      <point x="754" y="182" type="curve"/>
      <point x="761" y="179"/>
      <point x="768" y="172"/>
      <point x="772" y="167" type="curve"/>
      <point x="818" y="189"/>
      <point x="881" y="226"/>
      <point x="926" y="264" type="curve"/>
      <point x="908" y="278" type="line"/>
      <point x="901" y="276" type="line"/>
    </contour>
    <contour>
      <point x="754" y="182" type="line"/>
      <point x="714" y="-32" type="line" smooth="yes"/>
      <point x="712" y="-41"/>
      <point x="708" y="-45"/>
      <point x="697" y="-45" type="curve"/>
      <point x="685" y="-46"/>
      <point x="649" y="-46"/>
      <point x="598" y="-45" type="curve"/>
      <point x="602" y="-54"/>
      <point x="604" y="-65"/>
      <point x="604" y="-72" type="curve"/>
      <point x="662" y="-72"/>
      <point x="696" y="-72"/>
      <point x="715" y="-67" type="curve" smooth="yes"/>
      <point x="734" y="-62"/>
      <point x="740" y="-52"/>
      <point x="744" y="-31" type="curve" smooth="yes"/>
      <point x="784" y="182" type="line"/>
    </contour>
    <contour>
      <point x="170" y="788" type="line"/>
      <point x="228" y="760"/>
      <point x="297" y="715"/>
      <point x="331" y="683" type="curve"/>
      <point x="353" y="710" type="line"/>
      <point x="319" y="740"/>
      <point x="250" y="783"/>
      <point x="191" y="811" type="curve"/>
    </contour>
    <contour>
      <point x="82" y="508" type="line"/>
      <point x="139" y="481"/>
      <point x="206" y="439"/>
      <point x="240" y="409" type="curve"/>
      <point x="261" y="435" type="line"/>
      <point x="228" y="465"/>
      <point x="160" y="505"/>
      <point x="103" y="530" type="curve"/>
    </contour>
    <contour>
      <point x="2" y="-41" type="curve"/>
      <point x="25" y="-62" type="line"/>
      <point x="96" y="33"/>
      <point x="192" y="175"/>
      <point x="261" y="286" type="curve"/>
      <point x="240" y="305" type="line"/>
      <point x="168" y="188"/>
      <point x="68" y="42"/>
    </contour>
  </outline>
</glyph>
<glyph name="uni731B" format="2">
  <advance height="1000" width="1000"/>
  <unicode hex="731B"/>
  <outline>
    <contour>
      <point x="496" y="792" type="line"/>
      <point x="490" y="763" type="line"/>
      <point x="914" y="763" type="line"/>
      <point x="920" y="792" type="line"/>
    </contour>
    <contour>
      <point x="378" y="574" type="line"/>
      <point x="373" y="545" type="line"/>
      <point x="983" y="545" type="line"/>
      <point x="988" y="574" type="line"/>
    </contour>
    <contour>
      <point x="214" y="-16" type="line"/>
      <point x="208" y="-45" type="line"/>
      <point x="883" y="-45" type="line"/>
      <point x="889" y="-16" type="line"/>
    </contour>
    <contour>
      <point x="687" y="658" type="line"/>
      <point x="636" y="386" type="line" smooth="yes"/>
      <point x="634" y="376"/>
      <point x="630" y="372"/>
      <point x="616" y="371" type="curve" smooth="yes"/>
      <point x="601" y="370"/>
      <point x="563" y="369"/>
      <point x="501" y="371" type="curve"/>
      <point x="505" y="362"/>
      <point x="511" y="350"/>
      <point x="512" y="341" type="curve"/>
      <point x="577" y="341"/>
      <point x="610" y="341"/>
      <point x="631" y="348" type="curve"/>
      <point x="653" y="354"/>
      <point x="661" y="365"/>
      <point x="665" y="386" type="curve" smooth="yes"/>
      <point x="716" y="658" type="line"/>
    </contour>
    <contour>
      <point x="911" y="792" type="line"/>
      <point x="909" y="785" type="line"/>
      <point x="853" y="741"/>
      <point x="758" y="689"/>
      <point x="687" y="658" type="curve"/>
      <point x="692" y="654"/>
      <point x="699" y="646"/>
      <point x="703" y="640" type="curve"/>
      <point x="775" y="672"/>
      <point x="875" y="725"/>
      <point x="944" y="779" type="curve"/>
      <point x="925" y="794" type="line"/>
      <point x="918" y="792" type="line"/>
    </contour>
    <contour>
      <point x="362" y="290" type="line"/>
      <point x="303" y="-21" type="line"/>
      <point x="332" y="-21" type="line"/>
      <point x="385" y="261" type="line"/>
      <point x="511" y="261" type="line"/>
      <point x="458" y="-21" type="line"/>
      <point x="487" y="-21" type="line"/>
      <point x="540" y="261" type="line"/>
      <point x="666" y="261" type="line"/>
      <point x="613" y="-21" type="line"/>
      <point x="643" y="-21" type="line"/>
      <point x="696" y="261" type="line"/>
      <point x="824" y="261" type="line"/>
      <point x="771" y="-21" type="line"/>
      <point x="801" y="-21" type="line"/>
      <point x="860" y="290" type="line"/>
    </contour>
    <contour>
      <point x="157" y="804" type="line"/>
      <point x="292" y="648"/>
      <point x="279" y="476"/>
      <point x="245" y="297" type="curve" smooth="yes"/>
      <point x="219" y="158"/>
      <point x="182" y="15"/>
      <point x="147" y="-22" type="curve" smooth="yes"/>
      <point x="137" y="-32"/>
      <point x="126" y="-37"/>
      <point x="112" y="-38" type="curve" smooth="yes"/>
      <point x="87" y="-41"/>
      <point x="47" y="-41"/>
      <point x="4" y="-38" type="curve"/>
      <point x="8" y="-46"/>
      <point x="11" y="-60"/>
      <point x="10" y="-68" type="curve"/>
      <point x="45" y="-70"/>
      <point x="82" y="-70"/>
      <point x="109" y="-67" type="curve" smooth="yes"/>
      <point x="135" y="-65"/>
      <point x="152" y="-57"/>
      <point x="166" y="-42" type="curve" smooth="yes"/>
      <point x="210" y="6"/>
      <point x="246" y="145"/>
      <point x="275" y="297" type="curve" smooth="yes"/>
      <point x="310" y="484"/>
      <point x="323" y="662"/>
      <point x="181" y="820" type="curve"/>
    </contour>
    <contour>
      <point x="272" y="471" type="line"/>
      <point x="213" y="372"/>
      <point x="110" y="262"/>
      <point x="25" y="207" type="curve"/>
      <point x="32" y="200"/>
      <point x="40" y="189"/>
      <point x="42" y="181" type="curve"/>
      <point x="129" y="244"/>
      <point x="232" y="357"/>
      <point x="293" y="457" type="curve"/>
    </contour>
    <contour>
      <point x="393" y="831" type="line"/>
      <point x="322" y="731"/>
      <point x="201" y="613"/>
      <point x="82" y="529" type="curve"/>
      <point x="89" y="525"/>
      <point x="97" y="518"/>
      <point x="101" y="513" type="curve"/>
      <point x="220" y="600"/>
      <point x="338" y="711"/>
      <point x="416" y="817" type="curve"/>
    </contour>
  </outline>
</glyph>
<glyph name="uni7C7D" format="2">
  <advance height="1000" width="1000"/>
  <unicode hex="7C7D"/>
  <outline>
    <contour>
      <point x="327" y="829" type="line"/>
      <point x="157" y="-70" type="line"/>
      <point x="186" y="-70" type="line"/>
      <point x="356" y="829" type="line"/>
    </contour>
    <contour>
      <point x="87" y="482" type="line"/>
      <point x="82" y="453" type="line"/>
      <point x="445" y="453" type="line"/>
      <point x="450" y="482" type="line"/>
    </contour>
    <contour>
      <point x="259" y="469" type="line"/>
      <point x="197" y="336"/>
      <point x="87" y="177"/>
      <point x="4" y="97" type="curve"/>
      <point x="10" y="92"/>
      <point x="18" y="82"/>
      <point x="21" y="75" type="curve"/>
      <point x="106" y="159"/>
      <point x="217" y="327"/>
      <point x="280" y="461" type="curve"/>
    </contour>
    <contour>
      <point x="267" y="377" type="curve"/>
      <point x="245" y="362" type="line"/>
      <point x="271" y="332"/>
      <point x="343" y="222"/>
      <point x="361" y="184" type="curve"/>
      <point x="390" y="210" type="line"/>
      <point x="372" y="238"/>
      <point x="290" y="352"/>
    </contour>
    <contour>
      <point x="148" y="749" type="line"/>
      <point x="166" y="684"/>
      <point x="176" y="599"/>
      <point x="171" y="543" type="curve"/>
      <point x="201" y="551" type="line"/>
      <point x="205" y="606"/>
      <point x="196" y="691"/>
      <point x="175" y="756" type="curve"/>
    </contour>
    <contour>
      <point x="471" y="763" type="line"/>
      <point x="442" y="698"/>
      <point x="388" y="600"/>
      <point x="352" y="544" type="curve"/>
      <point x="374" y="534" type="line"/>
      <point x="412" y="588"/>
      <point x="463" y="680"/>
      <point x="502" y="750" type="curve"/>
    </contour>
    <contour>
      <point x="557" y="744" type="line"/>
      <point x="551" y="715" type="line"/>
      <point x="952" y="715" type="line"/>
      <point x="958" y="744" type="line"/>
    </contour>
    <contour>
      <point x="440" y="393" type="line"/>
      <point x="435" y="364" type="line"/>
      <point x="960" y="364" type="line"/>
      <point x="965" y="393" type="line"/>
    </contour>
    <contour>
      <point x="718" y="529" type="line"/>
      <point x="614" y="-22" type="line" smooth="yes"/>
      <point x="611" y="-36"/>
      <point x="605" y="-41"/>
      <point x="590" y="-42" type="curve" smooth="yes"/>
      <point x="574" y="-43"/>
      <point x="523" y="-43"/>
      <point x="455" y="-42" type="curve"/>
      <point x="457" y="-51"/>
      <point x="462" y="-63"/>
      <point x="464" y="-70" type="curve"/>
      <point x="542" y="-71"/>
      <point x="582" y="-70"/>
      <point x="604" y="-65" type="curve" smooth="yes"/>
      <point x="628" y="-60"/>
      <point x="639" y="-48"/>
      <point x="644" y="-21" type="curve" smooth="yes"/>
      <point x="748" y="529" type="line"/>
    </contour>
    <contour>
      <point x="949" y="744" type="line"/>
      <point x="947" y="736" type="line"/>
      <point x="891" y="668"/>
      <point x="795" y="581"/>
      <point x="718" y="529" type="curve"/>
      <point x="725" y="524"/>
      <point x="734" y="516"/>
      <point x="737" y="509" type="curve"/>
      <point x="816" y="564"/>
      <point x="917" y="651"/>
      <point x="984" y="731" type="curve"/>
      <point x="963" y="747" type="line"/>
      <point x="956" y="744" type="line"/>
    </contour>
  </outline>
</glyph>
<glyph name="uni7DCA" format="2">
  <advance height="1000" width="1000"/>
  <unicode hex="7DCA"/>
  <outline>
    <contour>
      <point x="609" y="773" type="curve"/>
      <point x="609" y="773"/>
      <point x="604" y="744"/>
      <point x="604" y="744" type="curve"/>
      <point x="604" y="744"/>
      <point x="970" y="744"/>
      <point x="970" y="744" type="curve"/>
      <point x="970" y="744"/>
      <point x="975" y="773"/>
      <point x="975" y="773" type="curve"/>
      <point x="975" y="773"/>
      <point x="609" y="773"/>
    </contour>
    <contour>
      <point x="181" y="678" type="curve"/>
      <point x="181" y="678"/>
      <point x="176" y="649"/>
      <point x="176" y="649" type="curve"/>
      <point x="176" y="649"/>
      <point x="489" y="649"/>
      <point x="489" y="649" type="curve"/>
      <point x="489" y="649"/>
      <point x="471" y="554"/>
      <point x="471" y="554" type="curve"/>
      <point x="471" y="554"/>
      <point x="158" y="554"/>
      <point x="158" y="554" type="curve"/>
      <point x="158" y="554"/>
      <point x="152" y="524"/>
      <point x="152" y="524" type="curve"/>
      <point x="152" y="524"/>
      <point x="494" y="524"/>
      <point x="494" y="524" type="curve"/>
      <point x="494" y="524"/>
      <point x="523" y="678"/>
      <point x="523" y="678" type="curve"/>
      <point x="523" y="678"/>
      <point x="181" y="678"/>
    </contour>
    <contour>
      <point x="366" y="778" type="curve"/>
      <point x="366" y="778"/>
      <point x="344" y="664"/>
      <point x="344" y="664" type="curve"/>
      <point x="344" y="664"/>
      <point x="373" y="664"/>
      <point x="373" y="664" type="curve"/>
      <point x="373" y="664"/>
      <point x="395" y="778"/>
      <point x="395" y="778" type="curve"/>
      <point x="395" y="778"/>
      <point x="366" y="778"/>
    </contour>
    <contour>
      <point x="322" y="540" type="curve"/>
      <point x="322" y="540"/>
      <point x="300" y="425"/>
      <point x="300" y="425" type="curve"/>
      <point x="300" y="425"/>
      <point x="329" y="425"/>
      <point x="329" y="425" type="curve"/>
      <point x="329" y="425"/>
      <point x="351" y="540"/>
      <point x="351" y="540" type="curve"/>
      <point x="351" y="540"/>
      <point x="322" y="540"/>
    </contour>
    <contour>
      <point x="665" y="745" type="curve"/>
      <point x="665" y="745"/>
      <point x="637" y="736"/>
      <point x="637" y="736" type="curve"/>
      <point x="668" y="564"/>
      <point x="775" y="431"/>
      <point x="934" y="374" type="curve"/>
      <point x="940" y="382"/>
      <point x="951" y="393"/>
      <point x="959" y="399" type="curve"/>
      <point x="800" y="450"/>
      <point x="693" y="579"/>
    </contour>
    <contour>
      <point x="964" y="773" type="curve"/>
      <point x="964" y="773"/>
      <point x="963" y="767"/>
      <point x="963" y="767" type="curve"/>
      <point x="872" y="578"/>
      <point x="696" y="454"/>
      <point x="538" y="403" type="curve"/>
      <point x="543" y="397"/>
      <point x="549" y="386"/>
      <point x="552" y="379" type="curve"/>
      <point x="715" y="436"/>
      <point x="894" y="563"/>
      <point x="993" y="767" type="curve"/>
      <point x="993" y="767"/>
      <point x="976" y="775"/>
      <point x="976" y="775" type="curve"/>
      <point x="976" y="775"/>
      <point x="970" y="773"/>
      <point x="970" y="773" type="curve"/>
      <point x="970" y="773"/>
      <point x="964" y="773"/>
    </contour>
    <contour>
      <point x="570" y="786" type="curve"/>
      <point x="570" y="786"/>
      <point x="184" y="786"/>
      <point x="184" y="786" type="curve"/>
      <point x="184" y="786"/>
      <point x="114" y="416"/>
      <point x="114" y="416" type="curve"/>
      <point x="114" y="416"/>
      <point x="507" y="416"/>
      <point x="507" y="416" type="curve"/>
      <point x="507" y="416"/>
      <point x="512" y="445"/>
      <point x="512" y="445" type="curve"/>
      <point x="512" y="445"/>
      <point x="149" y="445"/>
      <point x="149" y="445" type="curve"/>
      <point x="149" y="445"/>
      <point x="208" y="757"/>
      <point x="208" y="757" type="curve"/>
      <point x="208" y="757"/>
      <point x="564" y="757"/>
      <point x="564" y="757" type="curve"/>
      <point x="564" y="757"/>
      <point x="570" y="786"/>
    </contour>
    <contour>
      <point x="277" y="96" type="curve"/>
      <point x="208" y="46"/>
      <point x="107" y="0"/>
      <point x="17" y="-32" type="curve"/>
      <point x="24" y="-37"/>
      <point x="36" y="-47"/>
      <point x="40" y="-52" type="curve"/>
      <point x="126" y="-18"/>
      <point x="229" y="33"/>
      <point x="303" y="85" type="curve"/>
      <point x="303" y="85"/>
      <point x="277" y="96"/>
    </contour>
    <contour>
      <point x="603" y="83" type="curve"/>
      <point x="677" y="47"/>
      <point x="768" y="-11"/>
      <point x="816" y="-48" type="curve"/>
      <point x="816" y="-48"/>
      <point x="843" y="-26"/>
      <point x="843" y="-26" type="curve"/>
      <point x="796" y="10"/>
      <point x="703" y="67"/>
      <point x="630" y="103" type="curve"/>
      <point x="630" y="103"/>
      <point x="603" y="83"/>
    </contour>
    <contour>
      <point x="673" y="260" type="curve"/>
      <point x="734" y="212"/>
      <point x="798" y="139"/>
      <point x="828" y="90" type="curve"/>
      <point x="828" y="90"/>
      <point x="855" y="111"/>
      <point x="855" y="111" type="curve"/>
      <point x="826" y="159"/>
      <point x="759" y="228"/>
      <point x="698" y="278" type="curve"/>
      <point x="698" y="278"/>
      <point x="673" y="260"/>
    </contour>
    <contour>
      <point x="193" y="249" type="curve"/>
      <point x="194" y="256"/>
      <point x="228" y="263"/>
      <point x="228" y="263" type="curve"/>
      <point x="228" y="263"/>
      <point x="228" y="264"/>
      <point x="228" y="264" type="curve"/>
      <point x="311" y="287"/>
      <point x="394" y="325"/>
      <point x="483" y="374" type="curve"/>
      <point x="483" y="374"/>
      <point x="462" y="392"/>
      <point x="462" y="392" type="curve"/>
      <point x="384" y="346"/>
      <point x="285" y="303"/>
      <point x="256" y="293" type="curve" smooth="yes"/>
      <point x="229" y="283"/>
      <point x="207" y="278"/>
      <point x="190" y="278" type="curve"/>
      <point x="190" y="278"/>
      <point x="193" y="249"/>
    </contour>
    <contour>
      <point x="193" y="249" type="curve"/>
      <point x="209" y="251"/>
      <point x="240" y="253"/>
      <point x="531" y="265" type="curve"/>
      <point x="531" y="265"/>
      <point x="533" y="291"/>
      <point x="533" y="291" type="curve"/>
      <point x="533" y="291"/>
      <point x="225" y="280"/>
      <point x="225" y="280" type="curve"/>
      <point x="225" y="280"/>
      <point x="197" y="270"/>
      <point x="197" y="270" type="curve"/>
      <point x="197" y="270"/>
      <point x="193" y="249"/>
    </contour>
    <contour>
      <point x="82" y="117" type="curve"/>
      <point x="83" y="120"/>
      <point x="117" y="125"/>
      <point x="117" y="125" type="curve"/>
      <point x="117" y="125"/>
      <point x="117" y="126"/>
      <point x="117" y="126" type="curve"/>
      <point x="301" y="173"/>
      <point x="484" y="237"/>
      <point x="678" y="330" type="curve"/>
      <point x="678" y="330"/>
      <point x="663" y="352"/>
      <point x="663" y="352" type="curve"/>
      <point x="484" y="266"/>
      <point x="276" y="193"/>
      <point x="213" y="175" type="curve" smooth="yes"/>
      <point x="157" y="157"/>
      <point x="105" y="145"/>
      <point x="78" y="144" type="curve"/>
      <point x="78" y="144"/>
      <point x="82" y="117"/>
    </contour>
    <contour>
      <point x="82" y="117" type="curve"/>
      <point x="108" y="120"/>
      <point x="152" y="123"/>
      <point x="782" y="157" type="curve"/>
      <point x="782" y="157"/>
      <point x="782" y="184"/>
      <point x="782" y="184" type="curve"/>
      <point x="782" y="184"/>
      <point x="119" y="148"/>
      <point x="119" y="148" type="curve"/>
      <point x="119" y="148"/>
      <point x="85" y="133"/>
      <point x="85" y="133" type="curve"/>
      <point x="85" y="133"/>
      <point x="82" y="117"/>
    </contour>
    <contour>
      <point x="466" y="163" type="curve"/>
      <point x="466" y="163"/>
      <point x="431" y="-23"/>
      <point x="431" y="-23" type="curve"/>
      <point x="429" y="-34"/>
      <point x="425" y="-38"/>
      <point x="409" y="-39" type="curve"/>
      <point x="393" y="-41"/>
      <point x="347" y="-41"/>
      <point x="277" y="-39" type="curve"/>
      <point x="280" y="-49"/>
      <point x="284" y="-59"/>
      <point x="285" y="-66" type="curve"/>
      <point x="361" y="-66"/>
      <point x="403" y="-67"/>
      <point x="426" y="-62" type="curve" smooth="yes"/>
      <point x="449" y="-56"/>
      <point x="456" y="-46"/>
      <point x="461" y="-23" type="curve"/>
      <point x="461" y="-23"/>
      <point x="496" y="163"/>
      <point x="496" y="163" type="curve"/>
      <point x="496" y="163"/>
      <point x="466" y="163"/>
    </contour>
  </outline>
</glyph>
<glyph name="uni8014" format="2">
  <advance height="1000" width="1000"/>
  <unicode hex="8014"/>
  <outline>
    <contour>
      <point x="588" y="757" type="line"/>
      <point x="582" y="727" type="line"/>
      <point x="980" y="727" type="line"/>
      <point x="986" y="757" type="line"/>
    </contour>
    <contour>
      <point x="487" y="402" type="line"/>
      <point x="481" y="373" type="line"/>
      <point x="962" y="373" type="line"/>
      <point x="968" y="402" type="line"/>
    </contour>
    <contour>
      <point x="978" y="757" type="line"/>
      <point x="977" y="749" type="line"/>
      <point x="918" y="678"/>
      <point x="816" y="590"/>
      <point x="731" y="538" type="curve"/>
      <point x="737" y="534"/>
      <point x="744" y="526"/>
      <point x="748" y="521" type="curve"/>
      <point x="832" y="574"/>
      <point x="939" y="663"/>
      <point x="1010" y="745" type="curve"/>
      <point x="991" y="759" type="line"/>
      <point x="985" y="757" type="line"/>
    </contour>
    <contour>
      <point x="731" y="538" type="line"/>
      <point x="626" y="-14" type="line" smooth="yes"/>
      <point x="624" y="-28"/>
      <point x="619" y="-32"/>
      <point x="604" y="-33" type="curve" smooth="yes"/>
      <point x="587" y="-34"/>
      <point x="534" y="-34"/>
      <point x="467" y="-33" type="curve"/>
      <point x="470" y="-43"/>
      <point x="473" y="-56"/>
      <point x="474" y="-64" type="curve"/>
      <point x="548" y="-65"/>
      <point x="594" y="-65"/>
      <point x="617" y="-59" type="curve" smooth="yes"/>
      <point x="641" y="-53"/>
      <point x="651" y="-41"/>
      <point x="657" y="-13" type="curve" smooth="yes"/>
      <point x="761" y="538" type="line"/>
    </contour>
    <contour>
      <point x="73" y="398" type="line"/>
      <point x="68" y="369" type="line"/>
      <point x="439" y="369" type="line"/>
      <point x="444" y="398" type="line"/>
    </contour>
    <contour>
      <point x="137" y="564" type="line"/>
      <point x="131" y="534" type="line"/>
      <point x="445" y="534" type="line"/>
      <point x="451" y="564" type="line"/>
    </contour>
    <contour>
      <point x="335" y="830" type="line"/>
      <point x="165" y="-69" type="line"/>
      <point x="195" y="-69" type="line"/>
      <point x="365" y="830" type="line"/>
    </contour>
    <contour>
      <point x="244" y="387" type="line"/>
      <point x="186" y="266"/>
      <point x="78" y="119"/>
      <point x="0" y="47" type="curve"/>
      <point x="6" y="42"/>
      <point x="13" y="32"/>
      <point x="17" y="25" type="curve"/>
      <point x="97" y="101"/>
      <point x="206" y="255"/>
      <point x="267" y="378" type="curve"/>
    </contour>
    <contour>
      <point x="264" y="316" type="curve"/>
      <point x="240" y="297" type="line"/>
      <point x="269" y="269"/>
      <point x="350" y="167"/>
      <point x="373" y="131" type="curve"/>
      <point x="397" y="159" type="line"/>
      <point x="376" y="185"/>
      <point x="288" y="291"/>
    </contour>
    <contour>
      <point x="486" y="774" type="line"/>
      <point x="409" y="742"/>
      <point x="255" y="717"/>
      <point x="133" y="703" type="curve"/>
      <point x="136" y="695"/>
      <point x="139" y="684"/>
      <point x="139" y="677" type="curve"/>
      <point x="263" y="691"/>
      <point x="417" y="716"/>
      <point x="508" y="752" type="curve"/>
    </contour>
  </outline>
</glyph>
<glyph name="uni806F" format="2">
  <advance height="1000" width="1000"/>
  <unicode hex="806F"/>
  <outline>
    <contour>
      <point x="606" y="519" type="curve"/>
      <point x="616" y="466"/>
      <point x="626" y="408"/>
      <point x="629" y="367" type="curve"/>
      <point x="629" y="367"/>
      <point x="659" y="379"/>
      <point x="659" y="379" type="curve"/>
      <point x="656" y="417"/>
      <point x="645" y="473"/>
      <point x="633" y="525" type="curve"/>
      <point x="633" y="525"/>
      <point x="606" y="519"/>
    </contour>
    <contour>
      <point x="438" y="580" type="curve"/>
      <point x="439" y="586"/>
      <point x="471" y="596"/>
      <point x="471" y="596" type="curve"/>
      <point x="471" y="596"/>
      <point x="471" y="597"/>
      <point x="471" y="597" type="curve"/>
      <point x="527" y="652"/>
      <point x="589" y="732"/>
      <point x="644" y="815" type="curve"/>
      <point x="644" y="815"/>
      <point x="617" y="828"/>
      <point x="617" y="828" type="curve"/>
      <point x="572" y="749"/>
      <point x="498" y="664"/>
      <point x="480" y="643" type="curve" smooth="yes"/>
      <point x="461" y="622"/>
      <point x="446" y="609"/>
      <point x="433" y="608" type="curve"/>
      <point x="433" y="608"/>
      <point x="438" y="580"/>
    </contour>
    <contour>
      <point x="438" y="580" type="curve"/>
      <point x="450" y="582"/>
      <point x="472" y="584"/>
      <point x="598" y="591" type="curve"/>
      <point x="598" y="591"/>
      <point x="618" y="620"/>
      <point x="618" y="620" type="curve"/>
      <point x="618" y="620"/>
      <point x="469" y="614"/>
      <point x="469" y="614" type="curve"/>
      <point x="469" y="614"/>
      <point x="442" y="603"/>
      <point x="442" y="603" type="curve"/>
      <point x="442" y="603"/>
      <point x="438" y="580"/>
    </contour>
    <contour>
      <point x="401" y="387" type="curve"/>
      <point x="402" y="394"/>
      <point x="432" y="404"/>
      <point x="432" y="404" type="curve"/>
      <point x="432" y="404"/>
      <point x="433" y="405"/>
      <point x="433" y="405" type="curve"/>
      <point x="517" y="479"/>
      <point x="605" y="584"/>
      <point x="685" y="690" type="curve"/>
      <point x="685" y="690"/>
      <point x="660" y="705"/>
      <point x="660" y="705" type="curve"/>
      <point x="590" y="603"/>
      <point x="491" y="494"/>
      <point x="463" y="468" type="curve"/>
      <point x="435" y="439"/>
      <point x="411" y="419"/>
      <point x="396" y="417" type="curve"/>
      <point x="396" y="417"/>
      <point x="401" y="387"/>
    </contour>
    <contour>
      <point x="401" y="387" type="curve"/>
      <point x="414" y="390"/>
      <point x="440" y="393"/>
      <point x="641" y="415" type="curve"/>
      <point x="641" y="415"/>
      <point x="639" y="443"/>
      <point x="639" y="443" type="curve"/>
      <point x="639" y="443"/>
      <point x="432" y="425"/>
      <point x="432" y="425" type="curve"/>
      <point x="432" y="425"/>
      <point x="406" y="411"/>
      <point x="406" y="411" type="curve"/>
      <point x="406" y="411"/>
      <point x="401" y="387"/>
    </contour>
    <contour>
      <point x="890" y="533" type="curve"/>
      <point x="905" y="477"/>
      <point x="920" y="404"/>
      <point x="925" y="361" type="curve"/>
      <point x="925" y="361"/>
      <point x="954" y="373"/>
      <point x="954" y="373" type="curve"/>
      <point x="948" y="414"/>
      <point x="933" y="485"/>
      <point x="916" y="540" type="curve"/>
      <point x="916" y="540"/>
      <point x="890" y="533"/>
    </contour>
    <contour>
      <point x="724" y="583" type="curve"/>
      <point x="726" y="590"/>
      <point x="757" y="601"/>
      <point x="757" y="601" type="curve"/>
      <point x="757" y="601"/>
      <point x="757" y="602"/>
      <point x="757" y="602" type="curve"/>
      <point x="812" y="655"/>
      <point x="874" y="734"/>
      <point x="927" y="815" type="curve"/>
      <point x="927" y="815"/>
      <point x="899" y="827"/>
      <point x="899" y="827" type="curve"/>
      <point x="855" y="751"/>
      <point x="784" y="668"/>
      <point x="763" y="647" type="curve"/>
      <point x="747" y="627"/>
      <point x="732" y="615"/>
      <point x="719" y="613" type="curve"/>
      <point x="719" y="613"/>
      <point x="724" y="583"/>
    </contour>
    <contour>
      <point x="724" y="583" type="curve"/>
      <point x="736" y="585"/>
      <point x="757" y="587"/>
      <point x="872" y="595" type="curve"/>
      <point x="872" y="595"/>
      <point x="894" y="623"/>
      <point x="894" y="623" type="curve"/>
      <point x="894" y="623"/>
      <point x="755" y="618"/>
      <point x="755" y="618" type="curve"/>
      <point x="755" y="618"/>
      <point x="729" y="607"/>
      <point x="729" y="607" type="curve"/>
      <point x="729" y="607"/>
      <point x="724" y="583"/>
    </contour>
    <contour>
      <point x="689" y="396" type="curve"/>
      <point x="690" y="403"/>
      <point x="722" y="414"/>
      <point x="722" y="414" type="curve"/>
      <point x="722" y="414"/>
      <point x="722" y="415"/>
      <point x="722" y="415" type="curve"/>
      <point x="802" y="485"/>
      <point x="886" y="586"/>
      <point x="960" y="688" type="curve"/>
      <point x="960" y="688"/>
      <point x="934" y="704"/>
      <point x="934" y="704" type="curve"/>
      <point x="871" y="606"/>
      <point x="774" y="502"/>
      <point x="747" y="475" type="curve" smooth="yes"/>
      <point x="720" y="447"/>
      <point x="699" y="428"/>
      <point x="684" y="426" type="curve"/>
      <point x="684" y="426"/>
      <point x="689" y="396"/>
    </contour>
    <contour>
      <point x="689" y="396" type="curve"/>
      <point x="703" y="399"/>
      <point x="730" y="402"/>
      <point x="931" y="421" type="curve"/>
      <point x="931" y="421"/>
      <point x="931" y="448"/>
      <point x="931" y="448" type="curve"/>
      <point x="931" y="448"/>
      <point x="721" y="432"/>
      <point x="721" y="432" type="curve"/>
      <point x="721" y="432"/>
      <point x="693" y="420"/>
      <point x="693" y="420" type="curve"/>
      <point x="693" y="420"/>
      <point x="689" y="396"/>
    </contour>
    <contour>
      <point x="139" y="783" type="curve"/>
      <point x="139" y="783"/>
      <point x="134" y="754"/>
      <point x="134" y="754" type="curve"/>
      <point x="134" y="754"/>
      <point x="470" y="754"/>
      <point x="470" y="754" type="curve"/>
      <point x="470" y="754"/>
      <point x="475" y="783"/>
      <point x="475" y="783" type="curve"/>
      <point x="475" y="783"/>
      <point x="139" y="783"/>
    </contour>
    <contour>
      <point x="175" y="577" type="curve"/>
      <point x="175" y="577"/>
      <point x="170" y="548"/>
      <point x="170" y="548" type="curve"/>
      <point x="170" y="548"/>
      <point x="356" y="548"/>
      <point x="356" y="548" type="curve"/>
      <point x="356" y="548"/>
      <point x="361" y="577"/>
      <point x="361" y="577" type="curve"/>
      <point x="361" y="577"/>
      <point x="175" y="577"/>
    </contour>
    <contour>
      <point x="399" y="151" type="curve"/>
      <point x="399" y="151"/>
      <point x="393" y="122"/>
      <point x="393" y="122" type="curve"/>
      <point x="393" y="122"/>
      <point x="544" y="122"/>
      <point x="544" y="122" type="curve"/>
      <point x="544" y="122"/>
      <point x="550" y="151"/>
      <point x="550" y="151" type="curve"/>
      <point x="550" y="151"/>
      <point x="399" y="151"/>
    </contour>
    <contour>
      <point x="699" y="151" type="curve"/>
      <point x="699" y="151"/>
      <point x="693" y="122"/>
      <point x="693" y="122" type="curve"/>
      <point x="693" y="122"/>
      <point x="857" y="122"/>
      <point x="857" y="122" type="curve"/>
      <point x="857" y="122"/>
      <point x="863" y="151"/>
      <point x="863" y="151" type="curve"/>
      <point x="863" y="151"/>
      <point x="699" y="151"/>
    </contour>
    <contour>
      <point x="136" y="368" type="curve"/>
      <point x="136" y="368"/>
      <point x="130" y="338"/>
      <point x="130" y="338" type="curve"/>
      <point x="130" y="338"/>
      <point x="316" y="338"/>
      <point x="316" y="338" type="curve"/>
      <point x="316" y="338"/>
      <point x="322" y="368"/>
      <point x="322" y="368" type="curve"/>
      <point x="322" y="368"/>
      <point x="136" y="368"/>
    </contour>
    <contour>
      <point x="197" y="772" type="curve"/>
      <point x="197" y="772"/>
      <point x="74" y="120"/>
      <point x="74" y="120" type="curve"/>
      <point x="74" y="120"/>
      <point x="103" y="120"/>
      <point x="103" y="120" type="curve"/>
      <point x="103" y="120"/>
      <point x="226" y="772"/>
      <point x="226" y="772" type="curve"/>
      <point x="226" y="772"/>
      <point x="197" y="772"/>
    </contour>
    <contour>
      <point x="380" y="772" type="curve"/>
      <point x="380" y="772"/>
      <point x="221" y="-70"/>
      <point x="221" y="-70" type="curve"/>
      <point x="221" y="-70"/>
      <point x="251" y="-70"/>
      <point x="251" y="-70" type="curve"/>
      <point x="251" y="-70"/>
      <point x="410" y="772"/>
      <point x="410" y="772" type="curve"/>
      <point x="410" y="772"/>
      <point x="380" y="772"/>
    </contour>
    <contour>
      <point x="726" y="371" type="curve"/>
      <point x="726" y="371"/>
      <point x="643" y="-70"/>
      <point x="643" y="-70" type="curve"/>
      <point x="643" y="-70"/>
      <point x="672" y="-70"/>
      <point x="672" y="-70" type="curve"/>
      <point x="672" y="-70"/>
      <point x="755" y="371"/>
      <point x="755" y="371" type="curve"/>
      <point x="755" y="371"/>
      <point x="726" y="371"/>
    </contour>
    <contour>
      <point x="418" y="327" type="curve"/>
      <point x="418" y="327"/>
      <point x="379" y="122"/>
      <point x="379" y="122" type="curve"/>
      <point x="379" y="122"/>
      <point x="408" y="122"/>
      <point x="408" y="122" type="curve"/>
      <point x="408" y="122"/>
      <point x="447" y="327"/>
      <point x="447" y="327" type="curve"/>
      <point x="447" y="327"/>
      <point x="418" y="327"/>
    </contour>
    <contour>
      <point x="882" y="327" type="curve"/>
      <point x="882" y="327"/>
      <point x="843" y="122"/>
      <point x="843" y="122" type="curve"/>
      <point x="843" y="122"/>
      <point x="873" y="122"/>
      <point x="873" y="122" type="curve"/>
      <point x="873" y="122"/>
      <point x="912" y="327"/>
      <point x="912" y="327" type="curve"/>
      <point x="912" y="327"/>
      <point x="882" y="327"/>
    </contour>
    <contour>
      <point x="8" y="118" type="curve"/>
      <point x="8" y="118"/>
      <point x="10" y="88"/>
      <point x="10" y="88" type="curve"/>
      <point x="86" y="105"/>
      <point x="183" y="127"/>
      <point x="281" y="148" type="curve"/>
      <point x="281" y="148"/>
      <point x="284" y="177"/>
      <point x="284" y="177" type="curve"/>
      <point x="180" y="153"/>
      <point x="79" y="131"/>
    </contour>
    <contour>
      <point x="582" y="369" type="curve"/>
      <point x="582" y="369"/>
      <point x="555" y="226"/>
      <point x="555" y="226" type="curve"/>
      <point x="536" y="128"/>
      <point x="502" y="28"/>
      <point x="353" y="-49" type="curve"/>
      <point x="358" y="-54"/>
      <point x="366" y="-64"/>
      <point x="369" y="-70" type="curve"/>
      <point x="525" y="10"/>
      <point x="563" y="116"/>
      <point x="584" y="226" type="curve"/>
      <point x="584" y="226"/>
      <point x="611" y="369"/>
      <point x="611" y="369" type="curve"/>
      <point x="611" y="369"/>
      <point x="582" y="369"/>
    </contour>
  </outline>
</glyph>
<glyph name="uni896F" format="2">
  <advance height="1000" width="1000"/>
  <unicode hex="896F"/>
  <outline>
    <contour>
      <point x="730" y="585" type="line"/>
      <point x="931" y="585" type="line"/>
      <point x="904" y="447" type="line"/>
      <point x="703" y="447" type="line"/>
    </contour>
    <contour>
      <point x="698" y="418" type="line"/>
      <point x="899" y="418" type="line"/>
      <point x="873" y="278" type="line"/>
      <point x="672" y="278" type="line"/>
    </contour>
    <contour>
      <point x="761" y="752" type="line"/>
      <point x="962" y="752" type="line"/>
      <point x="936" y="615" type="line"/>
      <point x="735" y="615" type="line"/>
    </contour>
    <contour>
      <point x="738" y="781" type="line"/>
      <point x="637" y="248" type="line"/>
      <point x="897" y="248" type="line"/>
      <point x="998" y="781" type="line"/>
    </contour>
    <contour>
      <point x="701" y="257" type="line"/>
      <point x="665" y="102"/>
      <point x="621" y="4"/>
      <point x="509" y="-50" type="curve"/>
      <point x="515" y="-55"/>
      <point x="524" y="-65"/>
      <point x="526" y="-72" type="curve"/>
      <point x="645" y="-12"/>
      <point x="691" y="91"/>
      <point x="730" y="257" type="curve"/>
    </contour>
    <contour>
      <point x="389" y="702" type="line"/>
      <point x="383" y="672" type="line"/>
      <point x="675" y="672" type="line"/>
      <point x="681" y="702" type="line"/>
    </contour>
    <contour>
      <point x="353" y="468" type="line"/>
      <point x="348" y="438" type="line"/>
      <point x="622" y="438" type="line"/>
      <point x="627" y="468" type="line"/>
    </contour>
    <contour>
      <point x="307" y="322" type="line"/>
      <point x="301" y="292" type="line"/>
      <point x="606" y="292" type="line"/>
      <point x="612" y="322" type="line"/>
    </contour>
    <contour>
      <point x="406" y="645" type="line"/>
      <point x="421" y="596"/>
      <point x="433" y="532"/>
      <point x="435" y="490" type="curve"/>
      <point x="463" y="499" type="line"/>
      <point x="462" y="540"/>
      <point x="448" y="604"/>
      <point x="433" y="652" type="curve"/>
    </contour>
    <contour>
      <point x="606" y="654" type="line"/>
      <point x="577" y="596"/>
      <point x="523" y="508"/>
      <point x="486" y="456" type="curve"/>
      <point x="508" y="447" type="line"/>
      <point x="547" y="499"/>
      <point x="594" y="579"/>
      <point x="633" y="644" type="curve"/>
    </contour>
    <contour>
      <point x="806" y="258" type="line"/>
      <point x="757" y="0" type="line" smooth="yes"/>
      <point x="751" y="-31"/>
      <point x="751" y="-43"/>
      <point x="758" y="-52" type="curve"/>
      <point x="767" y="-60"/>
      <point x="781" y="-61"/>
      <point x="794" y="-61" type="curve" smooth="yes"/>
      <point x="799" y="-61"/>
      <point x="821" y="-61"/>
      <point x="829" y="-61" type="curve" smooth="yes"/>
      <point x="840" y="-61"/>
      <point x="853" y="-60"/>
      <point x="861" y="-56" type="curve"/>
      <point x="871" y="-52"/>
      <point x="881" y="-45"/>
      <point x="888" y="-33" type="curve"/>
      <point x="893" y="-22"/>
      <point x="903" y="14"/>
      <point x="909" y="46" type="curve"/>
      <point x="899" y="49"/>
      <point x="889" y="56"/>
      <point x="883" y="62" type="curve"/>
      <point x="876" y="29"/>
      <point x="869" y="0"/>
      <point x="865" y="-12" type="curve"/>
      <point x="861" y="-20"/>
      <point x="855" y="-25"/>
      <point x="852" y="-28" type="curve"/>
      <point x="848" y="-31"/>
      <point x="838" y="-31"/>
      <point x="829" y="-31" type="curve" smooth="yes"/>
      <point x="821" y="-31"/>
      <point x="809" y="-31"/>
      <point x="802" y="-31" type="curve" smooth="yes"/>
      <point x="795" y="-31"/>
      <point x="789" y="-30"/>
      <point x="787" y="-27" type="curve"/>
      <point x="782" y="-24"/>
      <point x="783" y="-18"/>
      <point x="784" y="-13" type="curve" smooth="yes"/>
      <point x="835" y="258" type="line"/>
    </contour>
    <contour>
      <point x="498" y="818" type="line"/>
      <point x="511" y="785"/>
      <point x="525" y="740"/>
      <point x="529" y="711" type="curve"/>
      <point x="560" y="724" type="line"/>
      <point x="555" y="752"/>
      <point x="540" y="796"/>
      <point x="526" y="829" type="curve"/>
    </contour>
    <contour>
      <point x="440" y="278" type="line"/>
      <point x="483" y="217"/>
      <point x="535" y="132"/>
      <point x="557" y="81" type="curve"/>
      <point x="584" y="97" type="line"/>
      <point x="562" y="148"/>
      <point x="509" y="230"/>
      <point x="465" y="292" type="curve"/>
    </contour>
    <contour>
      <point x="426" y="308" type="line"/>
      <point x="368" y="210"/>
      <point x="289" y="115"/>
      <point x="206" y="49" type="curve"/>
      <point x="215" y="45"/>
      <point x="227" y="38"/>
      <point x="231" y="34" type="curve"/>
      <point x="309" y="100"/>
      <point x="392" y="199"/>
      <point x="454" y="301" type="curve"/>
    </contour>
    <contour>
      <point x="472" y="458" type="line"/>
      <point x="372" y="-67" type="line"/>
      <point x="402" y="-67" type="line"/>
      <point x="502" y="458" type="line"/>
    </contour>
    <contour>
      <point x="155" y="381" type="line"/>
      <point x="69" y="-72" type="line"/>
      <point x="99" y="-72" type="line"/>
      <point x="192" y="416" type="line"/>
    </contour>
    <contour>
      <point x="118" y="663" type="line"/>
      <point x="113" y="633" type="line"/>
      <point x="326" y="633" type="line"/>
      <point x="331" y="663" type="line"/>
    </contour>
    <contour>
      <point x="188" y="407" type="curve"/>
      <point x="166" y="393" type="line"/>
      <point x="186" y="364"/>
      <point x="239" y="258"/>
      <point x="254" y="222" type="curve"/>
      <point x="279" y="241" type="line"/>
      <point x="266" y="269"/>
      <point x="204" y="381"/>
    </contour>
    <contour>
      <point x="318" y="663" type="line"/>
      <point x="316" y="653" type="line"/>
      <point x="245" y="496"/>
      <point x="116" y="327"/>
      <point x="9" y="229" type="curve"/>
      <point x="17" y="226"/>
      <point x="25" y="217"/>
      <point x="29" y="210" type="curve"/>
      <point x="137" y="313"/>
      <point x="267" y="482"/>
      <point x="348" y="655" type="curve"/>
      <point x="332" y="665" type="line"/>
      <point x="325" y="663" type="line"/>
    </contour>
    <contour>
      <point x="314" y="454" type="line"/>
      <point x="289" y="420"/>
      <point x="242" y="367"/>
      <point x="211" y="335" type="curve"/>
      <point x="228" y="322" type="line"/>
      <point x="260" y="352"/>
      <point x="301" y="397"/>
      <point x="334" y="438" type="curve"/>
    </contour>
    <contour>
      <point x="233" y="827" type="line"/>
      <point x="245" y="783"/>
      <point x="257" y="725"/>
      <point x="260" y="688" type="curve"/>
      <point x="290" y="698" type="line"/>
      <point x="286" y="734"/>
      <point x="272" y="791"/>
      <point x="261" y="834" type="curve"/>
    </contour>
  </outline>
</glyph>
<glyph name="uni9181" format="2">
  <advance height="1000" width="1000"/>
  <unicode hex="9181"/>
  <outline>
    <contour>
      <point x="148" y="603" type="curve"/>
      <point x="148" y="603"/>
      <point x="22" y="-65"/>
      <point x="22" y="-65" type="curve"/>
      <point x="22" y="-65"/>
      <point x="52" y="-65"/>
      <point x="52" y="-65" type="curve"/>
      <point x="52" y="-65"/>
      <point x="172" y="573"/>
      <point x="172" y="573" type="curve"/>
      <point x="172" y="573"/>
      <point x="446" y="573"/>
      <point x="446" y="573" type="curve"/>
      <point x="446" y="573"/>
      <point x="328" y="-53"/>
      <point x="328" y="-53" type="curve"/>
      <point x="328" y="-53"/>
      <point x="357" y="-53"/>
      <point x="357" y="-53" type="curve"/>
      <point x="357" y="-53"/>
      <point x="481" y="603"/>
      <point x="481" y="603" type="curve"/>
      <point x="481" y="603"/>
      <point x="148" y="603"/>
    </contour>
    <contour>
      <point x="142" y="208" type="curve"/>
      <point x="142" y="208"/>
      <point x="137" y="179"/>
      <point x="137" y="179" type="curve"/>
      <point x="137" y="179"/>
      <point x="336" y="179"/>
      <point x="336" y="179" type="curve"/>
      <point x="336" y="179"/>
      <point x="341" y="208"/>
      <point x="341" y="208" type="curve"/>
      <point x="341" y="208"/>
      <point x="142" y="208"/>
    </contour>
    <contour>
      <point x="49" y="39" type="curve"/>
      <point x="49" y="39"/>
      <point x="44" y="10"/>
      <point x="44" y="10" type="curve"/>
      <point x="44" y="10"/>
      <point x="360" y="10"/>
      <point x="360" y="10" type="curve"/>
      <point x="360" y="10"/>
      <point x="365" y="39"/>
      <point x="365" y="39" type="curve"/>
      <point x="365" y="39"/>
      <point x="49" y="39"/>
    </contour>
    <contour>
      <point x="153" y="781" type="curve"/>
      <point x="153" y="781"/>
      <point x="147" y="752"/>
      <point x="147" y="752" type="curve"/>
      <point x="147" y="752"/>
      <point x="522" y="752"/>
      <point x="522" y="752" type="curve"/>
      <point x="522" y="752"/>
      <point x="528" y="781"/>
      <point x="528" y="781" type="curve"/>
      <point x="528" y="781"/>
      <point x="153" y="781"/>
    </contour>
    <contour>
      <point x="276" y="772" type="curve"/>
      <point x="276" y="772"/>
      <point x="239" y="578"/>
      <point x="239" y="578" type="curve"/>
      <point x="239" y="578"/>
      <point x="269" y="578"/>
      <point x="269" y="578" type="curve"/>
      <point x="269" y="578"/>
      <point x="306" y="772"/>
      <point x="306" y="772" type="curve"/>
      <point x="306" y="772"/>
      <point x="276" y="772"/>
    </contour>
    <contour>
      <point x="368" y="770" type="curve"/>
      <point x="368" y="770"/>
      <point x="331" y="576"/>
      <point x="331" y="576" type="curve"/>
      <point x="331" y="576"/>
      <point x="361" y="576"/>
      <point x="361" y="576" type="curve"/>
      <point x="361" y="576"/>
      <point x="398" y="770"/>
      <point x="398" y="770" type="curve"/>
      <point x="398" y="770"/>
      <point x="368" y="770"/>
    </contour>
    <contour>
      <point x="239" y="579" type="curve"/>
      <point x="239" y="579"/>
      <point x="221" y="484"/>
      <point x="221" y="484" type="curve"/>
      <point x="210" y="425"/>
      <point x="185" y="351"/>
      <point x="112" y="292" type="curve"/>
      <point x="118" y="288"/>
      <point x="127" y="279"/>
      <point x="131" y="273" type="curve"/>
      <point x="208" y="334"/>
      <point x="240" y="421"/>
      <point x="251" y="484" type="curve"/>
      <point x="251" y="484"/>
      <point x="269" y="579"/>
      <point x="269" y="579" type="curve"/>
      <point x="269" y="579"/>
      <point x="239" y="579"/>
    </contour>
    <contour>
      <point x="331" y="579" type="curve"/>
      <point x="331" y="579"/>
      <point x="294" y="383"/>
      <point x="294" y="383" type="curve"/>
      <point x="287" y="345"/>
      <point x="297" y="340"/>
      <point x="333" y="340" type="curve" smooth="yes"/>
      <point x="339" y="340"/>
      <point x="387" y="340"/>
      <point x="393" y="340" type="curve" smooth="yes"/>
      <point x="418" y="340"/>
      <point x="431" y="348"/>
      <point x="435" y="361" type="curve"/>
      <point x="427" y="364"/>
      <point x="416" y="366"/>
      <point x="410" y="372" type="curve"/>
      <point x="408" y="370"/>
      <point x="405" y="370"/>
      <point x="393" y="370" type="curve" smooth="yes"/>
      <point x="384" y="370"/>
      <point x="346" y="370"/>
      <point x="339" y="370" type="curve" smooth="yes"/>
      <point x="324" y="370"/>
      <point x="322" y="372"/>
      <point x="324" y="383" type="curve"/>
      <point x="324" y="383"/>
      <point x="361" y="579"/>
      <point x="361" y="579" type="curve"/>
      <point x="361" y="579"/>
      <point x="331" y="579"/>
    </contour>
    <contour>
      <point x="480" y="478" type="curve"/>
      <point x="480" y="478"/>
      <point x="475" y="449"/>
      <point x="475" y="449" type="curve"/>
      <point x="475" y="449"/>
      <point x="979" y="449"/>
      <point x="979" y="449" type="curve"/>
      <point x="979" y="449"/>
      <point x="984" y="478"/>
      <point x="984" y="478" type="curve"/>
      <point x="984" y="478"/>
      <point x="480" y="478"/>
    </contour>
    <contour>
      <point x="706" y="456" type="curve"/>
      <point x="706" y="456"/>
      <point x="616" y="-19"/>
      <point x="616" y="-19" type="curve"/>
      <point x="614" y="-31"/>
      <point x="611" y="-34"/>
      <point x="598" y="-35" type="curve" smooth="yes"/>
      <point x="585" y="-36"/>
      <point x="545" y="-36"/>
      <point x="494" y="-34" type="curve"/>
      <point x="497" y="-44"/>
      <point x="499" y="-56"/>
      <point x="500" y="-65" type="curve"/>
      <point x="559" y="-65"/>
      <point x="595" y="-65"/>
      <point x="614" y="-59" type="curve" smooth="yes"/>
      <point x="634" y="-53"/>
      <point x="642" y="-43"/>
      <point x="647" y="-18" type="curve"/>
      <point x="647" y="-18"/>
      <point x="736" y="456"/>
      <point x="736" y="456" type="curve"/>
      <point x="736" y="456"/>
      <point x="706" y="456"/>
    </contour>
    <contour>
      <point x="644" y="732" type="curve"/>
      <point x="644" y="732"/>
      <point x="639" y="703"/>
      <point x="639" y="703" type="curve"/>
      <point x="639" y="703"/>
      <point x="935" y="703"/>
      <point x="935" y="703" type="curve"/>
      <point x="935" y="703"/>
      <point x="940" y="732"/>
      <point x="940" y="732" type="curve"/>
      <point x="940" y="732"/>
      <point x="644" y="732"/>
    </contour>
    <contour>
      <point x="574" y="582" type="curve"/>
      <point x="574" y="582"/>
      <point x="569" y="553"/>
      <point x="569" y="553" type="curve"/>
      <point x="569" y="553"/>
      <point x="869" y="553"/>
      <point x="869" y="553" type="curve"/>
      <point x="869" y="553"/>
      <point x="874" y="582"/>
      <point x="874" y="582" type="curve"/>
      <point x="874" y="582"/>
      <point x="574" y="582"/>
    </contour>
    <contour>
      <point x="676" y="825" type="curve"/>
      <point x="641" y="741"/>
      <point x="589" y="623"/>
      <point x="552" y="553" type="curve"/>
      <point x="552" y="553"/>
      <point x="584" y="553"/>
      <point x="584" y="553" type="curve"/>
      <point x="618" y="621"/>
      <point x="670" y="734"/>
      <point x="706" y="821" type="curve"/>
      <point x="706" y="821"/>
      <point x="676" y="825"/>
    </contour>
    <contour>
      <point x="926" y="732" type="curve"/>
      <point x="926" y="732"/>
      <point x="925" y="726"/>
      <point x="925" y="726" type="curve"/>
      <point x="900" y="667"/>
      <point x="847" y="545"/>
      <point x="806" y="464" type="curve"/>
      <point x="806" y="464"/>
      <point x="834" y="459"/>
      <point x="834" y="459" type="curve"/>
      <point x="874" y="541"/>
      <point x="926" y="655"/>
      <point x="956" y="729" type="curve"/>
      <point x="956" y="729"/>
      <point x="937" y="735"/>
      <point x="937" y="735" type="curve"/>
      <point x="937" y="735"/>
      <point x="930" y="732"/>
      <point x="930" y="732" type="curve"/>
      <point x="930" y="732"/>
      <point x="926" y="732"/>
    </contour>
    <contour>
      <point x="904" y="382" type="curve"/>
      <point x="866" y="342"/>
      <point x="796" y="282"/>
      <point x="749" y="247" type="curve"/>
      <point x="749" y="247"/>
      <point x="765" y="230"/>
      <point x="765" y="230" type="curve"/>
      <point x="814" y="266"/>
      <point x="878" y="318"/>
      <point x="926" y="365" type="curve"/>
      <point x="926" y="365"/>
      <point x="904" y="382"/>
    </contour>
    <contour>
      <point x="482" y="356" type="curve"/>
      <point x="521" y="317"/>
      <point x="565" y="262"/>
      <point x="586" y="227" type="curve"/>
      <point x="586" y="227"/>
      <point x="610" y="246"/>
      <point x="610" y="246" type="curve"/>
      <point x="590" y="279"/>
      <point x="544" y="333"/>
      <point x="506" y="371" type="curve"/>
      <point x="506" y="371"/>
      <point x="482" y="356"/>
    </contour>
    <contour>
      <point x="380" y="27" type="curve"/>
      <point x="380" y="27"/>
      <point x="398" y="5"/>
      <point x="398" y="5" type="curve"/>
      <point x="461" y="52"/>
      <point x="536" y="111"/>
      <point x="609" y="168" type="curve"/>
      <point x="609" y="168"/>
      <point x="600" y="191"/>
      <point x="600" y="191" type="curve"/>
      <point x="519" y="128"/>
      <point x="434" y="65"/>
    </contour>
    <contour>
      <point x="720" y="174" type="curve"/>
      <point x="779" y="123"/>
      <point x="845" y="48"/>
      <point x="876" y="1" type="curve"/>
      <point x="876" y="1"/>
      <point x="901" y="24"/>
      <point x="901" y="24" type="curve"/>
      <point x="870" y="70"/>
      <point x="802" y="142"/>
      <point x="743" y="192" type="curve"/>
      <point x="743" y="192"/>
      <point x="720" y="174"/>
    </contour>
  </outline>
</glyph>
<glyph name="uni919A" format="2">
  <advance height="1000" width="1000"/>
  <unicode hex="919A"/>
  <outline>
    <contour>
      <point x="127" y="593" type="curve"/>
      <point x="127" y="593"/>
      <point x="2" y="-67"/>
      <point x="2" y="-67" type="curve"/>
      <point x="2" y="-67"/>
      <point x="31" y="-67"/>
      <point x="31" y="-67" type="curve"/>
      <point x="31" y="-67"/>
      <point x="151" y="564"/>
      <point x="151" y="564" type="curve"/>
      <point x="151" y="564"/>
      <point x="387" y="564"/>
      <point x="387" y="564" type="curve"/>
      <point x="387" y="564"/>
      <point x="270" y="-54"/>
      <point x="270" y="-54" type="curve"/>
      <point x="270" y="-54"/>
      <point x="299" y="-54"/>
      <point x="299" y="-54" type="curve"/>
      <point x="299" y="-54"/>
      <point x="421" y="593"/>
      <point x="421" y="593" type="curve"/>
      <point x="421" y="593"/>
      <point x="127" y="593"/>
    </contour>
    <contour>
      <point x="104" y="208" type="curve"/>
      <point x="104" y="208"/>
      <point x="99" y="179"/>
      <point x="99" y="179" type="curve"/>
      <point x="99" y="179"/>
      <point x="295" y="179"/>
      <point x="295" y="179" type="curve"/>
      <point x="295" y="179"/>
      <point x="300" y="208"/>
      <point x="300" y="208" type="curve"/>
      <point x="300" y="208"/>
      <point x="104" y="208"/>
    </contour>
    <contour>
      <point x="32" y="39" type="curve"/>
      <point x="32" y="39"/>
      <point x="27" y="10"/>
      <point x="27" y="10" type="curve"/>
      <point x="27" y="10"/>
      <point x="295" y="10"/>
      <point x="295" y="10" type="curve"/>
      <point x="295" y="10"/>
      <point x="300" y="39"/>
      <point x="300" y="39" type="curve"/>
      <point x="300" y="39"/>
      <point x="32" y="39"/>
    </contour>
    <contour>
      <point x="137" y="783" type="curve"/>
      <point x="137" y="783"/>
      <point x="132" y="754"/>
      <point x="132" y="754" type="curve"/>
      <point x="132" y="754"/>
      <point x="475" y="754"/>
      <point x="475" y="754" type="curve"/>
      <point x="475" y="754"/>
      <point x="480" y="783"/>
      <point x="480" y="783" type="curve"/>
      <point x="480" y="783"/>
      <point x="137" y="783"/>
    </contour>
    <contour>
      <point x="253" y="772" type="curve"/>
      <point x="253" y="772"/>
      <point x="215" y="573"/>
      <point x="215" y="573" type="curve"/>
      <point x="215" y="573"/>
      <point x="244" y="573"/>
      <point x="244" y="573" type="curve"/>
      <point x="244" y="573"/>
      <point x="282" y="772"/>
      <point x="282" y="772" type="curve"/>
      <point x="282" y="772"/>
      <point x="253" y="772"/>
    </contour>
    <contour>
      <point x="334" y="772" type="curve"/>
      <point x="334" y="772"/>
      <point x="296" y="573"/>
      <point x="296" y="573" type="curve"/>
      <point x="296" y="573"/>
      <point x="325" y="573"/>
      <point x="325" y="573" type="curve"/>
      <point x="325" y="573"/>
      <point x="363" y="772"/>
      <point x="363" y="772" type="curve"/>
      <point x="363" y="772"/>
      <point x="334" y="772"/>
    </contour>
    <contour>
      <point x="215" y="572" type="curve"/>
      <point x="215" y="572"/>
      <point x="200" y="491"/>
      <point x="200" y="491" type="curve"/>
      <point x="189" y="433"/>
      <point x="161" y="357"/>
      <point x="85" y="297" type="curve"/>
      <point x="93" y="294"/>
      <point x="102" y="286"/>
      <point x="106" y="279" type="curve"/>
      <point x="184" y="341"/>
      <point x="217" y="428"/>
      <point x="229" y="491" type="curve"/>
      <point x="229" y="491"/>
      <point x="244" y="572"/>
      <point x="244" y="572" type="curve"/>
      <point x="244" y="572"/>
      <point x="215" y="572"/>
    </contour>
    <contour>
      <point x="296" y="572" type="curve"/>
      <point x="296" y="572"/>
      <point x="260" y="383"/>
      <point x="260" y="383" type="curve"/>
      <point x="253" y="346"/>
      <point x="263" y="341"/>
      <point x="295" y="341" type="curve" smooth="yes"/>
      <point x="299" y="341"/>
      <point x="330" y="341"/>
      <point x="335" y="341" type="curve" smooth="yes"/>
      <point x="358" y="341"/>
      <point x="370" y="349"/>
      <point x="375" y="362" type="curve"/>
      <point x="367" y="364"/>
      <point x="356" y="367"/>
      <point x="350" y="373" type="curve"/>
      <point x="348" y="371"/>
      <point x="345" y="371"/>
      <point x="334" y="371" type="curve" smooth="yes"/>
      <point x="328" y="371"/>
      <point x="306" y="371"/>
      <point x="301" y="371" type="curve" smooth="yes"/>
      <point x="289" y="371"/>
      <point x="287" y="372"/>
      <point x="289" y="383" type="curve"/>
      <point x="289" y="383"/>
      <point x="325" y="572"/>
      <point x="325" y="572" type="curve"/>
      <point x="325" y="572"/>
      <point x="296" y="572"/>
    </contour>
    <contour>
      <point x="401" y="318" type="curve"/>
      <point x="401" y="318"/>
      <point x="537" y="318"/>
      <point x="537" y="318" type="curve"/>
      <point x="537" y="318"/>
      <point x="543" y="347"/>
      <point x="543" y="347" type="curve"/>
      <point x="543" y="347"/>
      <point x="429" y="347"/>
      <point x="429" y="347" type="curve"/>
      <point x="429" y="347"/>
      <point x="406" y="342"/>
      <point x="406" y="342" type="curve"/>
      <point x="406" y="342"/>
      <point x="401" y="318"/>
    </contour>
    <contour>
      <point x="401" y="318" type="curve"/>
      <point x="402" y="324"/>
      <point x="427" y="333"/>
      <point x="427" y="333" type="curve"/>
      <point x="474" y="398"/>
      <point x="565" y="527"/>
      <point x="610" y="593" type="curve"/>
      <point x="610" y="593"/>
      <point x="590" y="604"/>
      <point x="590" y="604" type="curve"/>
      <point x="590" y="604"/>
      <point x="578" y="599"/>
      <point x="578" y="599" type="curve"/>
      <point x="578" y="599"/>
      <point x="578" y="597"/>
      <point x="578" y="597" type="curve"/>
      <point x="541" y="541"/>
      <point x="449" y="406"/>
      <point x="399" y="342" type="curve"/>
      <point x="399" y="342"/>
      <point x="401" y="318"/>
    </contour>
    <contour>
      <point x="448" y="601" type="curve"/>
      <point x="448" y="601"/>
      <point x="442" y="571"/>
      <point x="442" y="571" type="curve"/>
      <point x="442" y="571"/>
      <point x="584" y="571"/>
      <point x="584" y="571" type="curve"/>
      <point x="584" y="571"/>
      <point x="590" y="601"/>
      <point x="590" y="601" type="curve"/>
      <point x="590" y="601"/>
      <point x="448" y="601"/>
    </contour>
    <contour>
      <point x="531" y="347" type="curve"/>
      <point x="531" y="347"/>
      <point x="529" y="339"/>
      <point x="529" y="339" type="curve"/>
      <point x="474" y="159"/>
      <point x="396" y="28"/>
      <point x="308" y="-44" type="curve"/>
      <point x="314" y="-49"/>
      <point x="322" y="-60"/>
      <point x="325" y="-67" type="curve"/>
      <point x="417" y="10"/>
      <point x="499" y="145"/>
      <point x="560" y="342" type="curve"/>
      <point x="560" y="342"/>
      <point x="544" y="348"/>
      <point x="544" y="348" type="curve"/>
      <point x="544" y="348"/>
      <point x="538" y="347"/>
      <point x="538" y="347" type="curve"/>
      <point x="538" y="347"/>
      <point x="531" y="347"/>
    </contour>
    <contour>
      <point x="588" y="476" type="curve"/>
      <point x="588" y="476"/>
      <point x="582" y="447"/>
      <point x="582" y="447" type="curve"/>
      <point x="582" y="447"/>
      <point x="953" y="447"/>
      <point x="953" y="447" type="curve"/>
      <point x="953" y="447"/>
      <point x="959" y="476"/>
      <point x="959" y="476" type="curve"/>
      <point x="959" y="476"/>
      <point x="588" y="476"/>
    </contour>
    <contour>
      <point x="830" y="829" type="curve"/>
      <point x="830" y="829"/>
      <point x="679" y="31"/>
      <point x="679" y="31" type="curve"/>
      <point x="679" y="31"/>
      <point x="709" y="31"/>
      <point x="709" y="31" type="curve"/>
      <point x="709" y="31"/>
      <point x="860" y="829"/>
      <point x="860" y="829" type="curve"/>
      <point x="860" y="829"/>
      <point x="830" y="829"/>
    </contour>
    <contour>
      <point x="658" y="754" type="curve"/>
      <point x="677" y="686"/>
      <point x="694" y="595"/>
      <point x="700" y="543" type="curve"/>
      <point x="700" y="543"/>
      <point x="730" y="554"/>
      <point x="730" y="554" type="curve"/>
      <point x="725" y="605"/>
      <point x="705" y="693"/>
      <point x="686" y="761" type="curve"/>
      <point x="686" y="761"/>
      <point x="658" y="754"/>
    </contour>
    <contour>
      <point x="972" y="768" type="curve"/>
      <point x="942" y="702"/>
      <point x="889" y="602"/>
      <point x="852" y="545" type="curve"/>
      <point x="852" y="545"/>
      <point x="873" y="533"/>
      <point x="873" y="533" type="curve"/>
      <point x="911" y="590"/>
      <point x="961" y="682"/>
      <point x="1000" y="754" type="curve"/>
      <point x="1000" y="754"/>
      <point x="972" y="768"/>
    </contour>
    <contour>
      <point x="744" y="461" type="curve"/>
      <point x="682" y="331"/>
      <point x="584" y="188"/>
      <point x="506" y="120" type="curve"/>
      <point x="513" y="114"/>
      <point x="521" y="104"/>
      <point x="525" y="96" type="curve"/>
      <point x="605" y="173"/>
      <point x="705" y="316"/>
      <point x="769" y="451" type="curve"/>
      <point x="769" y="451"/>
      <point x="744" y="461"/>
    </contour>
    <contour>
      <point x="763" y="451" type="curve"/>
      <point x="810" y="339"/>
      <point x="861" y="188"/>
      <point x="881" y="103" type="curve"/>
      <point x="881" y="103"/>
      <point x="912" y="120"/>
      <point x="912" y="120" type="curve"/>
      <point x="891" y="203"/>
      <point x="838" y="351"/>
      <point x="792" y="464" type="curve"/>
      <point x="792" y="464"/>
      <point x="763" y="451"/>
    </contour>
    <contour>
      <point x="510" y="807" type="curve"/>
      <point x="531" y="759"/>
      <point x="557" y="693"/>
      <point x="568" y="651" type="curve"/>
      <point x="568" y="651"/>
      <point x="595" y="664"/>
      <point x="595" y="664" type="curve"/>
      <point x="586" y="704"/>
      <point x="560" y="768"/>
      <point x="535" y="817" type="curve"/>
      <point x="535" y="817"/>
      <point x="510" y="807"/>
    </contour>
    <contour>
      <point x="469" y="130" type="curve"/>
      <point x="469" y="130"/>
      <point x="441" y="117"/>
      <point x="441" y="117" type="curve"/>
      <point x="468" y="-28"/>
      <point x="551" y="-62"/>
      <point x="708" y="-62" type="curve" smooth="yes"/>
      <point x="761" y="-62"/>
      <point x="828" y="-61"/>
      <point x="874" y="-58" type="curve"/>
      <point x="878" y="-49"/>
      <point x="885" y="-34"/>
      <point x="891" y="-26" type="curve"/>
      <point x="840" y="-31"/>
      <point x="770" y="-33"/>
      <point x="714" y="-33" type="curve" smooth="yes"/>
      <point x="575" y="-33"/>
      <point x="489" y="-3"/>
    </contour>
  </outline>
</glyph>
<glyph name="uni91A1" format="2">
  <advance height="1000" width="1000"/>
  <unicode hex="91A1"/>
  <outline>
    <contour>
      <point x="722" y="823" type="curve"/>
      <point x="742" y="787"/>
      <point x="762" y="737"/>
      <point x="772" y="706" type="curve"/>
      <point x="772" y="706"/>
      <point x="798" y="722"/>
      <point x="798" y="722" type="curve"/>
      <point x="790" y="752"/>
      <point x="767" y="800"/>
      <point x="747" y="836" type="curve"/>
      <point x="747" y="836"/>
      <point x="722" y="823"/>
    </contour>
    <contour>
      <point x="807" y="706" type="curve"/>
      <point x="807" y="706"/>
      <point x="781" y="564"/>
      <point x="781" y="564" type="curve"/>
      <point x="772" y="521"/>
      <point x="778" y="508"/>
      <point x="816" y="508" type="curve" smooth="yes"/>
      <point x="828" y="508"/>
      <point x="911" y="508"/>
      <point x="928" y="508" type="curve" smooth="yes"/>
      <point x="948" y="508"/>
      <point x="967" y="508"/>
      <point x="978" y="511" type="curve"/>
      <point x="978" y="518"/>
      <point x="979" y="531"/>
      <point x="980" y="538" type="curve"/>
      <point x="967" y="536"/>
      <point x="945" y="536"/>
      <point x="932" y="536" type="curve" smooth="yes"/>
      <point x="916" y="536"/>
      <point x="839" y="536"/>
      <point x="823" y="536" type="curve" smooth="yes"/>
      <point x="808" y="536"/>
      <point x="806" y="541"/>
      <point x="811" y="564" type="curve"/>
      <point x="811" y="564"/>
      <point x="837" y="706"/>
      <point x="837" y="706" type="curve"/>
      <point x="837" y="706"/>
      <point x="807" y="706"/>
    </contour>
    <contour>
      <point x="652" y="375" type="curve"/>
      <point x="652" y="375"/>
      <point x="568" y="-71"/>
      <point x="568" y="-71" type="curve"/>
      <point x="568" y="-71"/>
      <point x="598" y="-71"/>
      <point x="598" y="-71" type="curve"/>
      <point x="598" y="-71"/>
      <point x="682" y="375"/>
      <point x="682" y="375" type="curve"/>
      <point x="682" y="375"/>
      <point x="652" y="375"/>
    </contour>
    <contour>
      <point x="513" y="731" type="curve"/>
      <point x="513" y="731"/>
      <point x="488" y="600"/>
      <point x="488" y="600" type="curve"/>
      <point x="488" y="600"/>
      <point x="518" y="600"/>
      <point x="518" y="600" type="curve"/>
      <point x="518" y="600"/>
      <point x="538" y="702"/>
      <point x="538" y="702" type="curve"/>
      <point x="538" y="702"/>
      <point x="978" y="702"/>
      <point x="978" y="702" type="curve"/>
      <point x="978" y="702"/>
      <point x="960" y="611"/>
      <point x="960" y="611" type="curve"/>
      <point x="960" y="611"/>
      <point x="989" y="611"/>
      <point x="989" y="611" type="curve"/>
      <point x="989" y="611"/>
      <point x="1012" y="731"/>
      <point x="1012" y="731" type="curve"/>
      <point x="1012" y="731"/>
      <point x="513" y="731"/>
    </contour>
    <contour>
      <point x="627" y="508" type="curve"/>
      <point x="567" y="399"/>
      <point x="481" y="297"/>
      <point x="392" y="229" type="curve"/>
      <point x="399" y="224"/>
      <point x="409" y="214"/>
      <point x="414" y="210" type="curve"/>
      <point x="501" y="281"/>
      <point x="590" y="387"/>
      <point x="655" y="501" type="curve"/>
      <point x="655" y="501"/>
      <point x="627" y="508"/>
    </contour>
    <contour>
      <point x="560" y="389" type="curve"/>
      <point x="560" y="389"/>
      <point x="537" y="360"/>
      <point x="537" y="360" type="curve"/>
      <point x="537" y="360"/>
      <point x="956" y="360"/>
      <point x="956" y="360" type="curve"/>
      <point x="956" y="360"/>
      <point x="962" y="389"/>
      <point x="962" y="389" type="curve"/>
      <point x="962" y="389"/>
      <point x="560" y="389"/>
    </contour>
    <contour>
      <point x="643" y="259" type="curve"/>
      <point x="643" y="259"/>
      <point x="637" y="229"/>
      <point x="637" y="229" type="curve"/>
      <point x="637" y="229"/>
      <point x="894" y="229"/>
      <point x="894" y="229" type="curve"/>
      <point x="894" y="229"/>
      <point x="900" y="259"/>
      <point x="900" y="259" type="curve"/>
      <point x="900" y="259"/>
      <point x="643" y="259"/>
    </contour>
    <contour>
      <point x="616" y="118" type="curve"/>
      <point x="616" y="118"/>
      <point x="611" y="88"/>
      <point x="611" y="88" type="curve"/>
      <point x="611" y="88"/>
      <point x="872" y="88"/>
      <point x="872" y="88" type="curve"/>
      <point x="872" y="88"/>
      <point x="877" y="118"/>
      <point x="877" y="118" type="curve"/>
      <point x="877" y="118"/>
      <point x="616" y="118"/>
    </contour>
    <contour>
      <point x="665" y="709" type="curve"/>
      <point x="634" y="588"/>
      <point x="585" y="531"/>
      <point x="457" y="501" type="curve"/>
      <point x="461" y="496"/>
      <point x="468" y="485"/>
      <point x="470" y="478" type="curve"/>
      <point x="607" y="514"/>
      <point x="661" y="576"/>
      <point x="696" y="709" type="curve"/>
      <point x="696" y="709"/>
      <point x="665" y="709"/>
    </contour>
    <contour>
      <point x="123" y="593" type="curve"/>
      <point x="123" y="593"/>
      <point x="-2" y="-67"/>
      <point x="-2" y="-67" type="curve"/>
      <point x="-2" y="-67"/>
      <point x="27" y="-67"/>
      <point x="27" y="-67" type="curve"/>
      <point x="27" y="-67"/>
      <point x="147" y="564"/>
      <point x="147" y="564" type="curve"/>
      <point x="147" y="564"/>
      <point x="407" y="564"/>
      <point x="407" y="564" type="curve"/>
      <point x="407" y="564"/>
      <point x="290" y="-54"/>
      <point x="290" y="-54" type="curve"/>
      <point x="290" y="-54"/>
      <point x="319" y="-54"/>
      <point x="319" y="-54" type="curve"/>
      <point x="319" y="-54"/>
      <point x="441" y="593"/>
      <point x="441" y="593" type="curve"/>
      <point x="441" y="593"/>
      <point x="123" y="593"/>
    </contour>
    <contour>
      <point x="107" y="208" type="curve"/>
      <point x="107" y="208"/>
      <point x="102" y="179"/>
      <point x="102" y="179" type="curve"/>
      <point x="102" y="179"/>
      <point x="308" y="179"/>
      <point x="308" y="179" type="curve"/>
      <point x="308" y="179"/>
      <point x="313" y="208"/>
      <point x="313" y="208" type="curve"/>
      <point x="313" y="208"/>
      <point x="107" y="208"/>
    </contour>
    <contour>
      <point x="26" y="39" type="curve"/>
      <point x="26" y="39"/>
      <point x="21" y="10"/>
      <point x="21" y="10" type="curve"/>
      <point x="21" y="10"/>
      <point x="317" y="10"/>
      <point x="317" y="10" type="curve"/>
      <point x="317" y="10"/>
      <point x="322" y="39"/>
      <point x="322" y="39" type="curve"/>
      <point x="322" y="39"/>
      <point x="26" y="39"/>
    </contour>
    <contour>
      <point x="137" y="781" type="curve"/>
      <point x="137" y="781"/>
      <point x="131" y="752"/>
      <point x="131" y="752" type="curve"/>
      <point x="131" y="752"/>
      <point x="494" y="752"/>
      <point x="494" y="752" type="curve"/>
      <point x="494" y="752"/>
      <point x="500" y="781"/>
      <point x="500" y="781" type="curve"/>
      <point x="500" y="781"/>
      <point x="137" y="781"/>
    </contour>
    <contour>
      <point x="253" y="772" type="curve"/>
      <point x="253" y="772"/>
      <point x="216" y="578"/>
      <point x="216" y="578" type="curve"/>
      <point x="216" y="578"/>
      <point x="245" y="578"/>
      <point x="245" y="578" type="curve"/>
      <point x="245" y="578"/>
      <point x="282" y="772"/>
      <point x="282" y="772" type="curve"/>
      <point x="282" y="772"/>
      <point x="253" y="772"/>
    </contour>
    <contour>
      <point x="345" y="770" type="curve"/>
      <point x="345" y="770"/>
      <point x="308" y="576"/>
      <point x="308" y="576" type="curve"/>
      <point x="308" y="576"/>
      <point x="337" y="576"/>
      <point x="337" y="576" type="curve"/>
      <point x="337" y="576"/>
      <point x="374" y="770"/>
      <point x="374" y="770" type="curve"/>
      <point x="374" y="770"/>
      <point x="345" y="770"/>
    </contour>
    <contour>
      <point x="216" y="579" type="curve"/>
      <point x="216" y="579"/>
      <point x="198" y="484"/>
      <point x="198" y="484" type="curve"/>
      <point x="187" y="425"/>
      <point x="161" y="351"/>
      <point x="88" y="292" type="curve"/>
      <point x="94" y="288"/>
      <point x="104" y="279"/>
      <point x="108" y="273" type="curve"/>
      <point x="185" y="334"/>
      <point x="216" y="421"/>
      <point x="227" y="484" type="curve"/>
      <point x="227" y="484"/>
      <point x="245" y="579"/>
      <point x="245" y="579" type="curve"/>
      <point x="245" y="579"/>
      <point x="216" y="579"/>
    </contour>
    <contour>
      <point x="308" y="579" type="curve"/>
      <point x="308" y="579"/>
      <point x="271" y="382"/>
      <point x="271" y="382" type="curve"/>
      <point x="264" y="345"/>
      <point x="274" y="340"/>
      <point x="307" y="340" type="curve" smooth="yes"/>
      <point x="312" y="340"/>
      <point x="351" y="340"/>
      <point x="357" y="340" type="curve" smooth="yes"/>
      <point x="381" y="340"/>
      <point x="393" y="348"/>
      <point x="397" y="361" type="curve"/>
      <point x="389" y="363"/>
      <point x="378" y="366"/>
      <point x="372" y="372" type="curve"/>
      <point x="370" y="370"/>
      <point x="368" y="370"/>
      <point x="356" y="370" type="curve" smooth="yes"/>
      <point x="348" y="370"/>
      <point x="319" y="370"/>
      <point x="313" y="370" type="curve" smooth="yes"/>
      <point x="300" y="370"/>
      <point x="298" y="372"/>
      <point x="300" y="382" type="curve"/>
      <point x="300" y="382"/>
      <point x="337" y="579"/>
      <point x="337" y="579" type="curve"/>
      <point x="337" y="579"/>
      <point x="308" y="579"/>
    </contour>
  </outline>
</glyph>
<glyph name="uni91A8" format="2">
  <advance height="1000" width="1000"/>
  <unicode hex="91A8"/>
  <outline>
    <contour>
      <point x="426" y="312" type="curve"/>
      <point x="426" y="312"/>
      <point x="420" y="282"/>
      <point x="420" y="282" type="curve"/>
      <point x="420" y="282"/>
      <point x="893" y="282"/>
      <point x="893" y="282" type="curve"/>
      <point x="893" y="282"/>
      <point x="899" y="312"/>
      <point x="899" y="312" type="curve"/>
      <point x="899" y="312"/>
      <point x="426" y="312"/>
    </contour>
    <contour>
      <point x="467" y="352" type="curve"/>
      <point x="467" y="352"/>
      <point x="387" y="-71"/>
      <point x="387" y="-71" type="curve"/>
      <point x="387" y="-71"/>
      <point x="416" y="-71"/>
      <point x="416" y="-71" type="curve"/>
      <point x="416" y="-71"/>
      <point x="496" y="352"/>
      <point x="496" y="352" type="curve"/>
      <point x="496" y="352"/>
      <point x="467" y="352"/>
    </contour>
    <contour>
      <point x="735" y="826" type="curve"/>
      <point x="746" y="790"/>
      <point x="756" y="742"/>
      <point x="760" y="713" type="curve"/>
      <point x="760" y="713"/>
      <point x="788" y="722"/>
      <point x="788" y="722" type="curve"/>
      <point x="786" y="750"/>
      <point x="774" y="797"/>
      <point x="762" y="832" type="curve"/>
      <point x="762" y="832"/>
      <point x="735" y="826"/>
    </contour>
    <contour>
      <point x="506" y="734" type="curve"/>
      <point x="506" y="734"/>
      <point x="500" y="705"/>
      <point x="500" y="705" type="curve"/>
      <point x="500" y="705"/>
      <point x="1022" y="705"/>
      <point x="1022" y="705" type="curve"/>
      <point x="1022" y="705"/>
      <point x="1028" y="734"/>
      <point x="1028" y="734" type="curve"/>
      <point x="1028" y="734"/>
      <point x="506" y="734"/>
    </contour>
    <contour>
      <point x="488" y="107" type="curve"/>
      <point x="488" y="107"/>
      <point x="490" y="77"/>
      <point x="490" y="77" type="curve"/>
      <point x="570" y="83"/>
      <point x="669" y="91"/>
      <point x="772" y="101" type="curve"/>
      <point x="772" y="101"/>
      <point x="777" y="127"/>
      <point x="777" y="127" type="curve"/>
      <point x="669" y="119"/>
      <point x="565" y="111"/>
    </contour>
    <contour>
      <point x="889" y="312" type="curve"/>
      <point x="889" y="312"/>
      <point x="825" y="-29"/>
      <point x="825" y="-29" type="curve"/>
      <point x="822" y="-40"/>
      <point x="818" y="-43"/>
      <point x="807" y="-43" type="curve"/>
      <point x="796" y="-44"/>
      <point x="756" y="-44"/>
      <point x="707" y="-43" type="curve"/>
      <point x="710" y="-51"/>
      <point x="714" y="-62"/>
      <point x="715" y="-69" type="curve"/>
      <point x="775" y="-69"/>
      <point x="807" y="-69"/>
      <point x="826" y="-64" type="curve" smooth="yes"/>
      <point x="844" y="-59"/>
      <point x="850" y="-49"/>
      <point x="854" y="-29" type="curve"/>
      <point x="854" y="-29"/>
      <point x="918" y="312"/>
      <point x="918" y="312" type="curve"/>
      <point x="918" y="312"/>
      <point x="889" y="312"/>
    </contour>
    <contour>
      <point x="718" y="220" type="curve"/>
      <point x="746" y="163"/>
      <point x="769" y="86"/>
      <point x="773" y="37" type="curve"/>
      <point x="773" y="37"/>
      <point x="801" y="50"/>
      <point x="801" y="50" type="curve"/>
      <point x="798" y="98"/>
      <point x="774" y="174"/>
      <point x="744" y="229" type="curve"/>
      <point x="744" y="229"/>
      <point x="718" y="220"/>
    </contour>
    <contour>
      <point x="627" y="626" type="curve"/>
      <point x="698" y="584"/>
      <point x="777" y="519"/>
      <point x="813" y="471" type="curve"/>
      <point x="813" y="471"/>
      <point x="835" y="493"/>
      <point x="835" y="493" type="curve"/>
      <point x="800" y="540"/>
      <point x="720" y="604"/>
      <point x="648" y="645" type="curve"/>
      <point x="648" y="645"/>
      <point x="627" y="626"/>
    </contour>
    <contour>
      <point x="687" y="423" type="curve"/>
      <point x="649" y="326"/>
      <point x="584" y="180"/>
      <point x="537" y="100" type="curve"/>
      <point x="537" y="100"/>
      <point x="560" y="92"/>
      <point x="560" y="92" type="curve"/>
      <point x="608" y="172"/>
      <point x="673" y="313"/>
      <point x="718" y="415" type="curve"/>
      <point x="718" y="415"/>
      <point x="687" y="423"/>
    </contour>
    <contour>
      <point x="548" y="663" type="curve"/>
      <point x="548" y="663"/>
      <point x="498" y="396"/>
      <point x="498" y="396" type="curve"/>
      <point x="498" y="396"/>
      <point x="901" y="396"/>
      <point x="901" y="396" type="curve"/>
      <point x="901" y="396"/>
      <point x="951" y="663"/>
      <point x="951" y="663" type="curve"/>
      <point x="951" y="663"/>
      <point x="922" y="663"/>
      <point x="922" y="663" type="curve"/>
      <point x="922" y="663"/>
      <point x="877" y="425"/>
      <point x="877" y="425" type="curve"/>
      <point x="877" y="425"/>
      <point x="533" y="425"/>
      <point x="533" y="425" type="curve"/>
      <point x="533" y="425"/>
      <point x="578" y="663"/>
      <point x="578" y="663" type="curve"/>
      <point x="578" y="663"/>
      <point x="548" y="663"/>
    </contour>
    <contour>
      <point x="820" y="684" type="curve"/>
      <point x="763" y="599"/>
      <point x="674" y="523"/>
      <point x="585" y="474" type="curve"/>
      <point x="591" y="470"/>
      <point x="601" y="459"/>
      <point x="604" y="455" type="curve"/>
      <point x="693" y="507"/>
      <point x="786" y="586"/>
      <point x="846" y="677" type="curve"/>
      <point x="846" y="677"/>
      <point x="820" y="684"/>
    </contour>
    <contour>
      <point x="127" y="593" type="curve"/>
      <point x="127" y="593"/>
      <point x="2" y="-67"/>
      <point x="2" y="-67" type="curve"/>
      <point x="2" y="-67"/>
      <point x="31" y="-67"/>
      <point x="31" y="-67" type="curve"/>
      <point x="31" y="-67"/>
      <point x="151" y="564"/>
      <point x="151" y="564" type="curve"/>
      <point x="151" y="564"/>
      <point x="407" y="564"/>
      <point x="407" y="564" type="curve"/>
      <point x="407" y="564"/>
      <point x="290" y="-54"/>
      <point x="290" y="-54" type="curve"/>
      <point x="290" y="-54"/>
      <point x="319" y="-54"/>
      <point x="319" y="-54" type="curve"/>
      <point x="319" y="-54"/>
      <point x="441" y="593"/>
      <point x="441" y="593" type="curve"/>
      <point x="441" y="593"/>
      <point x="127" y="593"/>
    </contour>
    <contour>
      <point x="108" y="208" type="curve"/>
      <point x="108" y="208"/>
      <point x="103" y="179"/>
      <point x="103" y="179" type="curve"/>
      <point x="103" y="179"/>
      <point x="309" y="179"/>
      <point x="309" y="179" type="curve"/>
      <point x="309" y="179"/>
      <point x="314" y="208"/>
      <point x="314" y="208" type="curve"/>
      <point x="314" y="208"/>
      <point x="108" y="208"/>
    </contour>
    <contour>
      <point x="32" y="39" type="curve"/>
      <point x="32" y="39"/>
      <point x="27" y="10"/>
      <point x="27" y="10" type="curve"/>
      <point x="27" y="10"/>
      <point x="315" y="10"/>
      <point x="315" y="10" type="curve"/>
      <point x="315" y="10"/>
      <point x="320" y="39"/>
      <point x="320" y="39" type="curve"/>
      <point x="320" y="39"/>
      <point x="32" y="39"/>
    </contour>
    <contour>
      <point x="141" y="776" type="curve"/>
      <point x="141" y="776"/>
      <point x="135" y="747"/>
      <point x="135" y="747" type="curve"/>
      <point x="135" y="747"/>
      <point x="489" y="747"/>
      <point x="489" y="747" type="curve"/>
      <point x="489" y="747"/>
      <point x="495" y="776"/>
      <point x="495" y="776" type="curve"/>
      <point x="495" y="776"/>
      <point x="141" y="776"/>
    </contour>
    <contour>
      <point x="253" y="772" type="curve"/>
      <point x="253" y="772"/>
      <point x="215" y="573"/>
      <point x="215" y="573" type="curve"/>
      <point x="215" y="573"/>
      <point x="244" y="573"/>
      <point x="244" y="573" type="curve"/>
      <point x="244" y="573"/>
      <point x="282" y="772"/>
      <point x="282" y="772" type="curve"/>
      <point x="282" y="772"/>
      <point x="253" y="772"/>
    </contour>
    <contour>
      <point x="346" y="772" type="curve"/>
      <point x="346" y="772"/>
      <point x="308" y="573"/>
      <point x="308" y="573" type="curve"/>
      <point x="308" y="573"/>
      <point x="337" y="573"/>
      <point x="337" y="573" type="curve"/>
      <point x="337" y="573"/>
      <point x="375" y="772"/>
      <point x="375" y="772" type="curve"/>
      <point x="375" y="772"/>
      <point x="346" y="772"/>
    </contour>
    <contour>
      <point x="215" y="572" type="curve"/>
      <point x="215" y="572"/>
      <point x="200" y="491"/>
      <point x="200" y="491" type="curve"/>
      <point x="189" y="433"/>
      <point x="161" y="357"/>
      <point x="85" y="297" type="curve"/>
      <point x="93" y="294"/>
      <point x="102" y="286"/>
      <point x="106" y="279" type="curve"/>
      <point x="184" y="341"/>
      <point x="217" y="428"/>
      <point x="229" y="491" type="curve"/>
      <point x="229" y="491"/>
      <point x="244" y="572"/>
      <point x="244" y="572" type="curve"/>
      <point x="244" y="572"/>
      <point x="215" y="572"/>
    </contour>
    <contour>
      <point x="308" y="572" type="curve"/>
      <point x="308" y="572"/>
      <point x="272" y="383"/>
      <point x="272" y="383" type="curve"/>
      <point x="265" y="346"/>
      <point x="275" y="341"/>
      <point x="307" y="341" type="curve" smooth="yes"/>
      <point x="312" y="341"/>
      <point x="349" y="341"/>
      <point x="355" y="341" type="curve" smooth="yes"/>
      <point x="378" y="341"/>
      <point x="390" y="349"/>
      <point x="395" y="362" type="curve"/>
      <point x="387" y="364"/>
      <point x="376" y="367"/>
      <point x="370" y="373" type="curve"/>
      <point x="368" y="371"/>
      <point x="365" y="371"/>
      <point x="354" y="371" type="curve" smooth="yes"/>
      <point x="346" y="371"/>
      <point x="319" y="371"/>
      <point x="313" y="371" type="curve" smooth="yes"/>
      <point x="301" y="371"/>
      <point x="299" y="372"/>
      <point x="301" y="383" type="curve"/>
      <point x="301" y="383"/>
      <point x="337" y="572"/>
      <point x="337" y="572" type="curve"/>
      <point x="337" y="572"/>
      <point x="308" y="572"/>
    </contour>
  </outline>
</glyph>
